<?xml version="1.0" encoding="UTF-8"?>
<svg id="Layer_2" data-name="Layer 2" xmlns="http://www.w3.org/2000/svg" viewBox="0 0 205.96 274.24">
  <defs>
    <style>
      .cls-1 {
        fill: #fff;
        stroke-width: 0px;
      }
    </style>
  </defs>
  <g id="Layer_1-2" data-name="Layer 1">
    <path class="cls-1" d="m191.95,113.64c-13.57-13.56-9.09-9.89-26.51-20.84-1.4,1.41-.51.68-12.88,12.86l-15.26,2.22-14.31,5.58-14.55,2.89-15.63-9.1-14.65,5.03-2.2-3.52-.68-19.15,6.54-17.62,4.47-16.8-4.07-11.67-.12-1.6,12.24,1.02,15.85,2.42,14.43.91c10.35,11.19,9.22,10.22,10,11.1,9.51,2.34,14.54,3.14,14.77,3.19,5-1.05,9.84-2.04,15.04-3.41-5,.13-9.96.49-14.92.88-3.88-1.23-8.72-2.59-13.03-3.63-2.44-2.82-6.04-7.34-9.77-12.12l-15.73-2.27-15.57-3.66-13.89-2.47-.54-7.47-10-12.9-6.28-13.51-8.54,4.23,6.98,13.23-10.52,8.58-15.41,11.8-2.75,17.81s-.26,12.97-.35,15.3c-4.58,1.83-7.43,2.74-17.48,7.22-1.57,1-9.88,6.02-16.65,10.72,6.65-2.65,11.95-5.16,18.1-7.95l-.17.08c20.62-7.2,9.59-3.51,18.85-6.87l1.16-.42c2.26-23.89,1.48-15.65,1.65-17.44l3.46-14.69,25.91-17.08,4.32,5.03,1.8,15.6,4.15,10.45-3.24,14.66-5.43,16.8-16.82,9.88-4.6,17.77,5.05,14.15c.46,2.72,2.81,16.12,2.81,16.12-.99,3.02-6,19.27-6,19.27,0,0,9.93,9.44,14.8,13.87-4.13-4.85-8.34-9.61-12.58-14.36l7.13-18.48-2.38-17.38-4.75-13.34,4.32-14.63,11.25-5.98,1.17,16.77,10.63,15.82,14.04,12.46,9.55,13.11-12.45,9.85,3.66,17.08-13.92,10.98,6.11,13.93-5.76,12.2c-2.07,4.13-6.46,12.68-6.46,12.68l1.72,15.02c7.47,25.05,3.85,14.21,7.84,30.41-2.13-18.76-3.03-17.93-6.3-30.7l-1.04-14.28c12-21.34,6.63-12.01,10.94-19.89l-1.21,13.92s8.34,8.94,12.38,13.15c-.43,5.34-1.22,16.15-1.22,16.15l4.37,15.12-3.29-15.2c.74-5.44,2.16-16.74,2.16-16.74,0,0-7.9-9.05-11.72-13.39.28-2.55,1.6-16.2,1.6-16.2l-6.5-15.24,14.11-10.48-3.11-16.88,14.18-10.57-11.89-17.35-13.55-12.74-3.77-6.03,11.33-4.4,15.39,8.25,14.94-3.49,5.95,11.58,12.71,7.93,10.19,9.06.69,14,1.88,14.9c6.31,4.39,7.83,7.05,25.04,17.17-2.69-2.16-9.06-7.01-11.84-9.08-1.88-1.63-9.27-7.8-11.08-9.26,0,0-1.27-11.53-1.49-13.92v-15.25l-10.96-10.7-11.54-7.99-4.58-10.31,10.48-4.5,15.67-2.82s8.01-8.46,11.96-12.46c0,0,11.19,6.82,13.58,8.25,3.91,3.6,11.96,10.76,11.96,10.76,0,0,9.76,3.22,14.62,4.72-4.64-1.97-9.33-3.82-14-5.73Z"/>
  </g>
</svg>