<?xml version="1.0" encoding="UTF-8"?>
<svg xmlns="http://www.w3.org/2000/svg" viewBox="0 0 554.76 483.65">
  <defs>
    <style>
      .cls-1 {
        opacity: .36;
        stroke-width: 15px;
      }

      .cls-1, .cls-2, .cls-3, .cls-4, .cls-5, .cls-6, .cls-7 {
        fill: none;
        stroke-linecap: round;
        stroke-linejoin: round;
      }

      .cls-1, .cls-2, .cls-3, .cls-5, .cls-7 {
        mix-blend-mode: screen;
      }

      .cls-1, .cls-2, .cls-3, .cls-7 {
        stroke: #ddd;
      }

      .cls-2 {
        opacity: .05;
        stroke-width: 24px;
      }

      .cls-3 {
        opacity: .1;
        stroke-width: 21px;
      }

      .cls-4 {
        stroke-width: 4px;
      }

      .cls-4, .cls-6 {
        stroke: #fff;
      }

      .cls-5 {
        opacity: .46;
        stroke: #e9e9e9;
        stroke-width: 12px;
      }

      .cls-6 {
        opacity: .57;
        stroke-width: 8px;
      }

      .cls-7 {
        opacity: .2;
        stroke-width: 18px;
      }

      .cls-8 {
        isolation: isolate;
      }

      .cls-9 {
        fill: #fff;
        stroke-width: 0px;
      }
    </style>
  </defs>
  <g class="cls-8">
    <g id="Layer_2" data-name="Layer 2">
      <g id="Layer_2-2" data-name="Layer 2">
        <g>
          <g>
            <polyline class="cls-2" points="470.14 137.78 542.76 12 12 12 71.3 114.7"/>
            <polyline class="cls-3" points="470.14 137.78 542.76 12 12 12 71.3 114.7"/>
            <polyline class="cls-7" points="470.14 137.78 542.76 12 12 12 71.3 114.7"/>
            <polyline class="cls-1" points="470.14 137.78 542.76 12 12 12 71.3 114.7"/>
            <polyline class="cls-5" points="470.14 137.78 542.76 12 12 12 71.3 114.7"/>
            <polyline class="cls-6" points="470.14 137.78 542.76 12 12 12 71.3 114.7"/>
            <polyline class="cls-4" points="470.14 137.78 542.76 12 12 12 71.3 114.7"/>
          </g>
          <g>
            <polyline class="cls-2" points="129.18 214.96 277.38 471.65 427.66 211.36"/>
            <polyline class="cls-3" points="129.18 214.96 277.38 471.65 427.66 211.36"/>
            <polyline class="cls-7" points="129.18 214.96 277.38 471.65 427.66 211.36"/>
            <polyline class="cls-1" points="129.18 214.96 277.38 471.65 427.66 211.36"/>
            <polyline class="cls-5" points="129.18 214.96 277.38 471.65 427.66 211.36"/>
            <polyline class="cls-6" points="129.18 214.96 277.38 471.65 427.66 211.36"/>
            <polyline class="cls-4" points="129.18 214.96 277.38 471.65 427.66 211.36"/>
          </g>
          <g>
            <path class="cls-9" d="m88.48,80.07h40.49v14.25h-25.73v35.01h19.9v13.48h-19.9v35.91h34.75v14.25h-49.52v-112.89Z"/>
            <path class="cls-9" d="m155.67,80.07v76.38h25.29v13.48h-40.05v-89.86h14.76Z"/>
            <path class="cls-9" d="m189.31,80.07h37.61v14.25h-22.85v23.49h19.9v13.48h-19.9v24.39h23.23v14.25h-38v-89.86Z"/>
            <path class="cls-9" d="m253.62,80.07v39.67l17.59-39.67h15.79l-17.72,38.9,35.53,90.41h-16.63l-29.3-76.8-5.26,10.91v26.44h-14.76v-89.86h14.76Z"/>
            <path class="cls-9" d="m345.11,61.97v14.25h-32.68v93.71h-14.76v-93.71h-32.68v-14.25h80.12Z"/>
            <path class="cls-9" d="m342.25,80.07c1.54,0,3.32.04,5.33.13,2.01.09,4.09.34,6.23.77,2.14.43,4.21,1.14,6.23,2.12,2.01.98,3.83,2.33,5.46,4.04,1.62,1.71,2.93,3.91,3.91,6.61.98,2.7,1.48,6.01,1.48,9.95v8.09c0,2.74-.34,5.18-1.03,7.32-.69,2.14-1.56,3.98-2.63,5.52-1.07,1.54-2.25,2.8-3.53,3.79-1.28.98-2.57,1.69-3.85,2.12l13.48,39.41h-15.4l-11.81-36.2h-6.03v36.2h-14.76v-89.86h16.94Zm-2.18,40.18h6.67c1.37,0,2.63-.21,3.79-.64,1.16-.43,2.14-1.09,2.95-1.99.81-.9,1.45-1.99,1.93-3.27.47-1.28.71-2.78.71-4.49v-6.8c0-2.14-.32-3.83-.96-5.07-.64-1.24-1.48-2.18-2.5-2.82-1.03-.64-2.12-1.07-3.27-1.28-1.16-.21-2.25-.32-3.27-.32h-6.03v26.7Z"/>
            <path class="cls-9" d="m397.7,80.07v89.86h-14.76v-89.86h14.76Z"/>
            <path class="cls-9" d="m426.58,80.07v52.5l23.28-52.5h15.94l-23.56,51.73,24.03,61.16h-16.29l-18.14-47.55-5.26,10.91v36.64h-14.76v-112.89h14.76Z"/>
            <path class="cls-9" d="m213,201.78h40.49v14.25h-25.73v32.13h19.9v13.48h-19.9v35.91h42.06v14.25h-56.83v-110.01Z"/>
            <path class="cls-9" d="m262.65,214.96h37.61v14.25h-22.85v17.73h17.02v13.48h-17.02v18.63h23.23v14.25h-38v-78.34Z"/>
            <path class="cls-9" d="m325.32,192.96v91.13h44.26v13.48h-59.03v-104.61h14.76Z"/>
          </g>
        </g>
      </g>
    </g>
  </g>
</svg>