<?xml version="1.0" encoding="utf-8"?>
<!-- Generator: Adobe Illustrator 27.9.0, SVG Export Plug-In . SVG Version: 6.00 Build 0)  -->
<svg version="1.1" id="Layer_1" xmlns="http://www.w3.org/2000/svg" xmlns:xlink="http://www.w3.org/1999/xlink" x="0px" y="0px"
	 viewBox="0 0 444 200" style="enable-background:new 0 0 444 200;" xml:space="preserve">
<style type="text/css">
	.st0{fill:#FFFFFF;}
</style>
<g>
	<path class="st0" d="M404.8,175c-27.4,0-41.2-12.3-41.2-37h28.6v0.8c0,4.3,1.2,7.3,3.7,9c2.6,1.8,5.7,2.7,8.9,2.6
		c4,0,6.9-0.8,8.6-2.4c1.7-1.6,2.6-3.8,2.6-6.7c0-0.8-0.2-1.6-0.6-2.3c-0.4-0.7-0.9-1.3-1.6-1.7c-1.8-1.1-3.7-2-5.7-2.7
		c-2.7-0.9-5.4-1.7-8.2-2.4c-3.1-0.8-6.2-1.7-9.4-2.8c-3.2-1.1-6.3-2.4-9.3-3.9c-3-1.5-5.8-3.5-8.2-5.8c-2.5-2.5-4.5-5.4-5.8-8.7
		c-1.5-3.9-2.3-8-2.2-12.2c-0.1-4.3,0.8-8.6,2.6-12.5c1.7-3.8,4.3-7.2,7.5-9.9c3.5-3,7.5-5.2,11.9-6.6c5.1-1.7,10.5-2.5,15.9-2.4
		c5.5,0,10.9,0.7,16.1,2.2c4.7,1.3,9,3.5,12.7,6.6c3.6,3,6.4,6.8,8.3,11.1c2,4.4,3,9.6,3,15.5h-27.5v-0.4c0-4.4-1.1-7.5-3.2-9.1
		c-2.1-1.7-5-2.5-8.6-2.5c-3.6,0-6.2,0.8-7.9,2.5c-0.8,0.7-1.4,1.6-1.8,2.6c-0.4,1-0.6,2.1-0.6,3.2c0,0.8,0.2,1.5,0.6,2.2
		c0.4,0.7,0.9,1.2,1.6,1.6c1.8,1.1,3.7,2,5.7,2.6c2.3,0.8,5,1.5,8,2.3c3,0.8,6,1.7,9.2,2.8c3.2,1.1,6.2,2.4,9.2,3.9
		c2.9,1.5,5.6,3.5,7.9,5.9c2.3,2.5,4.2,5.4,5.6,8.6c1.5,3.3,2.2,7.3,2.2,12c0,4.4-0.8,8.8-2.5,12.9c-1.7,4.1-4.1,7.7-7.2,10.8
		c-3.4,3.3-7.5,5.9-12,7.6C416.2,174.1,410.5,175.1,404.8,175L404.8,175z"/>
	<path class="st0" d="M366.3,69.5h-32.9l-38.1,45.7V27.8H267v145.2h28.3v-25l13.9-16.3l28.1,41.4h31l-39.7-58.8L366.3,69.5z"/>
	<path class="st0" d="M107.2,42.2c0-5.1,1.6-9.2,4.7-12.4s7.2-4.8,12.3-4.7c5.1,0,9.2,1.6,12.4,4.7c3.2,3.2,4.8,7.3,4.7,12.4
		c0,5.1-1.6,9.2-4.7,12.3c-3.2,3.1-7.3,4.7-12.4,4.7c-5.1,0-9.2-1.6-12.3-4.7C108.8,51.4,107.2,47.3,107.2,42.2z M110.1,69.5h28.4
		v103.4h-28.4V69.5z"/>
	<path class="st0" d="M28.3,27.8H0v105.1L28.3,27.8z"/>
	<path class="st0" d="M61.7,114.2l37.7-44.7H66.4L0,149.3v23.6h28.3v-25l13.9-16.3l28.1,41.4h31L61.7,114.2z"/>
	<path class="st0" d="M227.5,130.1c-1.2,4.8-3.9,9.1-7.7,12.3c-4.4,3.8-9.9,5.7-16.5,5.7c-8.1,0-14.6-2.4-19.5-7.3
		c-4.8-4.9-7.3-11.4-7.2-19.6c0-3.6,0.7-7.1,2.1-10.4c1.3-3.2,3.2-6.1,5.6-8.6c2.4-2.5,5.2-4.5,8.4-5.8c3.3-1.4,6.9-2.1,10.5-2.1
		c6.6,0,12.2,1.8,16.7,5.5c3.8,3.1,6.5,7.3,7.7,12h28.7c-0.7-5.7-2.3-11.2-4.9-16.3c-2.8-5.7-6.7-10.7-11.5-14.9
		c-4.9-4.2-10.5-7.5-16.6-9.7c-6.5-2.4-13.3-3.6-20.2-3.5c-7.2-0.1-14.3,1.4-20.9,4.2c-6.4,2.7-12.1,6.7-17.1,11.5
		c-4.9,4.9-8.9,10.7-11.5,17.1c-2.8,6.7-4.2,13.8-4.1,21c-0.1,7.4,1.3,14.8,4.1,21.7c2.5,6.4,6.3,12.2,11.2,17.1
		c4.8,4.8,10.6,8.6,17,11.1c13.2,5.1,27.8,5.2,41.2,0.4c12.2-4.4,22.3-13.3,28.2-24.8c2.7-5.2,4.4-10.8,5.1-16.5L227.5,130.1z"/>
</g>
</svg>
