<?xml version="1.0" encoding="UTF-8"?>
<svg id="Layer_2" data-name="Layer 2" xmlns="http://www.w3.org/2000/svg" viewBox="0 0 43.45 33.71">
  <defs>
    <style>
      .cls-1 {
        opacity: .45;
      }

      .cls-1, .cls-2 {
        fill: #fff;
        stroke-width: 0px;
      }
    </style>
  </defs>
  <g id="_ÎÓÈ_1" data-name="—ÎÓÈ_1">
    <g>
      <path class="cls-2" d="m9.39,31.83c0-.63.41-1.14,1.08-1.14s1.07.49,1.07,1.14-.43,1.14-1.07,1.14-1.08-.51-1.08-1.14h0Zm2.89,0v-1.78h-.77v.43c-.25-.32-.62-.52-1.13-.52-1,0-1.78.78-1.78,1.87s.78,1.87,1.78,1.87c.51,0,.88-.2,1.13-.52v.43h.77v-1.78Zm26.2,0c0-.63.41-1.14,1.08-1.14s1.08.49,1.08,1.14-.43,1.14-1.08,1.14-1.08-.51-1.08-1.14h0Zm2.89,0v-3.21h-.77v1.87c-.25-.32-.62-.52-1.12-.52-1,0-1.78.78-1.78,1.87s.78,1.87,1.78,1.87c.51,0,.88-.2,1.12-.52v.43h.77v-1.78Zm-19.46-1.18c.5,0,.82.31.9.86h-1.85c.08-.51.39-.86.95-.86h0Zm.01-.69c-1.04,0-1.77.76-1.77,1.87s.76,1.87,1.83,1.87c.54,0,1.03-.13,1.46-.5l-.38-.57c-.3.24-.68.37-1.04.37-.5,0-.96-.23-1.07-.87h2.65c0-.1.01-.2.01-.3,0-1.11-.69-1.87-1.69-1.87h0Zm9.36,1.87c0-.63.41-1.14,1.08-1.14s1.07.49,1.07,1.14-.43,1.14-1.07,1.14-1.08-.51-1.08-1.14h0Zm2.89,0v-1.78h-.77v.43c-.25-.32-.62-.52-1.13-.52-1,0-1.78.78-1.78,1.87s.78,1.87,1.78,1.87c.51,0,.88-.2,1.13-.52v.43h.77v-1.78Zm-7.27,0c0,1.08.75,1.87,1.9,1.87.54,0,.89-.12,1.28-.43l-.37-.63c-.29.21-.6.32-.93.32-.62,0-1.08-.45-1.08-1.14s.46-1.13,1.08-1.14c.33,0,.64.11.93.32l.37-.63c-.39-.31-.75-.43-1.28-.43-1.15,0-1.9.79-1.9,1.87h0Zm10-1.87c-.45,0-.74.21-.94.52v-.43h-.77v3.56h.77v-2c0-.59.25-.92.76-.92.16,0,.32.02.49.09l.24-.73c-.17-.07-.39-.1-.55-.1h0Zm-20.79.37c-.37-.24-.89-.37-1.45-.37-.9,0-1.48.43-1.48,1.14,0,.58.43.94,1.23,1.05l.37.05c.43.06.63.17.63.37,0,.27-.29.43-.81.43s-.93-.17-1.19-.37l-.36.6c.42.32.96.46,1.54.46,1.03,0,1.63-.48,1.63-1.16,0-.63-.47-.95-1.25-1.07l-.36-.05c-.34-.04-.6-.11-.6-.35,0-.26.25-.42.68-.42.45,0,.89.17,1.11.31l.33-.63Zm10.01-.37c-.45,0-.74.21-.94.52v-.43h-.77v3.56h.77v-2c0-.59.25-.92.76-.92.16,0,.32.02.49.09l.24-.73c-.17-.07-.39-.1-.55-.1h0Zm-6.62.09h-1.27v-1.08h-.78v1.08h-.72v.71h.72v1.62c0,.83.32,1.32,1.24,1.32.33,0,.72-.1.97-.28l-.22-.66c-.23.13-.49.2-.69.2-.39,0-.51-.24-.51-.6v-1.61h1.27v-.71Zm-11.59,3.56v-2.23c0-.84-.54-1.41-1.4-1.42-.46,0-.93.13-1.25.63-.25-.39-.63-.63-1.18-.63-.38,0-.75.11-1.04.53v-.44h-.78v3.56h.78v-1.98c0-.62.34-.95.87-.95s.78.34.78.94v1.98h.78v-1.98c0-.62.36-.95.87-.95s.78.34.78.94v1.98h.78Z"/>
      <path class="cls-1" d="m26.85,13.43c0,4.29-2,8.1-5.13,10.56-3.12-2.46-5.12-6.27-5.12-10.56s2-8.1,5.12-10.55c3.13,2.45,5.13,6.27,5.13,10.55Z"/>
      <path class="cls-2" d="m21.72,23.99c-2.28,1.8-5.16,2.87-8.29,2.87C6.01,26.86,0,20.85,0,13.43S6.01,0,13.43,0c3.13,0,6.01,1.08,8.29,2.88-3.12,2.45-5.12,6.27-5.12,10.55s2,8.1,5.12,10.56Z"/>
      <path class="cls-2" d="m43.45,13.43c0,7.42-6.01,13.43-13.43,13.43-3.13,0-6.01-1.07-8.3-2.87,3.13-2.46,5.13-6.27,5.13-10.56s-2-8.1-5.13-10.55c2.29-1.8,5.17-2.88,8.3-2.88,7.42,0,13.43,6.02,13.43,13.43Z"/>
    </g>
  </g>
</svg>