<?xml version="1.0" encoding="utf-8"?>
<!-- Generator: Adobe Illustrator 28.0.0, SVG Export Plug-In . SVG Version: 6.00 Build 0)  -->
<svg version="1.1" id="Layer_1" xmlns="http://www.w3.org/2000/svg" xmlns:xlink="http://www.w3.org/1999/xlink" x="0px" y="0px"
	 viewBox="0 0 332.4 174.4" style="enable-background:new 0 0 332.4 174.4;" xml:space="preserve">
<style type="text/css">
	.st0{fill:#FFFFFF;}
</style>
<path class="st0" d="M45.2,71.3c0,7.7-6.2,13.9-13.9,13.9S17.4,79,17.4,71.3s6.2-13.9,13.9-13.9S45.2,63.6,45.2,71.3"/>
<path class="st0" d="M242.3,40.1c0,18.8-15.2,34-34,34s-34-15.2-34-34s15.2-34,34-34C227.1,6.2,242.3,21.4,242.3,40.1"/>
<path class="st0" d="M322.8,51.3c0,11.3-9.1,20.4-20.4,20.4S282,62.6,282,51.3s9.1-20.4,20.4-20.4S322.8,40,322.8,51.3"/>
<path class="st0" d="M113,105.3c-13.6,0-24.7-11-24.7-24.7c0-13.6,11-24.7,24.7-24.7c13.6,0,24.7,11,24.7,24.7
	C137.6,94.3,126.6,105.3,113,105.3"/>
<path class="st0" d="M88.7,158.2c-8.2,0-14.8-6.6-14.8-14.7c0-8.1,6.6-14.7,14.8-14.7s14.8,6.6,14.8,14.7
	C103.5,151.7,96.9,158.2,88.7,158.2 M88.7,118.9c-13.7,0-24.7,11-24.7,24.7s11.1,24.7,24.7,24.7s24.7-11,24.7-24.7
	S102.4,118.9,88.7,118.9"/>
<path class="st0" d="M44.8,167.4v-31.1l-13.5,20.4H31l-13.3-20.3v30.9H7.4v-47.6h11.3l12.6,20.2l12.6-20.2h11.3v47.7H44.8z"/>
<path class="st0" d="M139.9,168c-7.2,0-14.6-2.5-20.3-7.6l6.2-7.4c4.3,3.5,8.8,5.8,14.3,5.8c4.3,0,6.9-1.7,6.9-4.5v-0.1
	c0-2.7-1.6-4-9.6-6.1c-9.6-2.5-15.9-5.1-15.9-14.6v-0.1c0-8.7,7-14.4,16.7-14.4c7,0,12.9,2.2,17.8,6.1l-5.5,7.9
	c-4.2-2.9-8.4-4.7-12.4-4.7s-6.2,1.8-6.2,4.2v0.1c0,3.1,2,4.2,10.3,6.3c9.7,2.5,15.2,6,15.2,14.3v0.1
	C157.5,162.7,150.3,168,139.9,168"/>
<path class="st0" d="M196.8,167.4v-19.1h-19.4v19.1h-10.5v-47.7h10.5v18.9h19.4v-18.9h10.5v47.7H196.8z"/>
<path class="st0" d="M239.6,129.3v38h-10.5v-38h-14.6v-9.6h39.6v9.7L239.6,129.3L239.6,129.3z"/>
<path class="st0" d="M313,167.4L302.3,151l-10.8,16.4h-12l16.7-24.3l-16-23.4h12.3l10,15.5l10.1-15.5h12l-16,23.3l16.7,24.4H313z"/>
<path class="st0" d="M261.7,119.7h10.5v47.7h-10.5V119.7z"/>
</svg>
