<?xml version="1.0" encoding="UTF-8"?>
<svg xmlns="http://www.w3.org/2000/svg" width="179" height="79" viewBox="0 0 179 79" fill="none">
  <path d="M33.9172 35.1058C33.7737 35.3939 32.3386 37.0267 31.7645 37.4109C31.1905 37.7951 27.8418 41.2529 27.6983 41.5891C27.5548 41.8772 27.4591 43.7021 27.4591 43.8942C27.4591 44.0383 28.4159 44.8067 28.8464 45.479C29.277 46.1033 29.1335 48.0723 29.0856 49.0328C29.0378 49.9933 27.6983 51.6742 27.4591 51.8663C27.2678 52.0103 27.1243 55.324 27.1243 55.6122C27.1243 55.9483 27.0764 56.1884 26.6937 56.8608C26.311 57.5331 26.1197 61.3751 25.5935 63.0559C25.0673 64.7368 24.4932 68.5307 23.967 69.8754C23.4408 71.2201 21.1446 76.3587 20.9054 76.6948C20.6662 76.983 19.0876 78.2796 18.6092 78.4237C18.1308 78.5678 16.9827 78.3757 16.4087 78.0395C15.8346 77.7514 14.9735 77.3191 14.83 76.935C14.6865 76.5508 13.9689 74.6778 13.7298 74.3416C13.5384 74.0055 13.06 72.997 12.8687 72.5647C12.7252 72.1325 12.6295 71.124 12.3903 70.2596C12.1989 69.4432 11.7206 68.0024 11.5771 67.6663C11.4335 67.2821 11.1944 66.2255 11.003 65.6973C10.8117 65.169 9.66355 58.8778 9.66355 58.1094C9.66355 57.341 8.94599 52.2024 8.99383 51.9143C9.04167 51.5781 8.99383 51.6261 8.41978 50.7617C7.84573 49.9453 7.89356 50.0894 7.75005 49.6091C7.60654 49.1289 7.75005 46.9678 7.79789 46.3915C7.84572 45.8152 8.22843 44.9508 8.41978 44.6626C8.61113 44.4225 8.80248 44.5185 8.89815 44.0863C8.99383 43.7021 8.85031 43.366 8.99383 42.7897C9.13734 42.2134 8.99383 42.1173 8.89815 41.8292C8.80248 41.493 8.13275 41.397 7.65437 41.2049C7.176 41.0128 6.4106 40.3885 5.98006 40.0523C5.54952 39.7161 4.30574 38.9957 3.97088 38.7556C3.58818 38.5155 2.53575 37.555 2.24872 37.1708C1.91386 36.7866 0.239544 34.8176 0.0960314 34.5775C-0.0474814 34.3374 0.287382 33.8571 0.71792 33.7131C1.14846 33.569 1.62683 34.0012 1.81819 34.1453C2.00954 34.2413 2.67926 34.3374 3.1098 34.3854C3.58818 34.4334 4.40142 34.9137 4.73628 35.1538C5.0233 35.3939 5.69303 35.6821 6.0279 35.8742C6.4106 36.0663 6.7933 36.4985 7.41519 36.9307C8.03708 37.3629 9.37653 37.9872 9.37653 37.9872C9.18518 36.7866 9.0895 28.5745 8.89815 23.2918C8.7068 17.9131 10.5246 1.87295 10.5246 1.87295C11.1944 0.288146 11.7684 1.92097 11.7684 2.20912C11.7684 2.49726 11.9598 5.37872 12.0554 6.43526C12.1033 7.49179 12.486 11.1416 12.486 12.1502C12.486 13.2067 12.4381 21.2267 12.3903 21.8511C12.3425 22.4754 12.6773 25.4049 12.9643 26.3653C13.2514 27.2778 13.8254 35.0578 13.8254 35.2018C13.8254 35.3459 14.3995 35.3459 14.7822 35.2018C15.1649 35.0578 16.5522 35.0578 17.1741 34.7216C17.7959 34.3854 19.4224 34.2894 19.9008 34.3854C20.3792 34.4815 22.0057 34.6255 22.0057 34.6255C22.0057 34.6255 22.1013 33.2808 22.1492 32.4164C22.197 31.6 22.3884 27.0857 22.6275 25.9331C22.8189 24.7805 22.9624 23.772 23.1059 23.1957C23.2494 22.6195 23.8713 15.0796 23.8713 14.5514C23.8713 14.0231 24.7324 2.49726 24.5889 1.92097C24.4932 1.34468 24.8759 1.15258 25.2108 1.05653C25.5456 0.960486 25.7848 1.24863 25.7848 1.68085C25.7848 2.11307 25.8805 3.64985 25.8805 4.27416C25.8805 4.89848 26.0719 8.8845 26.0719 9.70091C26.0719 10.5173 26.2154 21.755 26.2632 22.2353C26.311 22.7155 26.5502 27.71 26.3589 28.4784C26.2154 29.2948 26.0719 36.4985 26.0719 36.8346C26.0719 37.1228 26.5981 36.8827 27.1243 36.6426C27.6505 36.4024 30.3294 34.9137 30.8078 34.5295C31.2862 34.0973 33.0083 34.0492 33.2475 34.0492C33.4867 34.0492 33.7737 34.0973 33.8694 34.2413C33.9651 34.3854 34.0607 34.8176 33.9172 35.1058ZM49.9428 79C50.5169 79 52.6696 78.952 53.8177 78.904C54.2004 78.904 64.4376 78.7118 65.203 78.7118C66.3511 78.7118 71.7568 78.8079 72.9527 78.8079C74.4835 78.8079 79.8892 78.7599 81.2765 78.7599C83.764 78.7119 84.1946 78.7118 84.7686 78.7118H89.7916C90.557 78.7118 93.8577 78.7599 94.4318 78.7599C95.1972 78.7599 98.498 78.7118 99.2634 78.7118C100.794 78.7599 102.564 78.7599 104.286 78.8079C105.243 78.8559 106.391 78.8559 107.396 78.8559C109.501 78.8559 111.462 78.8559 113.567 78.8079C114.715 78.8079 118.59 78.7599 119.164 78.7599C121.269 78.7599 123.421 78.7599 125.335 78.7118C126.674 78.7118 127.822 78.7119 129.21 78.7599C130.932 78.8079 131.745 78.8079 132.128 78.8079H135.62C136.959 78.8079 142.748 78.8559 143.944 78.8559C145.475 78.8559 152.076 78.7118 153.416 78.7118H155.76C158.247 78.7599 160.783 78.8559 163.079 78.904C164.227 78.904 165.184 78.952 166.38 78.952C170.446 78.952 171.785 78.8559 172.359 78.7599C172.933 78.7119 175.66 78.4237 175.66 77.8474C175.66 77.6553 175.947 76.983 175.947 76.8389C175.947 76.6468 175.851 75.5422 175.851 75.3501C175.851 74.4377 171.594 74.2936 168.724 74.2936C167.001 74.2936 159.634 74.5337 158.295 74.5337H156.382C155.807 74.5337 153.463 74.5818 152.889 74.5818C151.933 74.5818 147.484 74.5337 146.718 74.5337C145.762 74.5337 141.695 74.6298 140.93 74.6298H138.634C138.06 74.6298 134.95 74.7258 134.376 74.7258C133.037 74.7258 131.649 74.6778 130.31 74.6778C129.927 74.6778 127.822 74.7258 127.392 74.7258C127.009 74.7258 124.665 74.6778 124.091 74.6778C121.795 74.6778 119.642 74.8219 117.346 74.8219C115.433 74.8219 113.471 74.7258 111.558 74.7258C110.984 74.7258 108.066 74.7739 107.491 74.7739C106.343 74.7739 101.32 74.6778 100.172 74.6778C99.4069 74.6778 95.5321 74.7258 94.7667 74.7258H88.4043C87.4475 74.7258 82.8073 74.6778 81.8505 74.6778C80.8938 74.6778 80.1284 74.7258 79.1238 74.7258C78.7411 74.7739 76.4449 74.8219 76.2057 74.8219C75.4403 74.8219 72.7135 74.7739 72.1395 74.7739C71.5654 74.7739 68.8387 74.8219 68.2646 74.8219C67.4992 74.8219 63.433 74.7739 62.4763 74.7739C62.0936 74.7739 59.7495 74.8219 59.3668 74.8219C58.7928 74.8219 56.8314 74.7739 56.4487 74.7739C56.066 74.7739 54.9179 74.8219 54.5352 74.8219C53.3871 74.8219 48.5555 74.6298 47.5988 74.6298C39.8491 74.6298 38.8923 75.4942 38.8923 75.9264C38.8923 76.2146 38.8445 76.5027 38.8445 76.7429C38.8445 77.079 38.701 77.4152 38.701 77.7514C38.701 78.8079 43.7239 79 44.298 79.048C44.4893 78.904 49.5123 79 49.9428 79ZM35.9264 49.5611C35.9264 49.8492 36.0221 50.1374 36.0221 50.4736C36.0699 50.7137 36.0699 50.9058 36.0699 51.0979C36.0699 52.0103 36.2134 52.8748 36.4526 53.7392C36.644 54.3155 36.8832 54.9398 36.9788 55.5161C37.1223 55.9963 37.1223 56.5246 37.3615 57.0529C37.6007 57.6292 38.0313 58.2535 38.3183 58.8298C38.4618 59.166 38.5096 59.5021 38.701 59.8383C38.8923 60.1745 39.1315 60.5106 39.3707 60.8468C39.6577 61.327 39.8969 61.8073 40.1361 62.2875C40.471 62.8158 40.9015 63.3441 41.4756 63.9204C41.7626 64.2085 42.1453 64.5927 42.4323 64.9289C42.6715 65.169 42.9107 65.4571 43.1499 65.6492C43.4369 65.9374 43.8196 66.1775 44.1066 66.4176C44.298 66.6097 44.5372 66.8498 44.7764 66.9939C45.0155 67.186 45.3026 67.3301 45.6374 67.5222C45.9245 67.7623 46.1637 68.0024 46.5464 68.1945C46.9769 68.4346 47.6466 68.7228 48.0293 68.9629C48.5555 69.2511 49.0339 69.4912 49.608 69.6833C50.2298 69.9234 51.2344 70.2115 51.8085 70.4517C54.2004 71.2681 57.9317 71.4122 58.6493 71.4122C59.0798 71.4122 59.9887 71.4122 60.5149 71.3641C60.802 71.3161 61.5195 71.2681 61.7109 71.2681C61.7587 71.2681 62.7155 71.3161 63.6722 71.3161C64.6768 71.3641 65.7771 71.4122 65.9684 71.4122C67.8819 71.4122 70.3695 71.3161 71.1827 70.6438C71.6133 70.3556 72.0438 69.7313 72.0438 69.0109C72.0438 68.7228 71.996 68.4827 71.9481 68.1945C71.9003 67.7623 71.9003 67.3781 71.8046 66.9459C71.8046 66.7058 71.5654 65.5532 71.5654 65.3131C71.5654 65.121 71.7089 64.3046 71.7089 64.1125C71.7089 63.9204 71.5654 63.296 71.5654 63.1039V62.5277C71.5176 62.3356 71.3741 62.1915 71.3262 61.9994C71.2784 61.7593 71.2306 61.5672 71.2306 61.327C71.2306 61.0389 71.4219 59.7422 71.4219 59.4061C71.4219 59.1179 71.4219 57.7252 71.4697 57.4371C71.4697 57.197 71.5176 56.7647 71.5176 56.6687C71.5176 55.9963 71.3262 55.372 71.2784 54.7477C71.2306 54.5556 71.2306 54.4115 71.2306 54.2195C71.2306 54.0274 71.2784 52.9708 71.2784 52.7787C71.2306 52.4426 70.9914 50.7617 70.9914 50.3775V47.9763C70.9435 47.0638 70.8479 44.2784 70.5608 43.7501C70.3695 43.51 69.8911 42.9337 69.2214 42.9337C68.9822 42.9337 67.8819 43.1258 67.6427 43.1258C67.4035 43.1258 67.1165 43.1258 66.7817 43.1739C66.5425 43.2219 65.5379 43.462 65.3465 43.462C64.8682 43.462 64.3898 43.366 63.9592 43.366C63.7201 43.366 62.859 43.462 62.7155 43.462C62.4284 43.462 62.0936 43.414 61.8066 43.414C61.4239 43.366 61.089 43.414 60.7063 43.366C60.4671 43.366 59.3668 43.1739 59.1276 43.1739C58.8885 43.1739 57.8839 43.1258 57.6447 43.1258C56.3052 43.1258 54.2482 44.1343 54.2482 45.9593C54.2482 46.2954 54.4396 47.8322 54.4396 48.1204C54.4396 48.3605 54.3917 49.417 54.4396 49.6571C54.4874 50.7137 55.205 51.1459 55.9225 51.1459H56.4009C56.7836 51.1459 57.1185 51.1939 57.5012 51.1939C57.7882 51.1939 59.1276 50.9058 59.4147 50.9058C59.606 50.9058 60.3714 51.0018 60.5628 51.0018C60.802 51.0018 61.7587 50.9538 61.9979 50.9058C62.1893 50.8577 62.3806 50.7617 62.5241 50.7617C62.9068 50.7617 63.7201 51.1939 63.7201 52.2024C63.7201 52.4906 63.433 53.8353 63.433 54.0754C63.433 54.4115 63.7201 55.9483 63.7201 56.2365C63.7201 56.6207 63.5287 58.1094 63.5287 58.3976C63.5287 58.6857 63.8157 60.1745 63.8157 60.4626C63.8157 60.5587 63.6722 61.231 63.6722 61.4231C63.6722 61.5672 63.8636 62.3356 63.8636 62.4316C63.8636 62.9119 63.5765 63.4401 63.3852 63.6802C62.9547 64.0644 61.663 64.1605 61.5195 64.1605C61.3282 64.1605 60.6584 64.0164 60.5628 64.0164C60.3714 64.0164 60.1801 64.0644 60.0366 64.0644C59.7974 64.1125 59.5582 64.1125 59.3668 64.1125C57.6925 64.1125 57.4055 64.0644 54.7266 63.2C52.6217 62.5277 51.9042 62.1915 50.3255 60.9909C49.9428 60.7508 49.608 60.4626 49.3688 60.1264C49.0817 59.8863 48.9382 59.5982 48.6512 59.31C48.412 59.0699 47.9815 58.7818 47.7423 58.4936C46.9769 57.5331 45.3026 54.2675 44.9677 53.0669C44.872 52.6346 44.298 49.7052 44.298 48.6486C44.298 42.5015 45.8766 39.524 50.3734 36.5465C51.5215 35.7781 51.9998 35.634 53.6263 35.2979C54.8701 35.0578 55.5398 34.9617 56.7836 34.9617C57.1663 34.9617 58.8406 34.9617 60.4193 35.2979C61.0411 35.3939 61.6152 35.586 62.2371 35.8742C62.859 36.1143 63.7201 36.6426 64.3419 36.8827C65.1073 37.2669 65.4901 37.4109 66.0641 37.4109C66.3511 37.4109 67.7384 37.4109 68.169 35.8742C68.2168 35.586 68.2646 35.2979 68.456 34.9137C68.6952 34.5775 69.0779 34.1453 69.3649 33.7131C69.6519 33.2328 69.8433 32.7046 69.8433 31.7441C69.8433 30.3033 67.8819 29.2468 67.4035 29.0547C66.8773 28.8626 66.3033 28.8626 65.7771 28.7666C65.3465 28.6225 64.916 28.4784 64.5333 28.3343C64.1506 28.2863 63.7679 28.2863 63.3852 28.1422C63.0025 28.0942 62.6676 27.9501 62.2849 27.9021C62.0457 27.8541 59.032 27.614 58.7928 27.614C58.6014 27.614 53.7698 27.9021 53.5785 27.9021C51.665 28.1422 51.0431 28.3343 50.4212 28.6225C50.3255 28.6225 48.3163 29.2948 48.2685 29.3429L47.5509 29.535C47.2161 29.7271 46.7855 30.0152 46.4028 30.2553C45.8766 30.4954 45.3982 30.6875 44.8242 31.0237C44.4415 31.2638 44.1066 31.648 43.7239 31.8401C43.4847 32.0322 43.2456 32.1283 42.9585 32.3204C42.7672 32.4644 41.1407 33.7611 40.9972 33.9532C40.758 34.2413 39.8491 35.49 39.6577 35.8261C39.4664 36.0182 39.3707 36.1623 39.2272 36.4024C38.988 36.6906 38.8445 37.0748 38.701 37.3629C38.6053 37.603 38.4618 37.8432 38.2704 38.0833C38.0313 38.6115 37.8399 39.0918 37.6007 39.6201C37.505 39.9082 37.2659 40.2924 37.1223 40.6286C37.0267 40.8687 36.1178 43.9903 36.0221 44.2304C35.9742 44.6626 36.0221 45.1429 35.9742 45.5271C35.9742 45.8152 35.7829 47.0638 35.7829 47.304V49.5611H35.9264ZM100.794 71.4122C101.273 71.4122 101.368 71.4122 101.56 71.3641C102.134 71.3161 102.612 70.9319 103.138 70.8359C103.473 70.7878 103.712 70.8359 103.999 70.7878C104.239 70.7398 104.573 70.5957 104.813 70.4517C105.387 70.2115 109.07 68.1945 109.357 67.9544C109.548 67.7623 109.74 67.5702 109.931 67.4742C110.218 67.234 110.601 67.138 110.936 66.9459C111.127 66.8498 112.323 65.6973 112.562 65.4571L113.136 64.7368C113.519 64.3046 113.997 63.9204 114.332 63.4401C114.524 63.152 114.858 62.6237 115.098 62.1435C115.289 61.8553 115.337 61.5672 115.528 61.327C115.672 60.9909 115.911 60.6547 116.007 60.3185C116.246 59.9824 116.868 58.2535 117.011 57.8693C117.203 57.5331 117.394 57.197 117.442 56.8608C117.681 56.1884 117.633 55.6122 117.824 54.9398C117.872 54.6517 118.064 54.2675 118.159 53.9313C118.207 53.7392 118.207 53.5471 118.207 53.403C118.207 52.7307 118.207 52.3465 118.255 51.8663C118.255 51.6261 118.398 50.3295 118.398 50.0894C118.398 49.6091 118.159 47.448 118.159 46.9678C118.159 46.7277 118.159 45.5751 118.111 45.335C118.111 45.0468 117.968 44.6626 117.92 44.3745C117.777 43.9422 117.49 42.0693 117.346 41.6851C117.155 41.3489 116.915 40.9647 116.724 40.6286C116.485 40.0523 116.054 38.9957 115.72 38.4195C115.48 38.0833 113.28 34.8176 111.988 33.7131C111.749 33.4249 110.314 32.2723 110.027 32.0322C108.974 31.0717 108.831 30.9757 108.305 30.5915C107.157 29.9191 106.009 29.631 104.86 29.1508C104.286 28.9587 103.808 28.7185 103.282 28.5745C102.66 28.3824 102.038 28.3343 101.416 28.2383C100.412 27.9982 100.316 27.9502 99.6939 27.9502C99.2156 27.9502 99.1199 27.9501 98.0675 27.9021C97.6848 27.9021 97.2064 27.8541 94.8623 27.8541C91.9443 27.8541 90.557 28.1903 88.3086 28.9106C85.7732 29.7271 85.6297 29.8711 82.9029 31.552C81.2765 32.6085 81.0851 32.7526 80.4632 33.521C80.2719 33.8091 80.0805 34.0492 79.8413 34.3374C79.5065 34.6736 79.0759 35.1058 78.7889 35.538C78.454 35.9702 78.3105 36.4505 77.9757 36.9307C77.7843 37.1708 76.9232 38.3234 76.7797 38.6115C75.5359 40.6286 74.053 45.431 74.053 49.6571C74.053 50.0894 74.1965 53.7872 74.2443 54.1714C74.3878 54.8438 74.627 55.4681 74.7227 56.0924C74.8662 56.6687 74.9141 57.245 75.1054 57.7733C75.2489 58.1094 75.3446 58.4936 75.4881 58.7818C75.823 59.7903 75.9665 60.7027 76.5405 61.7112C76.8754 62.2395 77.8322 63.8723 78.167 64.2085C78.5497 64.6888 80.7981 67.09 81.2286 67.4261C81.8027 67.9064 83.9075 69.107 84.5294 69.3951C84.9121 69.5872 88.5956 70.8359 88.6913 70.8839C89.2653 71.076 89.7916 71.124 90.3656 71.2681C91.3224 71.5082 91.418 71.5082 92.5661 71.6043C92.8532 71.6523 94.1926 71.8444 94.4796 71.8444C94.9102 71.8444 95.4364 71.7963 95.8669 71.7963C96.1061 71.7963 97.0629 71.8444 97.2542 71.8444C97.4456 71.8444 98.211 71.7963 98.3066 71.7963C98.8329 71.7483 99.2634 71.7963 99.7418 71.7483L100.794 71.4122ZM81.8027 52.5386C81.8027 52.2985 81.6113 51.0979 81.6113 50.9058C81.6113 50.2334 81.8027 49.6091 81.9462 48.9368V48.3125C81.9462 47.1599 81.9462 47.0158 81.994 46.6796C82.0419 46.1994 82.2811 45.6711 82.4246 45.1909C82.5681 44.5185 82.6159 43.8462 82.8551 43.0778C82.9986 42.6936 84.2902 40.3404 84.4337 40.1483C84.6251 39.8602 84.96 39.524 85.1992 39.2359C85.8689 38.3234 86.0124 38.2274 86.3473 37.9392C87.3997 37.1228 88.0216 36.5945 88.7391 36.2584C89.361 36.0182 89.8872 35.8742 90.5091 35.6821C91.2267 35.49 91.8964 35.0578 92.5661 34.9617C92.9967 34.8176 93.4751 34.8176 93.8577 34.8176H94.8145C95.1015 34.7696 96.2496 34.6736 96.4888 34.6736C97.2542 34.6736 98.8807 34.7216 99.6461 34.9137C100.555 35.1058 102.038 35.3939 102.469 35.586C102.803 35.7781 103.09 36.0663 103.521 36.2584C103.712 36.3064 103.951 36.4024 104.143 36.4985C104.43 36.6906 104.621 36.9307 104.813 37.1228C105.1 37.3149 105.434 37.459 105.721 37.603C105.865 37.7951 106.87 38.8997 107.157 39.2359C107.778 39.9082 108.927 41.3009 109.644 43.1739C109.788 43.7502 109.931 44.2304 110.075 44.7106C110.266 45.383 110.553 46.1514 110.697 46.8237C110.744 47.0638 110.744 47.3039 110.744 47.5921V49.2249C110.744 49.417 110.697 50.1374 110.697 50.2815C110.697 50.5216 110.744 51.5301 110.744 51.7702C110.697 53.1149 110.601 53.2109 110.41 53.8833C110.218 54.2675 109.644 56.1884 109.501 56.5726C109.357 56.8128 108.448 58.6377 108.209 59.0699C108.018 59.3581 107.635 59.6942 107.396 59.9343C107.061 60.2225 106.726 60.5106 106.343 60.7988C105.865 61.231 105.53 61.8073 105.052 62.1435C104.621 62.4316 104.143 62.5757 103.76 62.9119C103.425 63.104 103.09 63.3441 102.708 63.5362C101.942 63.9204 101.129 63.9204 100.364 64.1125C99.7896 64.2565 99.3112 64.4486 98.6894 64.5447C98.785 64.5447 95.3886 64.7368 95.0537 64.7368C93.3794 64.7368 91.9443 64.3046 91.7529 64.1605C91.131 63.9684 90.6048 63.7283 89.9829 63.4881C89.361 63.248 88.6913 63.1039 88.0694 62.7678C87.591 62.5277 86.2994 61.4711 86.0602 61.231C85.7254 60.9429 85.5818 60.5587 85.2948 60.2225C84.96 59.7903 84.5294 59.5021 84.1946 59.1179C83.2856 58.2055 83.1421 57.7733 82.9029 56.8128C82.8551 56.6207 82.2811 55.1799 82.2332 54.9878C81.9462 54.3155 81.8027 54.0754 81.8027 53.4511V52.5386ZM137.533 63.4401H138.347C138.634 63.4401 139.782 63.4881 140.021 63.4881C140.308 63.4881 141.504 63.3441 141.695 63.3441H142.939C144.613 63.6802 145.857 65.8413 145.857 67.4742C145.857 68.2906 145.857 70.9799 148.106 70.9799C148.536 70.9799 151.55 70.7398 152.124 70.7398C152.65 70.7398 152.842 70.9319 153.224 70.9319C153.368 70.9319 154.42 70.9799 154.564 70.9799C155.09 70.9799 155.616 70.5477 155.616 69.5392C155.616 68.2426 154.899 67.09 154.277 66.1295C153.942 65.5532 153.559 64.9289 153.272 64.3526C152.985 63.6802 152.794 63.0559 152.555 62.3836C152.22 61.6152 151.741 60.7508 151.502 59.9343C151.359 59.4061 151.215 58.8778 151.119 58.2535C151.072 58.0134 150.928 57.7733 150.785 57.5331C150.402 56.7647 150.402 56.6207 150.258 55.8523C149.971 54.6997 149.349 53.1629 149.11 52.8267C148.775 52.2505 148.44 51.6261 148.201 51.0498C147.962 50.4255 147.866 49.8492 147.675 49.2729C147.484 48.6006 147.149 47.9763 146.958 47.304C146.67 46.5356 146.575 45.6711 146.24 44.9027C146.001 43.9903 145.475 43.1739 145.188 42.2614C144.996 41.7812 144.948 41.3009 144.805 40.8207C144.613 40.1003 144.326 39.3319 143.992 38.5635C143.322 37.1228 142.269 35.6821 141.791 34.1933C141.648 33.7611 141.504 33.4249 141.408 33.0407C141.361 32.7526 140.834 31.6 140.739 31.3599C140.165 29.583 140.069 29.3909 139.303 28.9587C138.729 28.6705 138.395 28.6225 137.868 28.6225C137.486 28.6225 135.859 28.6705 135.572 28.6705C135.189 28.6705 133.276 28.6225 132.845 28.6225C132.176 28.6225 131.506 28.6705 130.788 29.583C130.262 30.2553 130.214 31.0237 129.975 31.7441C129.736 32.5125 128.349 35.9222 128.109 36.4985C127.918 37.2188 127.775 37.9392 127.583 38.5635C127.296 39.2839 127.009 39.9562 126.722 40.6286C126.005 42.3094 125.718 43.9903 125 45.6711C124.761 46.1514 124.474 46.6796 124.187 47.2079C123.9 47.7362 123.661 48.3605 123.469 48.8888C123.087 50.0894 122.8 51.1939 122.273 52.3465C121.938 53.1629 121.556 54.0274 121.221 54.8438C120.647 56.2845 120.36 57.7252 120.025 59.166C119.834 59.8863 119.69 60.6067 119.307 61.327C119.068 61.9994 118.494 62.6237 118.255 63.296C117.92 64.0644 117.777 64.7848 117.442 65.5532C117.107 66.3696 116.581 67.138 116.198 68.0024C115.911 68.4827 115.72 68.9149 115.72 69.3951C115.72 69.7313 115.959 70.8839 117.298 70.8839C117.777 70.8839 118.398 70.7398 118.925 70.6918C119.355 70.6918 119.881 70.7398 120.312 70.8359C121.46 70.9319 121.604 70.9319 121.891 70.9319C123.278 70.9319 123.804 70.9319 124.378 70.4036C124.522 70.2596 125 69.3951 125.335 68.0505C125.574 66.9939 125.813 66.2736 126.1 65.3131C126.339 64.3526 126.818 63.8243 127.535 63.7283C128.492 63.5842 128.923 63.3441 129.688 63.3441C130.406 63.3441 131.219 63.4881 131.936 63.5842C132.367 63.5842 132.798 63.6322 133.18 63.6322C133.898 63.6322 135.237 63.5842 135.716 63.5362L137.533 63.4401ZM134.663 56.4286C134.328 56.3805 134.089 56.4286 133.754 56.4286C133.419 56.4286 132.128 56.6207 131.889 56.6207H131.649C131.41 56.5726 131.171 56.4286 130.836 56.3325C130.501 56.2845 130.119 56.1884 129.879 56.0924C129.497 55.9003 129.305 55.4681 129.305 55.1319C129.305 54.6517 129.545 54.1714 129.879 53.6912C130.214 53.2109 130.262 53.1629 130.501 52.3945C130.741 51.8182 130.932 51.0979 131.267 50.5216C131.506 50.2334 131.649 49.8492 131.745 49.5611C132.128 48.6486 132.702 46.4875 133.132 45.5751C134.185 43.2699 134.424 41.9733 134.759 41.0128C134.759 40.9647 135.142 40.1964 135.142 40.1483C135.237 39.9562 135.285 39.7161 135.524 39.7161C135.907 39.7161 136.003 40.0523 136.146 40.4845C136.146 40.7726 136.385 41.0128 136.481 41.2529C136.481 41.445 136.481 41.6371 136.577 41.8292C136.672 42.5495 137.151 43.6541 137.486 44.3745C137.725 44.9027 137.868 45.5271 138.06 46.0553C138.442 47.448 139.256 49.369 139.399 49.7532C139.638 50.2815 139.878 50.8097 140.069 51.386C140.308 52.0584 140.452 52.2505 140.786 52.8267C141.121 53.355 141.6 54.6997 141.6 55.276C141.6 56.1884 140.165 56.4766 139.686 56.4766C139.351 56.4766 139.064 56.4286 138.634 56.4286C138.49 56.4286 137.438 56.6207 137.246 56.6207C137.103 56.6207 136.194 56.5246 136.051 56.5246H134.663V56.4286ZM164.944 29.0547C164.753 29.0547 163.749 29.0067 163.509 29.0067H162.457C162.266 28.9587 161.261 28.8146 161.07 28.8146C160.735 28.8146 159.204 28.8626 158.869 28.9106C158.152 28.9587 157.482 29.1027 156.812 29.1027C156.764 29.1027 155.138 28.9106 154.946 28.8626C154.133 28.7185 153.081 28.7185 152.842 28.7185C152.555 28.7185 151.311 28.8626 151.072 28.8626C150.067 28.8626 149.732 28.8626 149.349 29.3429C149.11 29.679 148.967 30.7356 148.967 30.9757C148.967 31.0237 149.015 31.4559 149.015 31.504C149.015 31.696 148.871 32.2723 148.871 32.4164C148.871 32.5605 148.919 33.0888 148.919 33.1848C148.919 33.617 148.871 34.0012 148.871 34.3854C148.871 34.9137 149.254 36.1623 150.641 36.1623H151.693C152.267 36.1623 152.889 36.3064 153.416 36.3064C153.703 36.3064 154.803 36.1143 154.994 36.1143C155.186 36.1143 156.19 36.2103 156.429 36.2103C157.769 36.2103 158.869 36.2103 159.3 36.6906C159.443 36.8827 159.634 37.507 159.634 37.8432C159.634 37.8912 159.587 38.3234 159.587 38.3714C159.587 38.6115 159.778 39.6681 159.778 39.8602C159.778 40.0523 159.73 40.8687 159.73 41.0128C159.73 41.3489 159.921 42.9337 159.921 43.2219C159.921 43.6541 159.634 45.383 159.634 45.7191C159.634 46.4395 159.778 47.1599 159.778 47.8802C159.778 48.2164 159.587 49.6571 159.587 49.9453C159.587 50.1374 159.634 50.9538 159.634 51.0979C159.634 51.29 159.587 51.9143 159.587 52.0584C159.634 52.2505 159.73 52.8748 159.73 53.0188C159.73 53.4991 159.587 53.9793 159.587 54.5076C159.587 54.6036 159.634 55.324 159.634 55.5161V56.1884C159.634 56.3805 159.778 57.197 159.778 57.341C159.778 57.8213 159.634 58.3015 159.634 58.7818V61.4231C159.634 61.5191 159.682 61.9514 159.682 61.9994C159.682 62.2395 159.539 63.152 159.539 63.296V64.3046C159.491 64.4967 159.347 65.4571 159.347 65.6973C159.347 65.9374 159.491 67.09 159.491 67.2821C159.491 67.5222 159.3 68.4346 159.3 68.6748C159.3 68.8188 159.443 70.1155 159.587 70.3076C159.921 71.028 160.448 71.2201 161.691 71.2201C162.074 71.2201 163.94 71.028 164.323 71.028C164.657 71.028 165.758 71.124 166.045 71.124C167.815 71.124 168.15 69.5872 168.15 67.9064C168.15 67.234 167.863 64.7368 167.815 64.0644C167.671 63.3921 167.671 63.3441 167.671 63.152C167.671 62.8638 167.815 61.7112 167.815 61.4711C167.815 61.183 167.671 59.8383 167.671 59.5502C167.671 59.214 167.719 57.6292 167.719 57.341C167.719 57.0529 167.671 55.6122 167.671 55.324C167.671 54.9878 167.815 53.2109 167.815 52.8748C167.815 52.1064 167.767 51.2419 167.767 50.4736C167.767 50.0413 167.91 48.1204 167.91 47.7362C167.91 47.448 167.91 47.1599 167.863 46.7757C167.815 46.2954 167.719 46.1033 167.719 46.0073C167.719 45.7672 167.863 44.8547 167.863 44.6146C167.863 44.4225 167.815 43.6541 167.815 43.462C167.815 43.2699 167.815 43.0298 167.863 42.8857C167.91 42.6936 168.006 42.3094 168.006 42.2134V41.493C168.006 41.3489 168.054 40.7246 168.054 40.5805C168.054 40.3404 167.91 39.3319 167.91 39.0918C167.91 37.8432 168.197 37.3149 168.437 37.0267C168.628 36.7386 169.154 36.2584 169.776 36.2584C169.967 36.2584 171.403 36.4505 171.594 36.4505C171.881 36.4505 172.838 36.3544 173.125 36.3544C173.412 36.3544 174.655 36.4505 174.847 36.4505C175.182 36.4505 176.569 36.2103 176.856 36.2103C178.195 36.2103 178.77 35.9702 178.77 33.1848C178.77 32.9447 178.722 31.648 178.722 31.4079C178.722 31.2158 178.77 30.4954 178.77 30.3994C178.77 29.1988 177.908 28.7666 175.804 28.7666C175.277 28.7666 173.029 29.0067 172.551 29.0067C171.642 29.0067 170.637 28.7666 169.728 28.7666C168.867 28.7666 165.088 29.0547 164.944 29.0547ZM57.7882 28.1422C57.7404 27.614 57.6447 27.0857 57.549 26.5574C57.5012 26.3173 57.5012 26.0772 57.5012 25.8851C57.5012 25.741 57.549 25.1647 57.549 25.0207C57.549 24.8286 57.5012 24.0122 57.5012 23.8681C57.5012 23.4839 57.5968 22.4274 57.6447 22.0432C57.6925 21.8991 57.6925 21.8511 57.6925 21.707C57.6925 21.659 57.6447 21.5149 57.5968 21.2267C57.549 21.0347 57.549 20.8426 57.549 20.3623C57.549 20.1702 57.5968 19.4018 57.5968 19.2097C57.5968 19.1137 57.549 19.0176 57.549 18.9216C57.5012 18.7295 57.4533 18.5374 57.4055 18.2973C57.3577 18.0571 57.3577 17.865 57.3577 17.6729C57.3577 17.2888 57.3577 17.0967 57.4055 16.9526C57.4533 16.6644 57.549 16.3763 57.549 16.0881V15.848C57.549 15.4638 57.5012 15.0316 57.5012 14.6474C57.5012 14.4553 57.5968 13.4948 57.5968 13.3027C57.5968 13.1587 57.549 12.4863 57.549 12.3903C57.549 11.2857 57.549 11.1897 57.6925 10.6134C57.7404 10.3733 58.0274 9.22067 58.0274 8.98055C58.0274 8.26018 58.0274 7.63587 57.2141 7.63587C56.975 7.63587 56.0182 7.73191 55.8268 7.73191C55.6355 7.73191 55.4441 7.68389 55.2528 7.68389C55.0614 7.63587 54.8701 7.63587 54.6787 7.63587C54.296 7.63587 53.6742 7.77994 53.5785 7.82796C53.2915 8.02006 53.0523 8.30821 52.7174 9.12462C52.4304 9.84498 52.239 10.2772 51.7128 10.9015C51.5693 11.0456 51.1388 11.814 51.0431 11.9581C50.8996 12.1021 50.3734 12.6784 50.2298 12.7745C50.1342 12.9666 50.0863 13.1106 49.9907 13.2547C49.8471 13.5429 49.608 13.831 49.4166 14.0711C49.2253 14.3593 49.1296 14.5994 48.9861 14.8875C48.8904 15.0316 48.4599 15.752 48.2207 15.752C48.0293 15.752 47.9336 15.5119 47.838 15.3678C47.6945 14.8875 47.3118 14.3112 46.9769 13.831C46.8334 13.6389 46.6899 13.5429 46.5942 13.3508C46.5464 13.2547 46.4985 13.2067 46.4507 13.1106C46.4028 12.9666 46.3072 12.8225 46.2115 12.7264C45.9723 12.4383 45.7331 12.1502 45.5418 11.862C45.4461 11.6699 45.3504 11.4298 45.1591 11.2377C45.0634 11.0936 44.4893 10.5173 44.3937 10.3733C44.1545 10.0851 44.011 9.84498 43.8674 9.55684C43.6283 9.17264 43.5804 8.6924 43.1977 8.26018C42.6715 7.53982 42.241 7.53982 41.3321 7.53982C41.1885 7.53982 40.7102 7.58784 40.5667 7.58784C40.6145 7.58784 40.3275 7.53982 40.2796 7.53982C40.0883 7.49179 39.6099 7.49179 39.3707 7.49179C38.3661 7.49179 38.3661 8.26018 38.3661 8.64438C38.3661 8.78845 38.3661 8.8845 38.414 9.02857C38.4618 9.31672 38.5575 9.60486 38.6053 9.89301C38.6531 10.0371 38.6531 10.1812 38.6531 10.3733C38.701 10.6134 38.7967 10.8535 38.7967 11.0936C38.8445 11.1416 38.8445 11.2377 38.8445 11.2857C38.8445 11.3818 38.7967 11.91 38.7967 12.0541C38.7967 12.1502 38.8445 12.5824 38.8445 12.6784C38.8445 12.9666 38.701 14.8875 38.701 15.3198C38.701 15.704 38.7488 16.1362 38.7488 16.5684C38.7488 16.8085 38.6053 17.9131 38.6053 18.1532C38.6053 18.2973 38.6531 19.0176 38.701 19.2097C38.7488 19.738 38.701 20.2663 38.7488 20.7945C38.7488 20.9866 38.8923 22.0912 38.8923 22.2833C38.8923 22.3793 38.7967 22.9076 38.7488 23.1477C38.701 23.3398 38.701 23.5319 38.701 23.724C38.701 23.9161 38.8445 24.9726 38.8445 25.2128C38.8445 25.3568 38.7967 25.9812 38.7967 26.0772V26.3653C38.7967 26.7015 38.6531 27.0857 38.5575 27.4219C38.5096 27.614 38.4618 27.8061 38.4618 27.9982C38.4618 28.1422 38.5096 29.2468 39.5621 29.2468C39.8012 29.2468 40.0883 29.1988 40.3275 29.1988C40.5188 29.1988 40.7102 29.1508 40.8058 29.1508C40.9494 29.1508 41.6669 29.1988 41.8104 29.1988C42.528 29.1988 43.102 29.1508 43.102 27.9021C43.102 27.5179 43.0542 27.2778 43.0064 27.1818C42.9585 27.0377 42.9107 26.8936 42.9107 26.7976C42.8629 26.6055 42.8629 26.4614 42.8629 26.3173C42.815 26.2213 42.7193 25.741 42.7193 25.693C42.7193 25.5489 42.9107 24.6365 42.9107 24.4444C42.9107 24.3003 42.815 23.772 42.815 23.628C42.815 23.5319 42.8629 22.9556 42.8629 22.8116V22.0432C42.8629 21.8991 43.0064 21.3708 43.0064 21.2748C43.0064 21.2267 42.9107 20.8906 42.8629 20.7945C42.815 20.6985 42.815 20.5544 42.815 20.4103C42.815 20.3143 42.8629 19.786 42.8629 19.6419C42.8629 19.5459 42.815 19.1137 42.815 19.0176C42.815 18.8736 42.8629 18.2492 42.8629 18.0571C42.8629 17.9131 42.815 17.4328 42.815 17.2888C42.815 17.0967 42.8629 16.9046 42.8629 16.7605C42.8629 16.6644 42.815 16.2322 42.7672 16.1842V15.752C42.7672 15.4638 43.0064 15.3198 43.1499 15.3198C43.4369 15.3198 44.1545 16.2802 44.298 16.5204C44.9199 17.4809 44.9677 17.5769 45.4939 18.0571C45.7809 18.3453 46.1158 18.7775 46.2115 18.9216C46.2593 19.0176 46.5942 19.5939 46.6899 19.69C46.7855 19.834 47.0726 20.2182 47.9336 20.2182C48.0772 20.2182 48.8904 20.1222 49.1296 19.9781C49.5123 19.786 49.9428 19.2577 50.1342 18.8736C50.182 18.6815 50.2298 18.5374 50.3255 18.3453C50.469 18.0571 50.8039 17.817 51.0431 17.5289C51.1866 17.3368 51.2823 17.1447 51.4258 16.9526C51.4736 16.9046 52.3347 15.896 52.3825 15.896C52.5261 15.7039 52.5739 15.5119 52.7174 15.3678C52.8131 15.2237 52.9088 15.1757 53.0044 15.1757C53.1001 15.1757 53.3393 15.2717 53.3393 15.6559V17.2888C53.3393 17.5289 53.3871 18.6334 53.3871 18.8736V19.3058C53.3393 19.786 53.1958 20.2663 53.1479 20.7465V20.8906C53.1479 21.1787 53.2915 22.3313 53.2915 22.5714V23.1477C53.2915 23.2918 53.435 24.0602 53.435 24.1562C53.435 24.3003 53.3871 24.8766 53.3871 25.0207C53.3871 25.3088 53.3871 25.5009 53.3393 25.741C53.2915 25.9812 53.1958 26.2693 53.1958 26.5574C53.1479 26.7015 53.1479 27.4699 53.1001 27.566V28.0462C53.1001 28.6705 53.2436 28.9587 53.5785 29.1508C53.9612 29.4389 54.296 29.4389 54.4396 29.4389C54.8223 29.4389 55.2528 29.3429 55.6833 29.3429C55.8269 29.3429 56.4966 29.4389 56.6879 29.4389C57.5968 29.4389 57.6447 28.7185 57.6447 28.3343V28.1422H57.7882ZM73.5746 29.7271C73.8138 29.7271 73.8616 29.7271 73.9573 29.679C74.2443 29.631 74.4835 29.4869 74.7227 29.3909C74.8662 29.3429 75.0097 29.3909 75.1533 29.3429C75.2968 29.2948 75.4403 29.2468 75.5359 29.1508C75.823 29.0067 77.6408 27.9982 77.7843 27.8541C77.88 27.7581 77.9757 27.662 78.0713 27.614C78.2149 27.4699 78.4062 27.4219 78.5497 27.3258C78.6454 27.2778 79.2194 26.7015 79.363 26.5574L79.65 26.1733C79.8413 25.9812 80.0805 25.741 80.224 25.5009C80.3197 25.3568 80.4632 25.0687 80.6067 24.8286C80.7024 24.6845 80.7502 24.5404 80.7981 24.3964C80.8459 24.2043 80.9894 24.0602 81.0373 23.8681C81.1808 23.676 81.4678 22.8115 81.5156 22.6195C81.6113 22.4274 81.707 22.2833 81.7548 22.0912C81.8983 21.755 81.8505 21.4669 81.9462 21.1307C81.994 20.9866 82.0897 20.7945 82.0897 20.6024C82.1375 20.5064 82.1375 20.4103 82.1375 20.3143C82.1375 19.9781 82.1375 19.738 82.1854 19.4979C82.1854 19.3538 82.2332 18.6815 82.2332 18.5854C82.2332 18.3453 82.0897 17.2407 82.0897 17.0006C82.0897 16.8565 82.0897 16.2802 82.0419 16.1842C82.0419 16.0401 81.994 15.848 81.9462 15.704C81.8984 15.5119 81.7548 14.5033 81.6592 14.3112C81.5635 14.1191 81.42 13.9271 81.3721 13.783C81.2286 13.4948 81.0373 12.9666 80.8938 12.6304C80.7503 12.4383 79.6978 10.8055 79.0281 10.2292C78.8846 10.0851 78.2149 9.50881 78.0713 9.36474C77.5451 8.8845 77.4973 8.83647 77.2103 8.64438C76.6362 8.30821 76.0622 8.16413 75.5359 7.92401C75.2489 7.82796 75.0097 7.73191 74.7705 7.63587C74.4835 7.53982 74.1487 7.49179 73.8616 7.44377C73.3833 7.2997 73.2876 7.2997 73.0006 7.2997C72.7614 7.2997 72.7135 7.2997 72.1873 7.25167C71.996 7.25167 71.7568 7.20365 70.6087 7.20365C69.1735 7.20365 68.5038 7.39574 67.4035 7.73191C66.1598 8.16413 66.0641 8.21216 64.7246 9.0766C63.9114 9.60486 63.8157 9.70091 63.5287 10.0851C63.433 10.2292 63.3374 10.3733 63.2417 10.5173C63.0982 10.7094 62.859 10.9015 62.7155 11.1416C62.572 11.3818 62.4763 11.6219 62.3328 11.862C62.2371 12.0061 61.8066 12.5824 61.7587 12.7264C61.1368 13.783 60.4193 16.2322 60.4193 18.3933C60.4193 18.5854 60.4671 20.5064 60.5149 20.6985C60.5628 21.0346 60.7063 21.3708 60.7541 21.659C60.802 21.9471 60.8498 22.2353 60.9455 22.5234C60.9933 22.7155 61.089 22.9076 61.1368 23.0517C61.2803 23.5799 61.376 24.0122 61.663 24.5404C61.8066 24.8286 62.2849 25.645 62.4763 25.8371C62.6676 26.0772 63.7679 27.3258 63.9592 27.4699C64.2463 27.71 65.2987 28.3343 65.5857 28.4784C65.7771 28.5745 67.5949 29.1988 67.6427 29.2468C67.9298 29.3429 68.2168 29.3909 68.456 29.4389C68.9344 29.583 68.9822 29.583 69.5084 29.631C69.6519 29.679 70.3216 29.7751 70.4652 29.7751C70.6565 29.7751 70.9435 29.7271 71.1349 29.7271C71.2784 29.7271 71.7089 29.7751 71.8046 29.7751C71.9003 29.7751 72.283 29.7271 72.3308 29.7271C72.57 29.679 72.8092 29.7271 73.0484 29.679L73.5746 29.7271ZM64.8682 19.9781C64.8682 19.834 64.7725 19.2578 64.7725 19.1617C64.7725 18.8255 64.8682 18.5374 64.916 18.2012V17.9131C64.916 17.3368 64.916 17.2888 64.9638 17.0967C65.0117 16.8565 65.1073 16.6164 65.1552 16.3763C65.203 16.0401 65.2509 15.704 65.3465 15.3198C65.3944 15.1277 65.9684 13.9751 66.0641 13.879C66.1598 13.735 66.3033 13.5909 66.399 13.3988C66.7338 12.9185 66.7817 12.9185 66.9252 12.7745C67.4035 12.3903 67.6427 12.1021 67.9776 11.9581C68.2646 11.862 68.5038 11.766 68.7908 11.6699C69.0779 11.5739 69.4127 11.3818 69.6998 11.2857C69.8911 11.2377 70.0825 11.2377 70.2738 11.2377H70.7044C70.8479 11.1897 71.3741 11.1897 71.4219 11.1897C71.7568 11.1897 72.5222 11.2377 72.857 11.2857C73.2397 11.3818 73.9095 11.5258 74.1008 11.6219C74.2443 11.7179 74.3878 11.862 74.5792 11.9581C74.6749 12.0061 74.7705 12.0061 74.8662 12.1021C74.9619 12.1982 75.1054 12.2942 75.1533 12.3903C75.2968 12.4863 75.4403 12.5343 75.5359 12.6304C75.5838 12.7264 76.0622 13.2547 76.2057 13.4468C76.4927 13.783 77.0189 14.4553 77.3059 15.3678C77.3538 15.6559 77.4495 15.896 77.4973 16.1362C77.593 16.4723 77.6886 16.8565 77.7843 17.1927C77.8322 17.2888 77.8322 17.4328 77.8322 17.5769V18.3933C77.8322 18.4894 77.7843 18.8255 77.7843 18.9216C77.7843 19.0657 77.8322 19.5459 77.8322 19.6419C77.7843 20.3143 77.7843 20.3623 77.6886 20.6985C77.593 20.8906 77.3538 21.8511 77.3059 21.9951C77.2581 22.1392 76.8276 23.0036 76.7319 23.1957C76.6362 23.3398 76.4927 23.4839 76.3492 23.628C76.2057 23.772 76.0622 23.9161 75.8708 24.0602C75.6316 24.2523 75.4881 24.5404 75.2968 24.7325C75.1054 24.8766 74.9141 24.9246 74.7227 25.1167C74.5792 25.2128 74.4357 25.3088 74.2443 25.4049C73.9095 25.597 73.5268 25.597 73.1919 25.693C72.9527 25.741 72.7135 25.8371 72.4743 25.9331C72.5222 25.9331 70.9914 26.0292 70.8479 26.0292C70.1303 26.0292 69.4606 25.7891 69.3649 25.741C69.0779 25.645 68.8387 25.5489 68.5517 25.4049C68.2646 25.2608 67.9776 25.2128 67.6906 25.0207C67.4992 24.8766 66.8773 24.3964 66.8295 24.2523C66.686 24.1082 66.5903 23.9161 66.4946 23.772C66.3511 23.5799 66.1598 23.3878 66.0163 23.2438C65.6336 22.7635 65.5379 22.5714 65.4422 22.1392C65.3944 22.0432 65.1552 21.3228 65.1552 21.2267C65.0117 20.8906 64.9638 20.7465 64.9638 20.4584V19.9781H64.8682ZM84.1467 8.83647V8.8845C84.1467 9.60486 84.3381 10.3733 84.4337 11.0936C84.4816 11.2857 84.4816 11.4778 84.4816 11.6219C84.4816 11.766 84.4337 12.4383 84.4337 12.5824V13.3988C84.4337 13.5909 84.3859 14.3112 84.3859 14.4553V15.9441C84.3859 15.9921 84.3381 16.8085 84.3381 16.9046C84.3859 17.3368 84.4816 17.769 84.4816 18.2492C84.4816 18.3933 84.4337 19.0657 84.4337 19.2097C84.4337 19.3058 84.4816 19.738 84.4816 19.834C84.4816 20.1222 84.3381 21.3708 84.3381 21.659C84.3381 21.8511 84.3859 22.0912 84.3859 22.2833C84.4337 23.0036 84.4816 23.2438 84.4816 23.4839C84.4816 23.628 84.4337 24.3003 84.4816 24.3964C84.4816 24.6845 84.6251 25.597 84.8164 26.1733C85.0556 26.7015 85.7254 27.8061 86.0602 28.1422C86.5864 28.6225 88.1172 29.2468 88.4999 29.3429C89.4567 29.583 90.0307 29.7271 90.5091 29.7271H92.1356C94.1926 29.7271 95.5321 28.9106 95.9148 28.6705C96.1061 28.5264 96.3453 28.3824 96.5367 28.2383C97.2064 27.8541 97.4934 27.3258 97.9718 26.3173C98.498 25.3088 98.6894 23.0517 98.6894 22.0432C98.6894 21.8511 98.6415 20.8906 98.6415 20.7465C98.6415 20.5064 98.6894 19.4498 98.6894 19.2097C98.6415 18.9216 98.5937 17.769 98.5937 17.5289C98.5937 17.3368 98.7372 16.4243 98.7372 16.2322C98.7372 16.0881 98.6894 15.4158 98.6894 15.3198C98.6894 15.1757 98.7372 14.5033 98.7372 14.3593C98.6893 14.0711 98.6415 13.783 98.6415 13.5429C98.6415 13.3988 98.6415 13.3508 98.785 12.7745C98.8329 12.4863 98.8329 12.2462 98.8329 12.1021C98.8329 11.7179 98.785 11.3337 98.785 10.9495C98.785 10.6614 98.9764 9.36474 98.9764 9.12462C98.9764 9.0766 98.9764 8.16413 98.6894 7.92401C98.5937 7.82796 98.3545 7.68389 98.0675 7.68389C97.924 7.68389 97.1107 7.82796 96.9672 7.82796H96.9194C96.6802 7.82796 95.7713 7.68389 95.5321 7.68389C94.671 7.68389 94.2883 8.30821 94.2883 9.41277C94.2883 10.1331 94.3361 10.2772 94.3361 10.3733C94.384 10.6614 94.4796 10.9495 94.4796 11.2377C94.5275 11.2857 94.5275 12.3903 94.5275 12.4863C94.5275 12.8705 94.384 14.7915 94.384 14.9836C94.384 15.1277 94.384 15.2717 94.4318 15.4158C94.4796 15.6079 94.5275 15.8 94.5275 15.896V16.5204C94.5275 16.7125 94.4796 17.5289 94.4796 17.6729C94.4796 18.0091 94.5275 18.3453 94.5275 18.6815C94.5753 18.8255 94.6232 19.5939 94.6232 19.69C94.6232 20.1222 94.5753 20.5544 94.5753 20.9386C94.5753 21.2267 94.7188 22.4274 94.7188 22.6675C94.7188 22.8596 94.6232 23.628 94.6232 23.8201C94.6232 24.3964 94.5753 24.4444 94.2883 24.9726C93.9534 25.5009 93.8578 25.693 93.0924 25.9331C92.5661 26.1252 92.3748 26.1733 91.6572 26.1733C91.2267 26.1733 91.131 26.1252 90.3178 25.8851C89.7916 25.741 89.3132 25.597 89.0262 24.8286C88.8348 24.3003 88.8348 24.3003 88.787 23.1477C88.7391 22.9076 88.7391 22.6675 88.7391 22.4274C88.7391 22.2353 88.8826 21.3228 88.8826 21.1307V20.4584C88.9305 20.0742 89.0262 19.69 89.0262 19.3058C89.0262 19.1617 88.9305 18.4413 88.9305 18.3453C88.9305 18.0571 88.9783 17.817 88.9783 17.5769C88.9783 17.3368 88.9305 16.4243 88.9305 16.2802C88.9305 15.848 88.9783 15.4158 88.9783 14.9836C88.9783 14.7915 88.8826 13.783 88.8826 13.5909C88.8826 13.3508 88.9305 12.5343 88.9305 12.3422C88.9305 12.1502 88.8826 11.3818 88.8826 11.1897C88.8826 10.9015 88.9305 10.8055 89.074 10.0851C89.1697 9.79696 89.2175 9.46079 89.2175 9.17264C89.2175 8.6924 88.9783 7.68389 88.2129 7.68389C87.9737 7.68389 87.0648 7.77994 86.8735 7.77994C86.6343 7.77994 85.6297 7.58784 85.4383 7.58784C84.5294 7.63587 84.1467 8.11611 84.1467 8.83647ZM102.325 17.3848C102.325 17.5769 102.421 18.6334 102.421 18.8255C102.421 19.2097 102.373 19.5459 102.373 19.8821C102.373 20.0261 102.421 20.6505 102.421 20.7945C102.421 20.8426 102.373 21.2748 102.373 21.3228C102.373 21.4669 102.421 21.8991 102.421 21.9951C102.421 22.1392 102.421 22.1392 102.373 22.5234C102.325 22.8116 102.325 22.9556 102.325 23.1477C102.325 23.3398 102.373 24.1082 102.373 24.2523V24.8766C102.373 25.1647 102.421 25.4529 102.421 25.741C102.421 25.8851 102.373 26.1733 102.277 26.6535C102.229 27.0377 102.182 27.3739 102.182 27.7581C102.182 28.1422 102.229 28.7185 102.708 29.1027C102.851 29.2468 102.995 29.3909 103.808 29.3909C103.951 29.3909 104.765 29.2948 104.956 29.2948C105.1 29.2948 105.674 29.3429 105.769 29.3429C106.391 29.3429 106.63 28.8626 106.63 28.2863C106.63 28.1903 106.63 28.0942 106.583 27.9982C106.535 27.8061 106.487 27.614 106.487 27.3739C106.439 27.2298 106.439 27.0857 106.439 26.8936C106.439 26.7976 106.343 26.3653 106.343 26.2693V25.9812C106.343 25.7891 106.296 25.645 106.296 25.5009C106.296 25.3568 106.343 24.8766 106.343 24.7805V24.3003C106.343 24.1562 106.439 23.5319 106.439 23.4359C106.439 23.1957 106.296 22.1872 106.296 22.0432C106.248 21.9951 106.248 21.8991 106.248 21.8991C106.248 21.707 106.296 21.4669 106.296 21.2748C106.343 21.0827 106.391 20.7465 106.391 20.6505C106.391 20.5064 106.248 19.738 106.248 19.5939C106.248 19.4498 106.296 18.8255 106.296 18.6815C106.296 18.4894 106.248 17.2888 106.2 17.1447C106.2 17.0486 106.152 17.0006 106.152 16.9046C106.152 16.7125 106.248 16.5684 106.343 16.5684C106.439 16.5684 106.535 16.6644 106.63 16.7605C106.774 16.9046 106.87 17.0486 106.965 17.1927C107.157 17.4328 107.348 17.6729 107.539 17.9131C107.683 18.1052 108.018 18.6334 108.209 19.1137C108.496 19.786 108.544 19.9781 109.309 20.9866C109.644 21.5149 109.692 21.6109 110.17 22.5234C110.457 23.1477 110.84 23.724 111.079 24.0602C111.462 24.5404 111.462 24.5884 111.797 25.1167C111.94 25.3568 112.084 25.597 112.18 25.7891C112.323 26.0772 112.61 26.6055 112.706 26.8456C112.801 27.0857 112.849 27.3258 112.945 27.566C112.993 27.662 113.471 28.5264 113.519 28.5745C113.519 28.6225 113.95 29.1988 114.141 29.2948C114.38 29.4869 114.715 29.4869 115.145 29.4869C115.337 29.4869 116.15 29.4389 116.294 29.4389C116.437 29.4389 116.915 29.4869 117.011 29.4869C117.968 29.4869 117.968 28.4304 117.968 28.1422C117.968 27.9982 117.92 27.8541 117.92 27.7581C117.872 27.3739 117.729 27.0377 117.681 26.6535C117.633 26.5094 117.633 25.645 117.633 25.5489C117.633 25.1647 117.681 24.8286 117.681 24.4924C117.681 24.2523 117.585 23.2438 117.585 23.0517C117.585 22.7635 117.681 21.3228 117.681 21.0346C117.681 20.7465 117.681 20.0261 117.633 19.738C117.633 19.5939 117.585 18.9696 117.585 18.8255C117.585 18.2973 117.681 17.769 117.729 17.2407C117.729 17.0006 117.777 15.7039 117.777 15.4158C117.777 15.2237 117.681 14.2152 117.633 13.9751L117.537 13.4468V13.1587C117.537 13.0146 117.585 12.0541 117.633 11.3337C117.729 10.6134 117.729 9.84498 117.729 9.74894C117.729 9.65289 117.681 9.26869 117.681 9.22067C117.681 9.0766 117.681 8.93252 117.633 8.74043C117.585 8.45228 117.25 8.06808 117.011 7.87599C116.82 7.73191 116.581 7.73191 116.294 7.73191C116.054 7.73191 115.002 7.87599 114.811 7.87599C114.38 7.87599 113.997 7.87599 113.663 8.35623C113.423 8.6924 113.423 9.0766 113.423 9.22067C113.423 9.65289 113.567 10.0851 113.663 10.4693C113.71 10.7574 113.71 10.9495 113.71 11.1897C113.71 11.3337 113.663 12.1021 113.663 12.2462C113.663 12.3422 113.71 12.7745 113.71 12.8225C113.71 13.1587 113.71 13.4948 113.758 13.831V14.1672C113.758 14.5994 113.71 16.4723 113.71 16.8085C113.71 17.0486 113.71 17.3848 113.758 17.865C113.806 18.2492 113.902 18.9696 113.902 19.1137V19.834C113.95 20.3143 113.71 20.3623 113.71 20.3623C113.519 20.3623 112.849 19.2577 112.754 19.0176C112.562 18.6334 112.562 18.5854 112.323 18.2973C112.227 18.1532 112.132 18.0571 112.084 17.9131C111.94 17.721 111.893 17.4328 111.701 17.1927C111.606 17.0486 111.127 16.5204 111.031 16.3763C110.936 16.1842 110.888 15.9441 110.792 15.752C110.744 15.5599 110.601 15.4158 110.505 15.2717L110.314 14.7915C110.218 14.5994 109.74 13.831 109.357 13.3027C108.735 12.5343 108.687 12.4383 108.544 11.862C108.4 11.4298 108.4 11.3818 108.113 11.0456C107.97 10.9015 107.922 10.7574 107.826 10.5653C107.635 10.1812 107.539 9.74894 107.348 9.41277C107.3 9.36474 106.726 8.45228 106.678 8.40425C106.487 8.21216 106.056 7.77994 105.339 7.77994C105.147 7.77994 104.334 7.87599 104.191 7.87599C103.999 7.87599 102.947 7.77994 102.708 7.77994C102.469 7.77994 102.277 7.77994 102.086 8.02006C101.894 8.26018 101.799 8.6924 101.799 8.98055C101.799 9.22067 101.847 9.31672 102.086 10.1331C102.134 10.2292 102.373 11.2857 102.373 11.7179C102.373 11.862 102.325 12.3903 102.325 12.5343C102.325 12.8705 102.373 13.2067 102.373 13.5429C102.373 13.735 102.229 14.7435 102.229 14.9356C102.181 15.2237 102.182 15.5119 102.182 15.752V17.3848H102.325ZM127.631 7.82796C127.535 7.82796 127.057 7.77994 126.961 7.77994H126.483C126.387 7.73191 125.909 7.68389 125.861 7.68389C125.718 7.68389 125 7.73191 124.857 7.73191C124.522 7.77994 124.235 7.82796 123.9 7.82796C123.852 7.82796 123.134 7.73191 123.039 7.68389C122.656 7.63587 122.178 7.63587 122.082 7.63587C121.986 7.63587 121.364 7.68389 121.269 7.68389C120.79 7.68389 120.647 7.68389 120.455 7.92401C120.312 8.11611 120.264 8.64438 120.264 8.74043C120.264 8.78845 120.312 8.98055 120.312 9.02857C120.312 9.12462 120.264 9.41277 120.264 9.50881C120.264 9.55684 120.312 9.84499 120.312 9.89301C120.312 10.0851 120.264 10.3252 120.264 10.5173C120.264 10.8055 120.455 11.4298 121.077 11.4298H121.556C121.843 11.4298 122.13 11.4778 122.369 11.4778C122.512 11.4778 123.039 11.3818 123.134 11.3818C123.23 11.3818 123.661 11.4298 123.804 11.4298C124.426 11.4298 124.761 11.4298 124.952 11.6699C125 11.766 125.096 12.1021 125.096 12.2462C125.096 12.2942 125.048 12.4863 125.048 12.5343C125.048 12.6784 125.144 13.2067 125.144 13.3027C125.144 13.3988 125.096 13.831 125.096 13.879C125.096 14.0711 125.191 14.8395 125.191 15.0316C125.191 15.2237 125.048 16.1362 125.048 16.3283C125.048 16.7125 125.096 17.0486 125.096 17.4328C125.096 17.6249 125 18.3453 125 18.4894C125 18.5854 125.048 19.0176 125.048 19.0657C125.048 19.1617 125 19.4979 125 19.5459C125.048 19.6419 125.048 19.9781 125.048 20.0261C125.048 20.2663 125 20.5064 125 20.7945C125 20.8426 125.048 21.2267 125.048 21.3228V21.659C125.048 21.755 125.096 22.1872 125.096 22.2353C125.096 22.4754 125.048 22.7155 125.048 22.9556V24.3003C125.048 24.3483 125.096 24.5884 125.096 24.5884C125.096 24.6845 125.048 25.1647 125.048 25.2608V25.7891C125 25.8851 124.952 26.3653 124.952 26.5094C124.952 26.6535 125 27.2298 125 27.3258C125 27.4699 124.904 27.9021 124.904 28.0462C124.904 28.0942 124.952 28.7666 125.048 28.8626C125.191 29.2468 125.622 29.2948 126.196 29.2948C126.387 29.2948 127.248 29.1988 127.44 29.1988C127.583 29.1988 128.301 29.2468 128.444 29.2468C129.258 29.2468 129.449 28.4304 129.449 27.614C129.449 27.2778 129.305 25.9812 129.305 25.645C129.258 25.3088 129.258 25.2608 129.258 25.1647C129.258 25.0207 129.305 24.4444 129.305 24.3003C129.305 24.1562 129.258 23.4839 129.258 23.3398C129.258 23.1477 129.305 22.3793 129.305 22.1872C129.305 22.0432 129.258 21.3228 129.258 21.1307C129.258 20.9386 129.305 20.0742 129.305 19.8821C129.305 19.4979 129.258 19.0657 129.258 18.6815C129.258 18.4413 129.305 17.4809 129.305 17.2888C129.305 17.1447 129.305 17.0006 129.258 16.8085C129.21 16.5684 129.21 16.4723 129.21 16.4243C129.21 16.2802 129.258 15.848 129.258 15.704C129.258 15.6079 129.21 15.2237 129.21 15.1277C129.21 15.0316 129.21 14.9356 129.258 14.8395C129.305 14.7435 129.305 14.5514 129.305 14.5033V14.1191C129.305 14.0711 129.353 13.735 129.353 13.6389C129.353 13.4948 129.305 13.0146 129.305 12.8705C129.305 12.2462 129.449 11.9581 129.545 11.814C129.64 11.6699 129.879 11.4298 130.167 11.4298C130.262 11.4298 130.741 11.5258 130.836 11.5258C130.98 11.5258 131.41 11.4778 131.554 11.4778C131.697 11.4778 132.271 11.5258 132.367 11.5258C132.511 11.5258 133.18 11.3818 133.276 11.3818C133.898 11.3818 134.185 11.2377 134.185 9.84498C134.185 9.70091 134.137 9.02857 134.137 8.93252C134.137 8.83647 134.185 8.5003 134.185 8.40425C134.185 7.77994 133.802 7.58784 132.798 7.58784C132.558 7.58784 131.506 7.68389 131.315 7.68389C130.884 7.68389 130.406 7.58784 129.975 7.58784C129.449 7.68389 127.679 7.82796 127.631 7.82796ZM141.313 25.4529H141.648C141.791 25.4529 142.269 25.5009 142.365 25.5009C142.509 25.5009 142.987 25.4529 143.13 25.4529H143.657C144.422 25.645 144.948 26.7495 144.948 27.566C144.948 27.9982 144.948 29.3909 145.953 29.3909C146.144 29.3909 147.484 29.2468 147.723 29.2468C147.962 29.2468 148.823 29.3429 149.015 29.3429C149.062 29.3429 149.589 29.3909 149.684 29.3909C149.923 29.3909 150.21 29.1988 150.21 28.6705C150.21 27.9982 149.876 27.4219 149.589 26.9416C149.445 26.6535 149.254 26.3173 149.11 26.0292C148.967 25.693 148.871 25.3568 148.775 25.0207C148.632 24.6365 148.393 24.2043 148.249 23.772C148.201 23.4839 148.106 23.1957 148.058 22.9076C148.01 22.7635 147.962 22.6675 147.914 22.5234C147.723 22.1392 147.723 22.0432 147.675 21.659C147.532 21.0827 147.245 20.2663 147.149 20.1222C147.005 19.834 146.814 19.4979 146.67 19.2097C146.527 18.9216 146.527 18.5854 146.431 18.2973C146.336 17.9611 146.192 17.6249 146.096 17.2888C145.953 16.9046 145.905 16.4723 145.762 16.0881C145.618 15.6079 145.379 15.2237 145.235 14.7435C145.14 14.5033 145.092 14.2632 145.044 14.0231C144.948 13.6389 144.805 13.2547 144.661 12.8705C144.326 12.1502 143.848 11.3818 143.609 10.6134C143.561 10.3733 143.465 10.2292 143.418 10.0371C143.37 9.89301 143.13 9.31672 143.083 9.17264C142.796 8.26018 142.748 8.16413 142.365 7.97204C142.078 7.82796 141.935 7.77994 141.648 7.77994C141.456 7.77994 140.691 7.82796 140.499 7.82796C140.308 7.82796 139.351 7.77994 139.16 7.77994C138.825 7.77994 138.538 7.82796 138.155 8.26018C137.916 8.59635 137.868 8.98055 137.773 9.36474C137.629 9.74894 136.959 11.5258 136.864 11.814C136.768 12.1982 136.72 12.5343 136.625 12.8705C136.481 13.2547 136.338 13.5909 136.194 13.9271C135.859 14.7915 135.716 15.6559 135.381 16.5204C135.237 16.7605 135.142 17.0486 134.998 17.3368C134.855 17.6249 134.759 17.9131 134.663 18.2012C134.472 18.8255 134.328 19.4018 134.089 19.9781C133.946 20.4103 133.754 20.8426 133.563 21.2748C133.276 21.9951 133.132 22.7635 132.989 23.4839C132.893 23.8681 132.845 24.2043 132.654 24.5884C132.511 24.9246 132.271 25.2608 132.128 25.597C131.984 25.9812 131.889 26.3653 131.745 26.7495C131.602 27.1818 131.315 27.566 131.123 27.9982C130.98 28.2383 130.884 28.4784 130.884 28.7185C130.884 28.9106 131.028 29.4869 131.649 29.4869C131.889 29.4869 132.989 29.4389 133.18 29.3909C133.372 29.3909 133.611 29.4389 133.802 29.4389C134.328 29.4869 134.376 29.4869 134.52 29.4869C135.142 29.4869 134.95 29.4869 135.189 29.1988C135.237 29.1508 135.572 28.6705 135.716 27.9982C135.907 27.2298 136.003 27.0857 136.242 26.6535C136.433 26.1733 136.672 26.0772 136.959 25.9331C137.39 25.693 137.581 25.645 137.964 25.645C138.299 25.645 138.634 25.693 138.969 25.7891C139.16 25.7891 139.351 25.8371 139.495 25.8371C139.83 25.8371 140.404 25.7891 140.643 25.7891L141.313 25.4529ZM140.069 21.8511C139.925 21.803 139.83 21.8511 139.734 21.8511C139.591 21.8511 139.112 21.9471 138.969 21.9471H138.873C138.777 21.8991 138.682 21.8511 138.538 21.803C138.395 21.755 138.251 21.755 138.155 21.659C138.012 21.5629 137.916 21.3708 137.916 21.1787C137.916 20.9386 138.012 20.6985 138.155 20.4584C138.299 20.2182 138.347 20.1702 138.395 19.786C138.49 19.4979 138.634 19.2097 138.777 18.9216C138.873 18.7775 138.921 18.5854 138.969 18.4413C139.112 17.9611 139.351 17.2888 139.495 16.8085C139.925 15.6079 140.26 14.7435 140.26 14.2632C140.26 14.2152 140.212 13.9751 140.212 13.9271C140.26 13.831 140.26 13.735 140.356 13.735C140.499 13.735 140.547 13.9271 140.595 14.1191C140.595 14.2632 140.691 14.4073 140.739 14.5033C140.739 14.5994 140.739 14.6954 140.786 14.7915C140.834 15.1757 141.026 15.5119 141.121 15.896C141.217 16.1842 141.265 16.4723 141.361 16.7605C141.504 17.4809 141.839 18.4413 141.887 18.6334C141.982 18.9216 142.078 19.2097 142.126 19.4498C142.222 19.786 142.269 20.0742 142.413 20.4103C142.556 20.6985 142.748 20.9866 142.748 21.2267C142.748 21.659 142.174 21.8511 141.982 21.8511C141.839 21.8511 141.743 21.803 141.552 21.803C141.504 21.803 141.073 21.8991 141.026 21.8991C140.978 21.8991 140.595 21.8511 140.547 21.8511H140.069ZM151.741 9.46079C151.741 9.55684 151.789 9.89301 151.837 10.0851C151.837 10.1331 152.028 11.766 152.028 11.91C152.028 12.1021 151.933 12.9666 151.933 13.1106C151.933 13.3508 151.98 14.2152 151.98 14.4073C152.028 14.7915 152.028 14.8875 152.028 14.9356V15.752C152.028 15.896 151.98 16.3763 151.98 16.4723C151.98 16.6164 152.028 17.0967 152.028 17.2407C151.98 17.4809 151.98 17.769 151.933 18.0571C151.885 18.2012 151.885 18.3933 151.885 18.5374C151.885 18.8736 151.885 19.1617 151.933 19.4979C151.933 19.69 151.98 20.3143 151.98 20.3623C151.98 20.6985 151.98 21.0347 152.028 21.3228C152.028 21.5149 152.028 21.707 151.98 21.9471C151.933 22.2353 151.933 22.3313 151.933 22.4274V22.9556C151.933 23.1477 151.885 24.1082 151.885 24.2523C151.885 24.4924 152.028 25.5489 152.028 25.741V26.1252C151.98 26.5094 151.885 26.9416 151.837 27.2778C151.837 27.4699 151.789 27.614 151.789 27.8061C151.789 28.4304 151.933 28.6705 151.98 28.7666C152.028 28.8626 152.315 29.2948 152.889 29.2948C153.081 29.2948 153.894 29.2468 154.037 29.2468C154.277 29.2468 155.186 29.3429 155.377 29.3429C156.286 29.3429 156.429 28.6705 156.429 28.1903C156.429 27.9021 156.19 26.7495 156.19 26.5574V26.2693C156.19 26.1733 156.142 25.7891 156.142 25.741C156.142 25.597 156.19 24.8766 156.19 24.7805C156.19 24.6365 156.094 23.9641 156.094 23.8681V23.4839C156.094 23.3878 155.999 22.9076 155.999 22.8116C155.999 22.5714 156.047 22.3793 156.047 22.1872C156.047 22.1392 155.999 21.803 155.999 21.707C155.999 21.659 156.047 21.2748 156.047 21.1787C156.047 20.7945 155.903 20.4584 155.903 20.1222C155.903 19.834 155.999 19.4979 155.999 19.2097C155.999 19.1137 155.951 18.6334 155.951 18.5854C155.951 18.3933 156.047 17.6249 156.047 17.4328C156.047 17.2888 155.999 16.7125 155.999 16.5684V15.5599C155.999 15.4158 156.047 14.6954 156.047 14.5033C156.047 14.3112 155.999 14.2152 155.999 14.0711C155.951 14.0231 155.903 13.6389 155.903 13.5909C155.903 13.4468 155.951 13.0626 155.951 12.9666C155.951 12.8705 155.903 12.4383 155.903 12.3422C155.903 12.1982 155.951 11.5739 155.951 11.4298C155.951 11.3818 155.903 10.9976 155.903 10.9495C155.903 10.8535 155.951 10.5653 155.951 10.4693C155.951 10.4213 155.903 10.2292 155.903 10.1812C155.903 9.98906 156.094 9.22067 156.094 9.0766C156.094 7.87599 155.233 7.68389 154.755 7.68389C154.468 7.68389 154.229 7.73191 153.942 7.73191C153.607 7.73191 153.272 7.68389 152.937 7.68389C151.885 7.68389 151.693 8.5003 151.646 8.54833C151.837 8.59635 151.741 9.36474 151.741 9.46079ZM159.921 17.3848C159.921 17.5769 160.017 18.6334 160.017 18.8255C160.017 19.2097 159.969 19.5459 159.969 19.8821C159.969 20.0261 160.017 20.6505 160.017 20.7945C160.017 20.8426 159.969 21.2748 159.969 21.3228C159.969 21.4669 160.017 21.8991 160.017 21.9951C160.017 22.1392 160.017 22.1392 159.969 22.5234C159.921 22.8116 159.921 22.9556 159.921 23.1477C159.921 23.3398 159.969 24.1082 159.969 24.2523V24.8766C159.969 25.1647 160.017 25.4529 160.017 25.741C160.017 25.8851 159.969 26.1733 159.874 26.6535C159.826 27.0377 159.778 27.3739 159.778 27.7581C159.778 28.1422 159.826 28.7185 160.304 29.1027C160.448 29.2468 160.591 29.3909 161.404 29.3909C161.548 29.3909 162.361 29.2948 162.553 29.2948C162.696 29.2948 163.27 29.3429 163.366 29.3429C163.988 29.3429 164.227 28.8626 164.227 28.2863C164.227 28.1903 164.227 28.0942 164.179 27.9982C164.131 27.8061 164.083 27.614 164.083 27.3739C164.036 27.2298 164.036 27.0857 164.036 26.8936C164.036 26.7976 163.94 26.3653 163.94 26.2693V25.9812C163.94 25.7891 163.892 25.645 163.892 25.5009C163.892 25.3568 163.94 24.8766 163.94 24.7805V24.3003C163.94 24.1562 164.036 23.5319 164.036 23.4359C164.036 23.1957 163.892 22.1872 163.892 22.0432C163.844 21.9951 163.844 21.8991 163.844 21.8991C163.844 21.707 163.892 21.4669 163.892 21.2748C163.94 21.0827 163.988 20.7465 163.988 20.6505C163.988 20.5064 163.844 19.738 163.844 19.5939C163.844 19.4498 163.892 18.8255 163.892 18.6815C163.892 18.4894 163.844 17.2888 163.796 17.1447C163.796 17.0486 163.749 17.0006 163.749 16.9046C163.749 16.7125 163.844 16.5684 163.94 16.5684C164.036 16.5684 164.131 16.6644 164.227 16.7605C164.37 16.9046 164.466 17.0486 164.562 17.1927C164.753 17.4328 164.944 17.6729 165.136 17.9131C165.279 18.1052 165.614 18.6334 165.806 19.1137C166.093 19.786 166.14 19.9781 166.906 20.9866C167.241 21.5149 167.288 21.6109 167.767 22.5234C168.054 23.1477 168.437 23.724 168.676 24.0602C169.058 24.5404 169.058 24.5884 169.393 25.1167C169.537 25.3568 169.68 25.597 169.776 25.7891C169.92 26.0772 170.207 26.6055 170.302 26.8456C170.398 27.0857 170.446 27.3258 170.541 27.566C170.589 27.662 171.068 28.5264 171.068 28.5745C171.068 28.6225 171.498 29.1988 171.69 29.2948C171.929 29.4869 172.264 29.4869 172.694 29.4869C172.885 29.4869 173.699 29.4389 173.842 29.4389C173.986 29.4389 174.464 29.4869 174.56 29.4869C175.517 29.4869 175.517 28.4304 175.517 28.1422C175.517 27.9982 175.469 27.8541 175.469 27.7581C175.421 27.3739 175.277 27.0377 175.23 26.6535C175.182 26.5094 175.182 25.645 175.182 25.5489C175.182 25.1647 175.23 24.8286 175.23 24.4924C175.23 24.2523 175.134 23.2438 175.134 23.0517C175.134 22.7635 175.23 21.3228 175.23 21.0346C175.23 20.7465 175.23 20.0261 175.182 19.738C175.182 19.5939 175.134 18.9696 175.134 18.8255C175.134 18.2973 175.23 17.769 175.277 17.2407C175.277 17.0006 175.325 15.7039 175.325 15.4158C175.325 15.2237 175.23 14.2152 175.182 13.9751L175.086 13.4468V13.1587C175.086 13.0146 175.134 12.0541 175.23 11.3337C175.325 10.6134 175.325 9.84498 175.325 9.74894C175.325 9.65289 175.277 9.26869 175.277 9.22067C175.277 9.0766 175.277 8.93252 175.23 8.74043C175.182 8.45228 174.847 8.06808 174.608 7.87599C174.416 7.73191 174.177 7.73191 173.89 7.73191C173.651 7.73191 172.598 7.87599 172.407 7.87599C171.977 7.87599 171.594 7.87599 171.259 8.35623C171.02 8.6924 171.02 9.0766 171.02 9.22067C171.02 9.65289 171.163 10.0851 171.259 10.4693C171.307 10.7574 171.307 10.9495 171.307 11.1897C171.307 11.3337 171.259 12.1021 171.259 12.2462C171.259 12.3422 171.307 12.7745 171.307 12.8225C171.307 13.1587 171.307 13.4948 171.355 13.831V14.1672C171.355 14.5994 171.307 16.4723 171.307 16.8085C171.307 17.0486 171.307 17.3848 171.355 17.865C171.403 18.2492 171.498 18.9696 171.498 19.1137V19.834C171.546 20.3143 171.307 20.3623 171.307 20.3623C171.115 20.3623 170.446 19.2577 170.35 19.0176C170.159 18.6334 170.159 18.5854 169.92 18.2973C169.824 18.1532 169.728 18.0571 169.68 17.9131C169.537 17.721 169.489 17.4328 169.298 17.1927C169.202 17.0486 168.724 16.5204 168.628 16.3763C168.532 16.1842 168.484 15.9441 168.389 15.752C168.341 15.5599 168.197 15.4158 168.102 15.2717L167.91 14.7915C167.815 14.5994 167.336 13.831 166.954 13.3027C166.332 12.5343 166.284 12.4383 166.14 11.862C165.997 11.4298 165.997 11.3818 165.71 11.0456C165.614 10.9015 165.518 10.7574 165.423 10.5653C165.231 10.1812 165.136 9.74894 164.944 9.41277C164.897 9.36474 164.275 8.45228 164.275 8.40425C164.083 8.21216 163.653 7.77994 162.935 7.77994C162.744 7.77994 161.931 7.87599 161.787 7.87599C161.596 7.87599 160.543 7.77994 160.304 7.77994C160.065 7.77994 159.874 7.77994 159.634 8.02006C159.395 8.26018 159.347 8.6924 159.347 8.98055C159.347 9.22067 159.395 9.31672 159.634 10.1331C159.682 10.2292 159.921 11.2857 159.921 11.7179C159.921 11.862 159.874 12.3903 159.874 12.5343C159.874 12.8705 159.921 13.2067 159.921 13.5429C159.921 13.735 159.778 14.7435 159.778 14.9356C159.73 15.2237 159.73 15.5119 159.73 15.752V17.3848H159.921ZM49.9428 4.75441C50.5169 4.75441 52.6696 4.70638 53.8177 4.65836C54.2004 4.65836 64.4376 4.41824 65.203 4.41824C66.3511 4.41824 71.7568 4.51429 72.9527 4.51429C74.4835 4.51429 79.8892 4.46626 81.2765 4.46626C83.764 4.41824 84.1946 4.41824 84.7686 4.41824H89.7916C90.557 4.41824 93.8577 4.46626 94.4318 4.46626C95.1972 4.46626 98.498 4.41824 99.2634 4.41824C100.794 4.46626 102.564 4.46626 104.286 4.51429C105.243 4.56231 106.391 4.56231 107.396 4.56231C109.501 4.56231 111.462 4.56231 113.567 4.51429C114.715 4.51429 118.59 4.46626 119.164 4.46626C121.269 4.46626 123.421 4.46626 125.335 4.41824C126.674 4.41824 127.822 4.41824 129.21 4.46626C130.932 4.51429 131.745 4.51429 132.128 4.51429H135.62C136.959 4.51429 142.748 4.56231 143.944 4.56231C145.475 4.56231 152.076 4.41824 153.416 4.41824H155.76C158.247 4.46626 160.783 4.56231 163.079 4.61033C164.227 4.61033 165.184 4.65836 166.38 4.65836C170.446 4.65836 171.785 4.51429 172.359 4.46626C172.933 4.41824 175.66 4.13009 175.66 3.5538C175.66 3.3617 175.947 2.68936 175.947 2.54529C175.947 2.35319 175.851 1.24863 175.851 1.05653C175.851 0.144073 171.594 0 168.724 0C167.001 0 159.634 0.240122 158.295 0.240122H156.382C155.807 0.240122 153.463 0.288146 152.889 0.288146C151.933 0.288146 147.484 0.240122 146.718 0.240122C145.762 0.240122 141.695 0.33617 140.93 0.33617H138.634C138.06 0.33617 134.95 0.432219 134.376 0.432219C133.037 0.432219 131.649 0.384195 130.31 0.384195C129.927 0.384195 127.822 0.432219 127.392 0.432219C127.009 0.432219 124.665 0.384195 124.091 0.384195C121.795 0.384195 119.642 0.528267 117.346 0.528267C115.433 0.528267 113.471 0.432219 111.558 0.432219C110.984 0.432219 108.066 0.480243 107.491 0.480243C106.343 0.480243 101.32 0.384195 100.172 0.384195C99.4069 0.384195 95.5321 0.432219 94.7667 0.432219H88.4043C87.4475 0.432219 82.8073 0.384195 81.8505 0.384195C80.8938 0.384195 80.1284 0.432219 79.1238 0.432219C78.7411 0.480243 76.4449 0.528267 76.2057 0.528267C75.4403 0.528267 72.7135 0.480243 72.1395 0.480243C71.5654 0.480243 68.8387 0.528267 68.2646 0.528267C67.4992 0.528267 63.433 0.480243 62.4763 0.480243C62.0936 0.480243 59.7495 0.528267 59.3668 0.528267C58.7928 0.528267 56.8314 0.480243 56.4487 0.480243C56.066 0.480243 54.9179 0.528267 54.5352 0.528267C53.3871 0.528267 48.5555 0.33617 47.5988 0.33617C39.7056 0.192097 38.701 1.05653 38.701 1.53678C38.701 1.82492 38.6531 2.11307 38.6531 2.35319C38.6531 2.68936 38.5096 3.02553 38.5096 3.3617C38.5096 4.41824 43.5326 4.61033 44.1066 4.65836C44.4893 4.65836 49.5123 4.75441 49.9428 4.75441ZM86.6343 47.448C86.5386 47.448 86.0602 47.448 85.9645 47.496C85.6775 47.496 85.6775 47.6881 85.7254 47.7842C85.7254 47.8322 85.7254 48.0243 85.7254 48.0723C85.7254 48.1204 85.7254 48.2164 85.7254 48.2644C85.7254 48.3125 85.7254 48.4085 85.7254 48.4565C85.7254 48.5046 85.7254 48.5526 85.7732 48.6006C85.821 48.6486 85.9167 48.7447 86.0602 48.7927C86.1081 48.7927 86.5386 48.7927 86.6343 48.7927C86.7299 48.7927 86.8256 48.7927 86.9691 48.7447C87.017 48.7447 87.2083 48.6006 87.2562 48.5526C87.304 48.5046 87.304 48.4565 87.3518 48.4565C87.3997 48.4085 87.3997 48.4085 87.4475 48.3605C87.4954 48.3125 87.4953 48.1204 87.4953 48.0723C87.4953 48.0243 87.4475 47.8322 87.3997 47.7362C87.304 47.5441 87.0648 47.4 86.9213 47.4C86.8735 47.448 86.6821 47.448 86.6343 47.448ZM84.6251 54.0754C84.0989 54.0754 84.0989 53.6432 84.0989 53.4991C84.0989 53.403 84.1467 52.8267 84.1467 52.6827C84.1467 52.6346 84.1467 52.3945 84.1467 52.3465C84.1467 52.2985 84.1946 51.9623 84.1946 51.8663C84.1946 51.7222 84.1946 51.5301 84.1946 51.386C84.1946 51.29 84.1946 51.1459 84.1946 51.0498V50.2815C84.1946 50.1374 84.1946 50.0413 84.1946 49.8973C84.1946 49.8492 84.1946 49.5131 84.1946 49.465V49.0808C84.1946 49.0328 84.1946 48.8888 84.1946 48.8888C84.1946 48.8407 84.1467 48.5046 84.1467 48.4085C84.1467 48.2164 84.1467 48.0723 84.1467 47.8802C84.1467 47.7362 84.1467 47.5921 84.1467 47.4C84.1467 47.3039 84.1467 47.2079 84.1467 47.1119C84.1467 47.0158 84.1467 46.9198 84.1467 46.8237C84.1467 46.3435 84.5294 46.1994 84.7208 46.1994C84.8165 46.1994 85.2948 46.2474 85.3427 46.2474C85.3905 46.2474 85.6775 46.1994 85.7732 46.1994C85.821 46.1994 86.0124 46.1994 86.0602 46.2474C86.1081 46.2474 86.3473 46.2474 86.3951 46.2474C86.4429 46.2474 86.4908 46.2474 86.6343 46.1994C86.7299 46.1994 86.8256 46.1994 86.9213 46.1994C87.0648 46.1994 87.4475 46.1994 87.6389 46.2474C87.7345 46.2474 87.7824 46.2954 87.8781 46.2954C88.0694 46.3435 88.1172 46.3435 88.2129 46.4395C88.2607 46.4875 88.3086 46.5356 88.3564 46.5836C88.4043 46.5836 88.4521 46.6316 88.4999 46.6316C88.5478 46.6796 88.5478 46.6796 88.5956 46.7277C88.6913 46.8237 88.7391 46.8717 88.8348 47.0158C88.8826 47.1599 88.9305 47.5921 88.9305 47.5921C88.9305 47.7362 88.8826 48.0723 88.8826 48.1684C88.8348 48.4565 88.6913 48.6967 88.4999 48.8888C88.4521 48.9368 88.4043 48.9848 88.4043 49.0328C88.4043 49.0328 88.4043 49.0808 88.4521 49.0808C88.4999 49.1289 88.6913 49.1769 88.7391 49.1769C88.787 49.2249 88.8348 49.2249 89.0262 49.369C89.1218 49.417 89.1697 49.465 89.2653 49.5611C89.2653 49.5611 89.6959 50.0894 89.7437 50.1374C89.7916 50.1854 89.9351 50.5696 89.9351 50.6176C89.9351 50.6176 90.0307 51.0018 90.0307 51.0979V51.4821C90.0307 51.6261 90.0307 51.6742 89.9351 51.9623C89.9351 52.0584 89.8394 52.4426 89.7916 52.5386C89.6002 52.9228 89.2175 53.355 89.0262 53.4511C89.0262 53.4511 88.6435 53.6912 88.6435 53.7392C88.5478 53.7872 88.4521 53.7872 88.3086 53.8353C88.2129 53.8833 88.1172 53.8833 88.0216 53.9313C87.8302 53.9793 87.1605 54.0754 86.6821 54.0754C86.2994 54.0754 86.1559 54.0754 86.0602 54.0754C85.8689 54.0754 85.7254 54.0274 85.534 54.0274C85.4383 54.0274 84.9121 54.0754 84.8164 54.0754H84.6251ZM86.2516 50.0894C86.1081 50.0894 85.9167 50.0894 85.821 50.2334C85.7732 50.2815 85.7732 50.2815 85.7732 50.5216C85.7732 50.5696 85.7732 50.7137 85.7732 50.7617C85.7732 50.8097 85.7732 50.9058 85.7732 50.9538C85.7732 51.0018 85.7732 51.2419 85.7732 51.29C85.7732 51.434 85.7254 52.0103 85.7254 52.1544C85.7254 52.2505 85.7254 52.4906 86.0602 52.6346C86.2516 52.6827 86.3472 52.7307 87.017 52.7307C87.0648 52.7307 87.4954 52.6827 87.5432 52.6346C87.591 52.6346 87.6389 52.5866 87.7345 52.5386C87.9737 52.4426 88.0694 52.3945 88.2129 52.2024C88.4043 51.9623 88.4999 51.5301 88.4999 51.434C88.4999 51.386 88.4521 50.9538 88.2607 50.7617C88.0694 50.5216 87.8302 50.3775 87.6389 50.2815C87.5432 50.2334 87.4475 50.2334 87.3518 50.1854C87.304 50.1854 87.2083 50.1374 87.1605 50.0894C87.0648 50.0413 86.8256 50.0413 86.7299 50.0413C86.6821 50.0413 86.4908 50.0413 86.4429 50.0413H86.2516V50.0894ZM92.1834 46.1994C92.0878 46.1994 91.6094 46.1994 91.5615 46.1994C91.2267 46.1994 91.0353 46.3915 91.0353 46.6796C91.0353 46.7277 91.131 47.496 91.131 47.6401C91.131 47.7362 91.0832 48.2644 91.0832 48.3605C91.0832 48.4565 91.0832 48.7447 91.131 48.8407C91.131 48.9848 91.131 49.321 91.131 49.417C91.131 49.5131 91.131 49.9933 91.131 50.0413C91.131 50.1854 91.131 50.9538 91.131 51.0979V51.2419C91.131 51.338 91.0832 51.434 91.0832 51.5301V52.1064C91.0832 52.2024 91.131 52.7307 91.131 52.7787C91.131 52.8267 91.0832 52.9228 91.0832 53.0669C91.0353 53.1629 91.0353 53.259 91.0353 53.307C91.0353 53.7392 91.131 53.8353 91.2267 53.9313C91.2745 53.9793 91.5137 54.0754 91.7051 54.0754L92.2313 54.0274C92.3748 54.0274 92.5661 53.9793 92.7097 53.9793C92.8532 53.9793 93.3794 54.0274 93.5229 54.0274C93.5707 54.0274 93.7621 54.0274 93.8099 54.0274C93.9056 54.0274 94.0013 54.0274 94.1448 54.0274C94.1926 54.0274 94.384 54.0274 94.384 54.0274C94.4796 54.0274 95.0059 54.0754 95.1494 54.0754C95.245 54.0754 95.5799 54.0274 95.5799 53.7392C95.5799 53.6432 95.5799 53.5951 95.5321 53.4991C95.5321 53.4511 95.4842 53.259 95.4842 53.259C95.4842 53.2109 95.5321 52.9708 95.5321 52.8748C95.5321 52.6827 95.3407 52.5866 95.1972 52.5866C95.1015 52.5866 95.0059 52.6346 94.958 52.6346C94.7667 52.6827 94.7188 52.7307 94.0491 52.7307C93.9534 52.7307 93.3794 52.7307 93.2837 52.7307C93.1402 52.7307 92.8053 52.6346 92.7097 52.3945C92.6618 52.2985 92.5661 51.7222 92.5661 51.5301C92.5661 51.434 92.5661 50.9538 92.5661 50.8577C92.5661 50.7617 92.5661 50.5216 92.614 50.4736C92.614 50.4255 92.7097 50.2334 93.0924 50.2334C93.2359 50.2334 93.3315 50.2334 93.4751 50.2334C93.5229 50.2334 93.6664 50.2334 93.7142 50.2334C93.7621 50.2334 93.9056 50.2334 93.9534 50.2334C94.0013 50.2334 94.1926 50.1854 94.2405 50.1854C94.3361 50.1854 94.7188 50.2815 94.7188 50.2815C94.8623 50.3295 94.8623 50.3295 94.9102 50.3295C95.0537 50.3295 95.3886 50.3295 95.3886 49.9933C95.3886 49.8973 95.3407 49.6091 95.3407 49.5131C95.3407 49.465 95.3407 49.417 95.3407 49.369C95.3886 49.321 95.3886 49.2729 95.3886 49.1769C95.3886 49.1769 95.3886 48.9368 95.1015 48.8888C95.0537 48.8888 94.5753 48.8407 94.5275 48.8407C94.4796 48.8407 94.2405 48.8407 94.1448 48.8407C94.1926 48.8407 93.8099 48.8407 93.7621 48.7927C93.6664 48.7927 93.6186 48.7447 93.5229 48.7447C93.4751 48.7447 93.4272 48.7447 93.4272 48.7447C93.3315 48.7447 93.2359 48.7447 93.1402 48.7447C92.9967 48.7447 92.7097 48.6967 92.614 48.5046C92.614 48.4565 92.5661 48.2644 92.5661 48.2164V48.1204C92.5661 47.9283 92.614 47.6401 92.8532 47.496C92.901 47.496 93.0445 47.448 93.188 47.448C93.2359 47.448 93.4272 47.448 93.4751 47.448C93.5229 47.448 93.7142 47.448 93.7621 47.448C93.8099 47.448 94.0013 47.496 94.0491 47.496C94.0969 47.496 94.2883 47.496 94.3361 47.496C94.384 47.496 94.6232 47.5441 94.671 47.5441C94.9102 47.5441 94.958 47.5441 95.1494 47.5921C95.2929 47.6401 95.2929 47.6401 95.3886 47.6401C95.5321 47.6401 95.6277 47.5441 95.6277 47.4C95.6277 47.352 95.6277 47.2079 95.6277 47.1599C95.6277 47.1119 95.5799 46.9198 95.5799 46.9198C95.5799 46.8237 95.6277 46.6796 95.6277 46.5356C95.6277 46.2954 95.4842 46.1514 95.245 46.1514C95.1494 46.1514 94.7667 46.1514 94.671 46.1514H94.2405C94.1448 46.1514 93.8099 46.1514 93.7621 46.1514H93.4272C93.3794 46.1514 93.2359 46.1514 93.0924 46.1033C92.9488 46.1033 92.8053 46.1033 92.7575 46.1033C92.6618 46.1994 92.2791 46.1994 92.1834 46.1994ZM98.0675 46.1994C97.9718 46.1994 97.4934 46.1994 97.3977 46.1994C97.0629 46.1994 96.8715 46.3915 96.8715 46.6796C96.8715 46.7277 96.9672 47.496 96.9672 47.6401C96.9672 47.7362 96.9194 48.2644 96.9194 48.3605C96.9194 48.4565 96.9194 48.7447 96.9672 48.8407C96.9672 48.9848 97.015 49.321 97.015 49.417C97.015 49.5131 96.9672 49.9933 96.9672 50.0413C96.9672 50.1854 97.015 50.9538 97.015 51.0979V51.2419C97.015 51.338 96.9672 51.434 96.9672 51.5301L96.9194 52.1064C96.9194 52.2024 96.9672 52.7307 96.9672 52.7787C96.9672 52.8267 96.9672 52.9228 96.9194 53.0669C96.8715 53.1629 96.8715 53.259 96.8715 53.307C96.8715 53.7392 96.9672 53.8353 97.0629 53.9313C97.1585 53.9793 97.3499 54.0754 97.5412 54.0754C97.5412 54.0754 98.0675 54.0274 98.1153 54.0274C98.2588 54.0274 98.4502 53.9793 98.5937 53.9793C98.7372 53.9793 99.2634 54.0274 99.4069 54.0274C99.4548 54.0274 99.6461 54.0274 99.6939 54.0274C99.7896 54.0274 99.8853 54.0274 100.029 54.0274C100.077 54.0274 100.268 54.0274 100.268 54.0274C100.364 54.0274 100.89 54.0754 101.033 54.0754C101.129 54.0754 101.464 54.0274 101.464 53.7392C101.464 53.6432 101.464 53.5951 101.416 53.4991C101.416 53.4511 101.368 53.259 101.368 53.259C101.368 53.2109 101.416 52.9708 101.416 52.8748C101.416 52.6827 101.225 52.5866 101.081 52.5866C100.986 52.5866 100.89 52.6346 100.842 52.6346C100.651 52.6827 100.603 52.7307 99.9331 52.7307C99.8375 52.7307 99.2634 52.7307 99.1677 52.7307C99.0242 52.7307 98.6894 52.6346 98.5937 52.3945C98.5458 52.2985 98.4502 51.7222 98.4502 51.5301C98.4502 51.434 98.4502 50.9538 98.4502 50.8577C98.4502 50.7617 98.4502 50.5216 98.498 50.4736C98.498 50.4255 98.5937 50.2334 98.9764 50.2334C99.1199 50.2334 99.2634 50.2334 99.3591 50.2334C99.4069 50.2334 99.5504 50.2334 99.5983 50.2334C99.6461 50.2334 99.7896 50.2334 99.8375 50.2334C99.8853 50.2334 100.077 50.1854 100.124 50.1854C100.22 50.1854 100.603 50.2815 100.603 50.2815C100.746 50.3295 100.746 50.3295 100.794 50.3295C100.938 50.3295 101.273 50.3295 101.273 49.9933C101.273 49.8973 101.225 49.6091 101.225 49.5131C101.225 49.465 101.225 49.417 101.225 49.369C101.225 49.321 101.273 49.2729 101.273 49.1769C101.273 49.1769 101.273 48.9368 100.986 48.8888C100.938 48.8888 100.459 48.8407 100.412 48.8407C100.364 48.8407 100.124 48.8407 100.029 48.8407C100.077 48.8407 99.6939 48.8407 99.6461 48.7927C99.5504 48.7927 99.4548 48.7447 99.4069 48.7447C99.3591 48.7447 99.3112 48.7447 99.3112 48.7447C99.2156 48.7447 99.1199 48.7447 99.0242 48.7447C98.8807 48.7447 98.5937 48.6967 98.498 48.5046C98.4502 48.4565 98.4502 48.2644 98.4502 48.2164V48.1204C98.4502 47.9283 98.498 47.6401 98.7372 47.496C98.785 47.496 98.9285 47.448 99.0721 47.448C99.1199 47.448 99.3112 47.448 99.3591 47.448C99.4069 47.448 99.5983 47.448 99.6461 47.448C99.6939 47.448 99.8853 47.496 99.9331 47.496C99.981 47.496 100.172 47.496 100.22 47.496C100.268 47.496 100.507 47.5441 100.555 47.5441C100.794 47.5441 100.842 47.5441 101.033 47.5921C101.177 47.6401 101.177 47.6401 101.273 47.6401C101.416 47.6401 101.512 47.5441 101.512 47.4C101.512 47.352 101.512 47.2079 101.512 47.1599C101.512 47.1119 101.464 46.9198 101.464 46.9198C101.464 46.8237 101.512 46.6796 101.512 46.5356C101.512 46.2954 101.368 46.1514 101.129 46.1514C101.033 46.1514 100.651 46.1514 100.555 46.1514H100.172C100.077 46.1514 99.7418 46.1514 99.6461 46.1514H99.3112C99.2634 46.1514 99.1199 46.1514 98.9764 46.1033C98.8329 46.1033 98.6894 46.1033 98.6415 46.1033C98.498 46.1994 98.1153 46.1994 98.0675 46.1994ZM106.917 48.9368C106.87 48.8888 106.87 48.8407 106.87 48.7447C106.87 48.6967 106.87 48.6486 106.822 48.6006C106.822 48.5526 106.822 48.5526 106.774 48.5046C106.583 48.1204 106.535 48.0723 106.296 47.8802C106.056 47.6881 106.056 47.6881 105.913 47.6401C105.865 47.6401 105.865 47.6401 105.817 47.5921C105.769 47.5921 105.769 47.5441 105.721 47.5441C105.674 47.5441 105.578 47.5441 105.53 47.496C105.482 47.496 105.482 47.496 105.434 47.448C105.387 47.448 105.339 47.448 105.291 47.448L105.147 47.4H105.004C104.956 47.4 104.908 47.4 104.908 47.4C104.86 47.4 104.621 47.496 104.621 47.496C104.334 47.5921 104.334 47.9283 104.334 48.1684C104.334 48.2164 104.286 48.5046 104.286 48.5526C104.286 48.6486 104.334 49.1289 104.334 49.2729C104.334 49.417 104.286 49.9453 104.286 50.0413C104.286 50.0894 104.286 50.1374 104.334 50.2815C104.334 50.3295 104.334 50.4255 104.334 50.4736C104.334 50.5216 104.382 50.5696 104.382 50.5696C104.478 50.7137 104.813 50.7137 104.908 50.7137C105.004 50.7137 105.1 50.7137 105.147 50.7137C105.291 50.7137 105.339 50.7137 105.434 50.6657C105.53 50.6176 105.578 50.6176 105.961 50.4736C106.152 50.4255 106.2 50.3295 106.296 50.1854C106.343 50.0894 106.391 50.0413 106.487 49.9453C106.583 49.8492 106.678 49.7052 106.774 49.5131C106.87 49.369 106.917 48.8888 106.917 48.8888C106.917 49.0328 106.917 48.9848 106.917 48.9368ZM102.708 53.4511C102.756 53.259 102.803 53.0188 102.803 52.8267C102.803 52.7787 102.756 52.4426 102.756 52.3465C102.756 52.2985 102.803 52.1064 102.803 52.0584C102.803 52.0103 102.756 51.7702 102.756 51.7222C102.756 51.6261 102.756 51.434 102.756 51.338C102.756 51.29 102.803 51.0018 102.803 50.9058C102.803 50.8577 102.803 50.8097 102.803 50.7137C102.756 50.5696 102.756 50.5216 102.756 50.2815C102.756 50.2334 102.756 50.1374 102.756 50.0894C102.803 49.8492 102.803 49.5131 102.803 49.321C102.803 49.2729 102.756 48.9368 102.756 48.8407C102.756 48.7927 102.803 48.6006 102.803 48.5526C102.803 48.5046 102.756 48.2164 102.756 48.1204C102.756 48.0723 102.756 47.8802 102.756 47.8802C102.756 47.7362 102.708 47.4 102.66 47.2079C102.612 47.0158 102.612 46.9678 102.612 46.9198C102.612 46.5836 102.66 46.4395 102.708 46.3435C102.851 46.1514 102.947 46.1033 103.234 46.1033C103.33 46.1033 103.473 46.1033 103.569 46.1033C103.664 46.1033 103.76 46.1514 103.808 46.1514C103.856 46.1514 103.951 46.1514 103.999 46.1514C104.047 46.1514 104.334 46.1514 104.382 46.1514C104.43 46.1514 104.669 46.1514 104.765 46.1514C104.86 46.1514 105.339 46.1033 105.434 46.1033C105.53 46.1033 105.578 46.1033 105.674 46.1033C105.721 46.1033 105.817 46.1514 105.865 46.1514C106.2 46.1994 106.248 46.1994 106.391 46.2474C106.439 46.2474 106.487 46.2954 106.678 46.3915C106.726 46.4395 106.774 46.4395 106.822 46.4875C106.87 46.5356 106.917 46.5356 106.965 46.5836C107.061 46.6316 107.109 46.6796 107.204 46.7277C107.252 46.7757 107.587 47.0158 107.683 47.1599C107.731 47.2559 107.778 47.3039 107.826 47.4C107.922 47.496 107.97 47.5441 108.066 47.6401C108.209 47.8802 108.305 48.2164 108.305 48.4565V48.6486C108.305 48.6486 108.305 48.7927 108.305 48.8407C108.305 48.8888 108.305 49.1769 108.305 49.2249V49.2729C108.305 49.369 108.257 49.5131 108.209 49.6091C108.161 49.7532 108.161 49.8973 108.113 50.0413C108.113 50.1374 107.922 50.4255 107.874 50.5216C107.778 50.7137 107.731 50.8577 107.539 51.0018C107.491 51.0498 107.444 51.0979 107.396 51.0979C107.252 51.2419 107.204 51.29 106.965 51.434C106.822 51.5781 106.63 51.6261 106.487 51.6742C106.439 51.6742 106.296 51.7222 106.296 51.8182C106.296 51.8663 106.343 51.9143 106.487 52.0103C106.535 52.0103 106.583 52.0584 106.583 52.1064C106.583 52.1544 106.678 52.2505 106.726 52.2505C106.774 52.2985 107.109 52.5386 107.204 52.5386C107.3 52.5866 107.539 52.6346 107.922 52.6346C108.257 52.6346 108.305 52.9228 108.305 53.0188C108.305 53.0669 108.257 53.307 108.257 53.355C108.257 53.403 108.257 53.5471 108.257 53.5951C108.257 53.6432 108.257 53.7872 108.161 53.9313C108.066 54.0754 107.779 54.1234 107.683 54.1234C107.635 54.1234 107.587 54.1234 107.539 54.1234H107.396H107.252H107.109C107.061 54.1234 107.013 54.0754 106.917 54.0754C106.822 54.0754 106.774 54.0754 106.726 54.0274C106.63 54.0274 106.391 53.8833 106.343 53.8353C106.296 53.7872 105.913 53.4991 105.769 53.355C105.674 53.307 105.243 52.9708 105.195 52.8748C105.147 52.8267 105.1 52.7307 105.052 52.6827C104.956 52.6346 104.956 52.6347 104.908 52.5386C104.86 52.4906 104.813 52.4426 104.765 52.3945C104.669 52.2985 104.573 52.2024 104.382 52.2024C104.191 52.2024 104.143 52.4426 104.143 52.6346C104.143 52.7787 104.143 52.9228 104.191 52.9708C104.191 53.0669 104.239 53.2109 104.286 53.307C104.286 53.355 104.286 53.403 104.286 53.4511C104.286 53.6432 104.239 53.8833 103.951 53.8833H103.808C103.76 53.8833 103.569 53.8833 103.521 53.8833C103.377 53.8833 103.234 53.8833 103.09 53.8833C102.708 53.8833 102.708 53.5951 102.708 53.4511Z" fill="white"></path>
</svg>
