<?xml version="1.0" encoding="UTF-8"?>
<svg id="Layer_2" data-name="Layer 2" xmlns="http://www.w3.org/2000/svg" viewBox="0 0 1419.75 439.6">
  <defs>
    <style>
      .cls-1 {
        fill: #fff;
        stroke-width: 0px;
      }
    </style>
  </defs>
  <g id="Layer_2-2" data-name="Layer 2">
    <g>
      <path class="cls-1" d="m353.78,233.37c-46.06-28.3-113.42-36.27-167.6-19.83-6.14,1.87-9.6,8.35-7.75,14.5,1.86,6.14,8.36,9.61,14.51,7.75,47.43-14.39,108.56-7.26,148.67,17.39,5.47,3.37,12.63,1.64,16-3.83,3.37-5.47,1.64-12.63-3.83-15.99Z"/>
      <path class="cls-1" d="m698.46,245.29c-15.76,0-27.67,13.2-27.67,30.71s11.9,30.72,27.67,30.72,27.09-12.63,27.09-30.72-11.4-30.71-27.09-30.71Z"/>
      <path class="cls-1" d="m814.64,245.46c-16.59,0-28.63,12.84-28.63,30.53s12.47,30.89,29,30.89,28.81-12.83,28.81-30.51-12.55-30.91-29.18-30.91Z"/>
      <path class="cls-1" d="m373.41,183.05c-55.36-32.87-142.97-35.96-195.67-19.96-7.37,2.24-11.53,10.03-9.29,17.41,2.23,7.37,10.03,11.54,17.4,9.29,45.91-13.93,125.25-11.3,173.33,17.26h.01c6.61,3.94,15.19,1.75,19.11-4.88,3.94-6.62,1.77-15.18-4.88-19.12Z"/>
      <path class="cls-1" d="m676.55,120.6c-10.25,0-17.75,7.77-18.11,17.4h36.12c-.53-9.19-7.33-17.4-18.02-17.4Z"/>
      <path class="cls-1" d="m1199.95,0H219.8C98.41,0,0,98.41,0,219.8h0c0,121.39,98.41,219.8,219.8,219.8h980.15c121.39,0,219.8-98.41,219.8-219.8h0c0-121.39-98.41-219.8-219.8-219.8Zm-356.73,117.59h3.98l.26,9.63c3.44-5.56,9.27-10.51,18.46-10.51,9.89,0,16.78,6.62,16.78,19.7v25.88h-4.24v-24.55c0-11.92-5.92-16.96-13.69-16.96-12.98,0-17.05,11.66-17.31,17.05v24.47h-4.24v-44.69Zm-33.74-.88c13.07,0,23.41,10.42,23.41,23.14s-10.33,23.32-23.41,23.32-23.58-10.42-23.58-23.32,10.42-23.14,23.58-23.14Zm-100.25.88h3.97l.26,9.63c3.44-5.56,9.27-10.51,18.46-10.51,9.89,0,16.78,6.62,16.78,19.7v25.88h-4.24v-24.55c0-11.92-5.92-16.96-13.69-16.96-12.98,0-17.05,11.66-17.31,17.05v24.47h-4.24v-44.69Zm-32.68-.88c13.69,0,22.35,11.13,22.35,23.58v.97h-40.45c.35,10.86,8.13,18.02,18.81,18.02,8.92,0,14.22-5.12,16.25-9.89l3.8.62c-2.03,6.18-9.01,13.16-20.14,13.16-13.07,0-22.96-9.54-22.96-23.49,0-12.54,9.27-22.96,22.35-22.96Zm-73.22,22.96c-5.56-2.21-11.92-5.03-11.92-12.01s6.89-10.95,13.69-10.95c8.04,0,13.78,4.68,14.49,11.48h-4.24c-.71-4.86-4.95-7.77-10.16-7.77-4.5,0-9.45,2.56-9.45,7.24,0,5.39,5.74,6.89,14.22,10.6,6.8,2.83,12.9,5.92,12.9,13.51,0,6.71-6.18,11.39-15.63,11.39s-15.72-4.5-17.31-12.1h4.24c1.68,4.86,6.01,8.3,13.16,8.3s11.22-3.18,11.22-7.6c0-6.54-5.56-8.04-15.19-12.1Zm-26.14-37.01c1.77,0,3.18,1.41,3.18,3.18s-1.41,3.09-3.18,3.09-3.09-1.41-3.09-3.09c0-1.77,1.41-3.18,3.09-3.18Zm2.12,14.93v44.69h-4.24v-44.69h4.24Zm-42.22-18.02h4.24v58.65h25.61v4.06h-29.85v-62.71Zm-266.15,273.61c-82.4,0-149.2-66.79-149.2-149.19s66.8-149.2,149.2-149.2h0c82.4.01,149.19,66.81,149.19,149.2s-66.79,149.19-149.19,149.19Zm315.74-43.28c-21.2,0-40.84-7.52-56.8-21.77-.68-.61-.75-1.64-.16-2.35l14.11-16.78c.29-.34.7-.55,1.16-.59.43-.02.89.11,1.23.41,13.72,11.87,25.99,16.94,41.03,16.94,13.54,0,21.95-5.86,21.95-15.29,0-8.5-4.17-13.26-28.81-18.94-28.97-7-45.73-16.07-45.73-41.68,0-23.88,19.44-40.57,47.25-40.57,18.92,0,35.1,5.61,49.48,17.14.69.56.84,1.56.32,2.29l-12.58,17.73c-.27.37-.66.62-1.12.69-.45.07-.91-.04-1.27-.31-12.08-9-23.59-13.38-35.2-13.38s-20.04,5.76-20.04,14.32c0,9.06,4.58,13.37,30.34,19.51l.05.02c31.37,7.63,44.18,19.48,44.13,40.87,0,25.35-19.37,41.72-49.33,41.72Zm53.05-167.62h-4.24v-40.63h-5.74v-4.06h5.74v-13.25h4.24v13.25h8.48v4.06h-8.48v40.63Zm64.09,167.82c-12.99,0-23.65-4.82-32.44-14.68v41.38c0,.93-.76,1.69-1.68,1.69h-23.07c-.92,0-1.67-.76-1.67-1.69v-131.12c0-.93.75-1.69,1.67-1.69h23.07c.92,0,1.68.76,1.68,1.69v11.8c8.79-10.49,19.45-15.6,32.44-15.6h.02c24.16,0,48.6,18.58,48.56,54.11,0,35.53-24.44,54.11-48.58,54.11Zm110.84.19c-30.88,0-55.07-23.68-55.07-53.91s24.35-54.5,55.44-54.5,55.25,23.77,55.25,54.11-24.43,54.3-55.62,54.3Zm123.67-84.78c0,.93-.75,1.69-1.67,1.69h-25.39v47.67c0,7.52,3.31,10.89,10.71,10.89,4.81,0,9.1-1.03,13.54-3.26.52-.27,1.14-.25,1.64.07.5.3.8.86.8,1.43v18.89c0,.61-.32,1.17-.85,1.46-6.47,3.67-13.33,5.38-21.59,5.38-20.36,0-30.68-10.51-30.68-31.23v-51.3h-11.08c-.93,0-1.67-.76-1.67-1.69v-19.82c0-.93.75-1.69,1.67-1.69h11.08v-25.95c0-.93.77-1.69,1.69-1.69h23.07c.93,0,1.68.76,1.68,1.69v25.95h25.4c.94.01,1.69.77,1.66,1.7v19.82Zm37.18,80.79c0,.94-.77,1.69-1.69,1.69h-23.07c-.93,0-1.69-.75-1.69-1.69v-100.63c0-.93.77-1.69,1.69-1.69h23.07c.94,0,1.69.77,1.69,1.7v100.62Zm-13.09-115.05c-9.14,0-16.55-7.41-16.55-16.55s7.41-16.53,16.55-16.53,16.53,7.4,16.53,16.53-7.39,16.55-16.53,16.55Zm182.36,15.15l-40.01,103.4c-8.29,21.34-17.71,29.29-34.74,29.29-9.1,0-16.46-1.89-24.62-6.31-.78-.43-1.1-1.37-.73-2.19l7.82-17.15c.18-.43.55-.75,1-.91.43-.12.93-.09,1.34.12,4.37,2.41,8.66,3.62,12.72,3.62,5.02,0,8.71-1.66,12.45-9.96l-33-79.11h-21.54v79.11c0,.94-.75,1.69-1.69,1.69h-23.05c-.93,0-1.69-.75-1.69-1.69v-79.11h-11.08c-.93,0-1.69-.76-1.69-1.69v-19.93c0-.93.77-1.69,1.69-1.69h11.08v-4.88c0-22.68,11.28-34.68,32.57-34.68,8.77,0,14.61,1.4,19.17,2.75.73.22,1.19.88,1.19,1.62v19.44c0,.54-.25,1.05-.69,1.37-.43.32-.98.4-1.52.23-4.33-1.44-8.19-2.4-13.01-2.4-8.05,0-11.65,4.18-11.65,13.56v3.19h0s39.41,0,39.41,0c.69,0,1.32.43,1.57,1.09l26.94,70.3,24.6-70.25c.23-.67.87-1.13,1.6-1.13h24.02c.55,0,1.07.28,1.37.73.32.46.39,1.05.18,1.57Z"/>
      <path class="cls-1" d="m336.26,277.19c-39.33-24.03-88.08-29.63-144.91-16.64-5.02,1.14-8.14,6.13-6.99,11.14,1.14,5,6.12,8.14,11.13,7,51.94-11.86,96.03-7.02,131.06,14.37,4.38,2.69,10.12,1.31,12.79-3.08,2.69-4.38,1.3-10.1-3.08-12.78Z"/>
      <path class="cls-1" d="m809.48,159.1c10.6,0,19.17-8.66,19.17-19.25s-8.57-19.08-19.17-19.08-19.34,8.66-19.34,19.08,8.66,19.25,19.34,19.25Z"/>
    </g>
  </g>
</svg>