<?xml version="1.0" encoding="UTF-8"?>
<svg id="Layer_2" data-name="Layer 2" xmlns="http://www.w3.org/2000/svg" viewBox="0 0 3205.83 759.37">
  <defs>
    <style>
      .cls-1 {
        fill: #fff;
        stroke-width: 0px;
      }
    </style>
  </defs>
  <g id="_ÎÓÈ_1" data-name="—ÎÓÈ_1">
    <g>
      <path class="cls-1" d="m645.33,416.14v-.1C628.78,147.73,406.92,24.93,357.03.63c-4.31-2.1-9.22,1.37-8.74,6.14,5.27,52.39,2.92,95.67-4.34,131.42-31.02,152.8-151.86,167.9-151.86,167.9-23.13-24.5-31.69-91.51-34.09-115.58-.41-4.08-4.94-6.34-8.44-4.2C59.64,241.52,0,338.3,0,448.47c0,171.71,144.85,310.89,323.53,310.89s323.53-139.19,323.53-310.89c0-10.92-.59-21.72-1.74-32.34Z"/>
      <g>
        <rect class="cls-1" x="1123.09" y="219.3" width="126.38" height="522.37"/>
        <circle class="cls-1" cx="1187.97" cy="81.97" r="74.99"/>
        <path class="cls-1" d="m3040.69,278.08v-58.78h-126.38v522.37h126.38v-343.24c0-5.71,2.26-11.17,6.22-15.28,72.91-75.4,158.91-45.6,158.91-45.6v-131.73c-106.16,0-165.14,72.26-165.14,72.26Z"/>
        <path class="cls-1" d="m1067.48,610.24s-10.11,26.96-50.55,26.96-41.28-40.04-41.28-40.04v-263.27h102.79v-114.58h-102.79V80.29h-126.38v139.02h-84.25v114.58h84.25v305.2c0,38.96,31.17,114.18,126.38,114.18s125.54-40.24,125.54-40.24l-33.7-102.79Z"/>
        <path class="cls-1" d="m1770.15,349.85c-4.5-41.23-26.22-103.46-89.19-130.54-19.46-8.37-42.85-13.38-70.89-13.38-118.8,0-181.99,71.77-181.99,71.77v-58.39h-126.38v522.37h126.38v-352c0-3.92,1.46-7.7,4.1-10.59,20.36-22.32,59.04-54.56,114.69-57.83,42.97-2.53,67.19,15.13,80.67,33.41,10.79,14.64,16.22,32.54,16.22,50.72v336.29h126.38v-385.14c.25-2.11.25-4.33,0-6.69Z"/>
        <path class="cls-1" d="m2198.16,27.21v241.13c-47.43-36.73-105.35-59.15-163.89-59.15-138.82,0-222.8,126.01-222.8,270.69s83.98,273.59,222.8,273.59c58.54,0,116.45-22.92,163.89-60.27v48.48h126.38V27.21h-126.38Zm-123.01,611.68c-81.89,0-131.43-74.63-131.43-158.4s49.54-156.71,131.43-156.71c46.37,0,92.09,23.39,123.01,58.88v196.36c-30.94,35.96-76.65,59.87-123.01,59.87Z"/>
        <path class="cls-1" d="m2881.45,462.8c0-10.85-.67-21.54-1.99-32.02-15.76-125.4-122.79-222.43-252.46-222.43-160.08,0-264.55,125.72-264.55,266.24s92.61,279.72,266.24,279.72c40.85,0,75.1-4.4,103.83-12.39,9.08-2.53,17.63-5.43,25.63-8.63.02-.02.03-.02.05-.03,16.38-8.39,30.01-15.91,41.33-22.56,44.4-26.1,53.26-38.96,53.26-38.96l-7.75-10.94-53.16-75c-64.15,64.15-148.03,60.66-148.03,60.66-131.43,0-146.95-121.32-146.95-121.32h382.98c1.28-20.66,1.57-41.62,1.57-62.35Zm-386.5-32.02c8.34-65.57,64.66-116.27,132.9-116.27s124.56,50.7,132.9,116.27h-265.8Z"/>
        <path class="cls-1" d="m2799.54,710.7c-11.95,8.68-25.65,16.26-41.33,22.56,16.38-8.39,30.01-15.91,41.33-22.56Z"/>
        <path class="cls-1" d="m2758.16,733.3c-8.63,4.4-17.2,7.18-25.63,8.63,9.08-2.53,17.63-5.43,25.63-8.63Z"/>
      </g>
    </g>
  </g>
</svg>