<?xml version="1.0" encoding="utf-8"?>
<!-- Generator: Adobe Illustrator 27.9.0, SVG Export Plug-In . SVG Version: 6.00 Build 0)  -->
<svg version="1.1" id="Layer_1" xmlns="http://www.w3.org/2000/svg" xmlns:xlink="http://www.w3.org/1999/xlink" x="0px" y="0px"
	 viewBox="0 0 481 200" style="enable-background:new 0 0 481 200;" xml:space="preserve">
<style type="text/css">
	.st0{fill:#FFFFFF;}
</style>
<g>
	<path class="st0" d="M141.5,79.3L192.1,26c0.5-0.4,0.8-0.9,1.1-1.5c0.2-0.6,0.4-1.2,0.4-1.8c0-0.6-0.1-1.2-0.4-1.8
		c-0.3-0.6-0.6-1.1-1.1-1.5c-0.5-0.4-1-0.7-1.6-0.9c-0.6-0.2-1.2-0.3-1.8-0.2c-0.6,0.1-1.2,0.2-1.8,0.5c-0.5,0.3-1,0.7-1.4,1.2
		L137.7,76c-1.1-0.3-2.3-0.1-3.4,0.3c-1.1,0.5-1.9,1.3-2.5,2.3c-0.5,1-0.7,2.2-0.5,3.4c0.2,1.1,0.8,2.2,1.7,3s2,1.2,3.1,1.3
		c1.2,0.1,2.3-0.2,3.3-0.9c1-0.6,1.7-1.6,2.1-2.7C141.9,81.6,141.9,80.4,141.5,79.3"/>
	<path class="st0" d="M178,96c0-0.2-0.1-0.3-0.3-0.4l-0.1-0.1c-0.1-0.1-0.3-0.2-0.5-0.2h-0.1h-0.2c-0.1,0-0.2,0.1-0.3,0.1
		c0,0-0.1,0-0.1,0c-0.1,0.1-0.2,0.2-0.3,0.4l-14.6,70.6c0,0.2-0.1,0.4-0.2,0.5c-0.1,0.2-0.3,0.3-0.5,0.3c-0.2,0.1-0.4,0-0.6,0
		c-0.2-0.1-0.3-0.2-0.4-0.4l-37.3-36.1c-0.1-0.1-0.3-0.2-0.4-0.2c-0.2,0-0.3,0-0.5,0l0,0c-0.2,0-0.3,0.1-0.4,0.2
		c-0.1,0.1-0.2,0.2-0.3,0.4l-14,50.1c0,0.2-0.1,0.4-0.2,0.5c-0.1,0.1-0.3,0.3-0.5,0.3c-0.2,0.1-0.4,0-0.6,0
		c-0.2-0.1-0.3-0.2-0.4-0.4l-47.9-53.9c-0.1-0.1-0.3-0.2-0.4-0.2c0,0-0.1,0-0.1,0c-0.1,0-0.2,0-0.3,0c0,0-0.1,0-0.1,0
		c0,0-0.1,0-0.1,0c0,0,0,0,0,0c-0.1,0.1-0.2,0.2-0.3,0.4v0.1c0,0.2,0,0.3,0,0.5l0,0c0,0,21.7,50.9,22.6,52.8
		c5.9,14,29.2,24.1,61,15.6c33.3-9,47.3-30.9,45.3-43.9C184.7,150.8,178.1,96,178,96"/>
	<path class="st0" d="M71.9,2.8c-0.3-0.7-0.7-1.3-1.3-1.8c-0.6-0.5-1.3-0.8-2.1-1c-0.6-0.1-1.2-0.1-1.7,0.1
		c-0.6,0.1-1.1,0.4-1.6,0.7c-0.5,0.3-0.9,0.8-1.2,1.3c-0.3,0.5-0.5,1.1-0.6,1.6c-0.1,0.8,0,1.6,0.3,2.4l22.5,51.8
		c1.8-0.7,3.7-1.5,5.5-2.1L71.9,2.8z"/>
	<path class="st0" d="M4.5,98.2c-0.8,0-1.6,0.2-2.3,0.7c-0.8,0.5-1.4,1.3-1.8,2.2c-0.3,0.9-0.4,1.9-0.1,2.8c0.3,0.9,0.8,1.7,1.6,2.3
		c0.8,0.6,1.7,0.9,2.6,0.9l42.4-1.4c-0.1-0.3-0.2-0.5-0.2-0.7c-0.5-1.9-0.8-3.9-0.7-5.9L4.5,98.2z"/>
	<path class="st0" d="M165,61.5c-4.5,3.7-13.4,11.4-12.4,14.7c0.8,2.9,4.8,3,8.9,2.8h3.6l-3.4,1.3c-5.6,2.1-9.9,3.4-11,6.5
		c-0.9,2.4,0.4,6.5,2.2,9.5l0.8,1.5l-1.6-0.6c-5.2-1.8-9.1-2.6-12.3-0.9c-3.2,1.7-4.8,5.7-6.2,10.9l-0.7,2.7l-0.5-2.7
		c-1.1-6.2-2.4-8.7-5.7-10.6c-5.6-3.3-17.2,0.9-17.2,0.9s10.4-7.6,10.4-13c0-3.5-2.6-7.5-6.8-10.5l-2.9-2.1l3.4,1
		c5.5,1.5,9.9,1.3,12.8-0.9c4-2.9,4.8-7.9,4.9-12.2v-3.1l1.2,2.9c1.6,3.8,2.8,7.7,6,7.9c3,0.2,9.8-8.2,13.4-12.8
		c-13.1-4.1-31.2-4.1-50.1,0.9c-3.1,0.8-6.1,1.8-9,2.8l5,13.4c1.2,0.1,2.2,0.7,3.1,1.5c0.8,0.8,1.4,1.9,1.5,3.1
		c0.2,1.2-0.1,2.3-0.7,3.4c-0.6,1-1.5,1.8-2.6,2.2c-1.1,0.4-2.3,0.5-3.4,0.2c-1.1-0.3-2.1-1-2.8-1.9c-0.7-0.9-1.1-2.1-1-3.3
		c0-1.2,0.4-2.3,1.2-3.2l-5.3-12.2l-0.4-1C64.5,69.8,49,85.1,48.7,99h1.5L78,99.5c0.6-1,1.4-1.8,2.5-2.3c1.1-0.5,2.3-0.6,3.4-0.3
		c1.1,0.3,2.1,0.9,2.8,1.9c0.7,0.9,1.1,2.1,1.1,3.2c0,1.2-0.4,2.3-1.1,3.2c-0.7,0.9-1.7,1.6-2.8,1.9c-1.1,0.3-2.3,0.2-3.4-0.3
		c-1.1-0.5-2-1.3-2.5-2.3l-27.1,0.9h-1.1c5.9,16.9,36.5,23.4,69.3,14.6c33.7-9.1,57.2-30.9,52.4-48.7c-1.1-3.9-3.4-7.4-6.5-10"/>
	<path class="st0" d="M417.7,94.4c-8.1,0-15.8,3.2-21.5,8.9c-5.7,5.7-8.9,13.4-8.9,21.5s3.2,15.8,8.9,21.5
		c5.7,5.7,13.4,8.9,21.5,8.9h17v-13.5h-0.6h-16.3c-3.3,0-6.6-1-9.4-2.8c-2.8-1.8-4.9-4.5-6.2-7.6h45.3l0.1-0.4
		c0.4-2,0.6-3.9,0.6-5.9c0-8.1-3.2-15.8-8.9-21.5c-5.7-5.7-13.4-8.9-21.5-8.9L417.7,94.4z M402.2,118.4c1.3-3.1,3.4-5.7,6.2-7.6
		c2.8-1.9,6-2.9,9.4-2.9c3.3,0,6.6,1,9.4,2.9c2.8,1.9,4.9,4.5,6.2,7.6H402.2z"/>
	<path class="st0" d="M383.7,77.2l0-0.6h-0.6l-12.4,0h-0.6v0.6l0,77.3v0.6h0.6h12.4h0.6v-0.6L383.7,77.2z"/>
	<path class="st0" d="M281.1,95c-3.9,0-7.8,0.7-11.4,2.2c-3.6,1.5-6.9,3.7-9.7,6.5c-2.8,2.8-4.9,6.1-6.4,9.7
		c-1.5,3.6-2.2,7.5-2.1,11.5l0,0v30.2h13.2v-30.2c-0.1-2.3,0.3-4.6,1.1-6.8c0.8-2.2,2-4.1,3.6-5.8c1.6-1.5,3.4-2.6,5.4-3.4
		c2-0.8,4.1-1.1,6.3-1h0.6V95H281.1z"/>
	<path class="st0" d="M357.4,103.2c-4.2-4.3-9.7-7.1-15.6-8.3c-5.9-1.2-12-0.6-17.6,1.7c-5.6,2.3-10.3,6.2-13.6,11.2
		c-3.3,5-5.1,10.9-5.1,16.9v47.9h13.5v-17.5h16.9c6,0,11.9-1.8,16.9-5.1c5-3.3,8.9-8.1,11.2-13.6c2.3-5.6,2.9-11.7,1.7-17.6
		C364.6,112.9,361.7,107.5,357.4,103.2L357.4,103.2z M319,124.7c0-4.5,1.8-8.8,4.9-11.9c3.2-3.2,7.5-4.9,11.9-4.9
		c4.5,0,8.8,1.8,11.9,4.9c3.2,3.2,4.9,7.5,4.9,11.9c0,4.5-1.8,8.8-5,11.9c-3.2,3.2-7.5,4.9-11.9,5H319V124.7z"/>
	<path class="st0" d="M300.3,95l-0.6,0h-12.4h-0.6l0,0.6v58.9l0,0.6h13.6v-0.6V95.6V95z"/>
	<path class="st0" d="M480.7,95.3h-13.6v0.6l-0.1,47.3c0,4.1-1.6,8-4.3,10.9c-2.8,3-6.6,4.7-10.7,5h-0.5v13.7h0.6
		c7.4-0.3,14.5-3.3,19.8-8.5c5.3-5.2,8.4-12.3,8.8-19.7c0-0.2,0-0.3,0-0.5L480.7,95.3L480.7,95.3z M480.1,76.6h-13v14.3h13.6V76.6
		H480.1z"/>
	<path class="st0" d="M251.7,107.9h0.6v-0.6V95.6V95h-0.6h-14.1l0-17.8v-0.6H237h-0.8h-11.7H224v0.6V95h-14.7v12.8H224v46.6v0.6
		h13.6v-0.6v-46.6H251.7z"/>
</g>
</svg>
