<?xml version="1.0" encoding="utf-8"?>
<!-- Generator: Adobe Illustrator 28.0.0, SVG Export Plug-In . SVG Version: 6.00 Build 0)  -->
<svg version="1.1" id="Logo" xmlns="http://www.w3.org/2000/svg" xmlns:xlink="http://www.w3.org/1999/xlink" x="0px" y="0px"
	 viewBox="0 0 1298.6 490.2" style="enable-background:new 0 0 1298.6 490.2;" xml:space="preserve">
<style type="text/css">
	.st0{fill:#FFFFFF;}
</style>
<path class="st0" d="M205.7,404c59.1,0,104.8-45.7,104.8-113.4V27.2h64V454h-63.4v-39.6c-28.7,29.9-68.3,46.9-112.8,46.9
	c-91.5,0-161.6-66.5-161.6-167v-267h64v263.3C100.8,359.5,145.9,404,205.7,404"/>
<path class="st0" d="M422.1,27.2h61.6v155.5c29-29.7,68.8-46.4,110.3-46.3c91.4,0,163.4,72.5,163.4,162.8
	c0,89.6-71.9,162.2-163.4,162.2c-41.7,0.1-81.7-16.6-111-46.3v39h-61L422.1,27.2z M589.7,407c58.5,0,106.7-48.2,106.7-107.9
	c0-60.4-48.2-107.9-106.7-107.9c-59.1,0-107.3,47.5-107.3,107.9C482.4,358.9,530,407,589.7,407"/>
<path class="st0" d="M941.5,137c89.6,0,155.5,68.9,155.5,161.6v20.1H844c8.5,50.6,50.6,88.4,103,88.4c36,0,66.5-14.6,89.6-45.7
	l44.5,32.9c-31.1,41.5-77.4,66.5-134.1,66.5c-93.3,0-165.2-69.5-165.2-162.2C781.8,210.7,850.7,137,941.5,137 M845.2,269.9h189.6
	c-10.4-47.6-48.8-79.3-94.5-79.3S856.2,222.3,845.2,269.9"/>
<path class="st0" d="M1262.2,197.9c-40.2,0-69.5,31.1-69.5,79.2v176.8h-61.6V143.1h61v38.4c15.2-25,40.2-40.8,74.4-40.8h21.3V198
	L1262.2,197.9z"/>
</svg>
