<?xml version="1.0" encoding="utf-8"?>
<!-- Generator: Adobe Illustrator 28.0.0, SVG Export Plug-In . SVG Version: 6.00 Build 0)  -->
<svg version="1.1" id="Layer_1" xmlns="http://www.w3.org/2000/svg" xmlns:xlink="http://www.w3.org/1999/xlink" x="0px" y="0px"
	 viewBox="0 0 386.1 415.7" style="enable-background:new 0 0 386.1 415.7;" xml:space="preserve">
<style type="text/css">
	.st0{fill:none;}
	.st1{fill:#FFFFFF;}
</style>
<g id="Layer_1_00000071540627509686688610000009505245456879954604_">
	<rect x="25" y="0" class="st0" width="336.1" height="415.7"/>
</g>
<g id="Artwork">
	<g>
		<path class="st1" d="M264.6,38.6l-2.4,8.4c16.9,6.4,24.5,18.5,24.5,18.5l5.8,1.5c-5.3-21.2-27.9-29-27.9-29L264.6,38.6z"/>
		<path class="st1" d="M303.3,161.8c0-0.5,0,0.5,0,0.5s-3.5-39.8-6.2-46.5l-11,3.7l-1.6-7l16-5.4l-4.8-22.4l-13,2.8
			c0,0-3.8-9.5-8.5-14.5l-11,5.5c0,0,11.1,22.7,21,61.8l-8.9,4.3l-14.7-54.5c0,0-30.1-2.7-25.1-21.7c0,0-8.4-5.1-9.4-16.2
			c0,0-45.4,6.9-92.4,100.1l-18.1-12.1l-13.4,5.5l17.9,11.4c0,0-11.1,0.1-24.9-11.4c0,0-6.7,1.1-10-0.5c0,0,29-1.3,54.9-30.8
			c0,0-7.6,4.2-13.6,4.3c0,0,21.9-20.4,31.5-32.1c0,0,4.3-6,11.9-11l-3.9,1.2c0,0,22.6-32.9,72.2-32.9c0,0,1.8,1.8-0.6,5.6
			c0,0-4.6,9.5,5.1,17.3c0,0-4.7,8.7,1.6,12c0,0,3.6,4.6,12.5-1.8l23.1-11.8c0,0-5.4-6.6-12.9-8.7c0,0-24.3,14.5-18.3-6.8
			c0,0,7-20,21-29.4c0,0-10.5,0.6-21.2,8.3c0,0-12.4,8.7-7.7-2.6l2.9-4.7c0,0-5.4-0.6-20.1,15.4c0,0-27.1-2.4-68.9,28.5
			c0,0-11.9,11.7-19.4,13.8c0,0,4.9,2.5,11,2.6c0,0-32.9,35.4-45.9,42.8c0,0,3.3,0.6,7.9,1c0,0-11.4,8.9-13,10.5c0,0-8.9,1.7-12.2,5
			c0,0-1.8-0.6-5.2-1.9c-3.4-1.3-4.5,0.8-4.5,0.8s71.8,38.7,112.6,117.7c0,0,12.1-0.5,7.4-13.9c0,0-17.4-32-40.4-51.7
			c0,0,2.9-0.5,7.1-0.7c6.8,7.5,26.5,28.6,35.1,47.4c0.5,1,3.1,4,3.7,3.7c8.1-4.8,14.8-21.3,13.6-24.2c-2.9-6.7-2.5-5-6.8-10.7
			l1.4-24.3c19.6-3.5,39.9-9.5,50.5-19.5c0,0-1.7-4.7-3.3-6.2c0,0-18.9,13.2-45.1,15.3c0,0,0.1-23.7,14.8-34.6
			c0,0-6.2-18.3,7.3-35.4c0,0-9.4,36.8,21.4,38.8c0,0,4.3,6.1,7,7l2.1-0.9l3,5.2l24.6-3.5c0,0-6.6,4.8-5,18.1h-5
			c0,0-2.3-13-10.5-10.5c0,0-9.3,0-4,13.6c0,0,4.4,6.6,5.8,0.6c0,0,1.5-3.5,6.7,0.9c0,0,8.1,4.2,12,5.6c0,0,5.3,1.3,4.3-4.2
			c0,0-5.2-7.4,6.2-10.1l0.8,2.8c0,0-3.6,2.4,0,4.4C303.7,172.5,303.3,162.3,303.3,161.8z"/>
	</g>
	<g>
		<g>
			<g>
				<path class="st1" d="M313.1,387.1c0,2.5-2.2,4.5-4.9,4.5c-2.6,0-4.9-2-4.9-4.5c0-2.5,2.2-4.5,4.9-4.5
					C310.9,382.6,313.1,384.5,313.1,387.1z M304.2,387.1c0,2.1,1.8,3.8,4,3.8c2.3,0,4.1-1.7,4.1-3.8c0-2.1-1.8-3.8-4.1-3.8
					C306.1,383.3,304.2,385,304.2,387.1z M306.5,384.6h1.9c0.6,0,1.9,0,1.9,1.3c0,0.9-0.6,1.1-1,1.2c0.8,0,0.8,0.5,0.9,1.1
					c0,0.4,0.1,1.1,0.3,1.3h-1.2c0-0.2-0.2-1.5-0.2-1.6c-0.1-0.3-0.2-0.4-0.6-0.4h-0.9v2h-1V384.6z M307.5,386.8h0.9
					c0.7,0,0.8-0.4,0.8-0.7c0-0.7-0.5-0.7-0.8-0.7h-0.9L307.5,386.8L307.5,386.8z"/>
			</g>
		</g>
		<g>
			<path class="st1" d="M104.3,316.1H54.8v79h49.5c23.3,0,37.3-14.8,37.3-39.5C141.6,330.9,127.6,316.1,104.3,316.1z M91.9,378.7
				H78.3v-46.2h13.7c19.3,0,27.1,6.7,27.1,23.1C119,372,111.2,378.7,91.9,378.7z"/>
			<path class="st1" d="M192.6,365.2l0.1,0.3c0.3,0.7,22.1,29.5,22.1,29.5H239L216,365.2l0.7-0.3c13.4-5.2,19.8-13,19.8-24.1
				c0-15.5-10.9-24.7-29.3-24.7h-53.8v79h22l-0.1-29.8H192.6z M175.2,330.3h25.1c9.7,0,14.4,3.4,14.4,10.4c0,6.6-4.8,10.4-13.1,10.4
				h-26.4V330.3z"/>
			<path class="st1" d="M298.7,365.8l0.1-0.1l9-13.4l24.3-36.2h-25.3L287.3,345l-22.4-28.9h-26.7l37.2,50.4v22.7
				c0,0.4-0.1,0.8-0.1,1.3v4.6h23.6v-4.6c-0.1-0.4-0.1-0.8-0.1-1.2L298.7,365.8L298.7,365.8z"/>
			<g>
				<path class="st1" d="M266.9,263.3c-11.6,0-21.4,9.7-21.4,21.2c0,11.6,9.8,21.5,21.4,21.5c11.8,0,21.7-9.7,21.7-21.3
					C288.6,273.1,278.6,263.3,266.9,263.3z M278.6,284.6c0,6.2-5.5,11.7-11.7,11.7c-6.1,0-11.5-5.5-11.5-11.9
					c0-6.3,5.3-11.6,11.5-11.6C273.1,272.9,278.6,278.4,278.6,284.6z"/>
				<path class="st1" d="M88.9,289.6c-1,1.8-2,3-2.8,3.8c-1.8,2-4.1,3.4-7,3.9c-3.2,0.6-6.4-0.1-9.1-1.9c-2.8-1.9-4.7-4.9-5.4-8.5
					c-1.2-7,3.2-13.5,10-14.7c4.3-0.8,8,0.5,10.9,3.6c0.6,0.6,1.4,1.5,2.3,2.5l8.1-5.8l-0.2-0.2c-4.9-7.4-13.7-10.9-22.8-9.3
					c-12.6,2.2-20.8,13.6-18.6,25.8c1,5.9,4.3,11,9.2,14.3c3.8,2.5,8.2,3.9,12.8,3.9c1.4,0,2.8-0.1,4.3-0.4
					c7.7-1.4,14.1-6.3,17.1-13.2L98,293L88.9,289.6z"/>
				<path class="st1" d="M123.6,263.9l-8.4,0l-17.5,41l-0.2,0.4h10.8l3.1-8.2h15.8l3.1,8.2h10.8L123.6,263.9z M114.4,289.1l5-13.3
					l5,13.3H114.4z"/>
				<path class="st1" d="M167.7,290.6c6-1.6,10.2-7,10.2-13.3c0-8.1-6-13.4-15.3-13.4l-16.4,0l0,41.5h10.5v-14l9.7,13.9l0.1,0.1h12
					L167.7,290.6z M162.4,283.1h-5.6v-8.6l0-2.3h5.6c2.6,0,5.2,1.9,5.2,5.5C167.6,281.4,164.9,283.1,162.4,283.1z"/>
				<polygon class="st1" points="195.7,296.6 195.7,263.9 185.1,263.9 185.1,305.4 212.8,305.4 212.8,296.6 				"/>
				<polygon class="st1" points="244.4,272.3 244.4,263.9 208.2,263.9 208.2,272.2 221,272.3 221,305.4 231.6,305.4 231.5,272.3 
									"/>
				<polygon class="st1" points="331.9,263.9 321.4,263.9 321.4,288.7 304,264 303.9,263.9 293.4,263.9 293.5,305.4 304,305.4 
					304,280.6 321.4,305.2 321.5,305.4 332,305.4 				"/>
			</g>
		</g>
	</g>
</g>
</svg>
