<?xml version="1.0" encoding="utf-8"?>
<!-- Generator: Adobe Illustrator 28.0.0, SVG Export Plug-In . SVG Version: 6.00 Build 0)  -->
<svg version="1.1" id="Layer_1" xmlns="http://www.w3.org/2000/svg" xmlns:xlink="http://www.w3.org/1999/xlink" x="0px" y="0px"
	 viewBox="0 0 379.1 250.7" style="enable-background:new 0 0 379.1 250.7;" xml:space="preserve">
<style type="text/css">
	.st0{fill:#FFFFFF;}
</style>
<path class="st0" d="M0,18.2h40.6v14.3H14.8v35.1h20v13.5h-20v36h34.9v14.3H0V18.2z"/>
<path class="st0" d="M67.4,18.2v76.6h25.4v13.5H52.6V18.2H67.4L67.4,18.2z"/>
<path class="st0" d="M101.2,18.2h37.7v14.3H116V56h20v13.5h-20v24.5h23.3v14.3h-38.1L101.2,18.2L101.2,18.2z"/>
<path class="st0" d="M165.7,18.2V58l17.6-39.8h15.9l-17.8,39l35.6,90.7h-16.7L171,70.8l-5.3,10.9v26.5h-14.8V18.2H165.7z"/>
<path class="st0" d="M257.5,0v14.3h-32.8v94h-14.8v-94h-32.8V0H257.5z"/>
<path class="st0" d="M254.7,18.2c1.5,0,3.3,0,5.4,0.1c2,0.1,4.1,0.3,6.2,0.8s4.2,1.1,6.2,2.1s3.8,2.3,5.5,4.1
	c1.6,1.7,2.9,3.9,3.9,6.6s1.5,6,1.5,10V50c0,2.8-0.3,5.2-1,7.3c-0.7,2.2-1.6,4-2.6,5.5s-2.2,2.8-3.5,3.8s-2.6,1.7-3.9,2.1l13.5,39.6
	h-15.5L258.6,72h-6.1v36.3h-14.8V18.2H254.7L254.7,18.2z M252.5,58.5h6.7c1.4,0,2.6-0.2,3.8-0.6c1.2-0.4,2.1-1.1,3-2
	c0.8-0.9,1.5-2,1.9-3.3c0.5-1.3,0.7-2.8,0.7-4.5v-6.8c0-2.2-0.3-3.8-1-5.1c-0.6-1.2-1.5-2.2-2.5-2.8s-2.1-1.1-3.3-1.3
	c-1.2-0.2-2.2-0.3-3.3-0.3h-6.1L252.5,58.5L252.5,58.5z"/>
<path class="st0" d="M310.3,18.2v90.2h-14.8V18.2H310.3z"/>
<path class="st0" d="M339.3,18.2v52.7l23.4-52.7h16L355,70.1l24.1,61.4h-16.4l-18.2-47.7l-5.3,10.9v36.8h-14.8V18.2H339.3
	L339.3,18.2z"/>
<path class="st0" d="M125,140.3h40.6v14.3h-25.8v32.2h20v13.5h-20v36H182v14.3h-57C125,250.7,125,140.3,125,140.3z"/>
<path class="st0" d="M174.8,153.5h37.8v14.3h-22.9v17.8h17.1v13.5h-17.1v18.7h23.3v14.3h-38.1L174.8,153.5L174.8,153.5z"/>
<path class="st0" d="M237.7,131.5v91.5h44.4v13.5h-59.2v-105L237.7,131.5L237.7,131.5z"/>
</svg>
