<?xml version="1.0" encoding="UTF-8"?>
<svg id="Layer_2" data-name="Layer 2" xmlns="http://www.w3.org/2000/svg" viewBox="0 0 2235.42 1297.62">
  <defs>
    <style>
      .cls-1 {
        fill-rule: evenodd;
      }

      .cls-1, .cls-2 {
        fill: #fff;
        stroke-width: 0px;
      }
    </style>
  </defs>
  <g id="_ÎÓÈ_1" data-name="—ÎÓÈ_1">
    <g>
      <path class="cls-2" d="m1599.83,213.43h-94.66v185.79c0,60.56,64.68,112.3,144.64,112.3s149.93-52.33,149.93-112.3v-185.79h-94.66v167.57c0,27.63-23.52,49.98-52.33,49.98s-52.92-22.34-52.92-50.56v-166.98Z"/>
      <path class="cls-2" d="m98.19,111.12v385.7H0V31.75h176.98c77.02,0,139.93,62.32,139.93,138.17,0,64.68-45.27,118.77-106.42,132.88l136.41,194.03h-117l-98.19-152.28v-111.12h22.93c36.45,0,65.85-27.05,65.85-60.56s-27.63-61.74-64.09-61.74h-58.21Z"/>
      <path class="cls-2" d="m1001.88,496.82V9.41h-92.9v229.89c-24.69-24.11-55.86-37.63-91.72-37.63-76.43,0-138.76,67.62-138.76,151.69s62.32,151.69,138.76,151.69c36.45,0,70.55-14.11,91.72-39.98v31.75h92.9Zm-158.16-71.14c-37.63,0-68.2-33.51-68.2-74.67s30.57-74.67,68.2-74.67,68.2,33.51,68.2,74.67c-.59,41.16-31.16,74.67-68.2,74.67"/>
      <path class="cls-2" d="m1392.28,244c25.28-23.52,41.16-55.27,41.16-89.96,0-31.75-12.35-60.56-33.51-83.49-22.34-24.11-61.15-38.81-114.06-38.81h-158.16v465.07h204.61c78.2-1.18,141.7-60.56,141.7-133.47-.59-52.92-19.4-90.55-81.73-119.36m-78.79,172.27h-88.78V115.24h62.32c27.05,0,49.98,20.58,49.98,48.21s-22.93,49.98-49.98,49.98h-32.93v84.08h60.56c32.93,0,57.62,27.05,57.62,59.97-1.18,32.93-22.93,57.03-58.8,58.8"/>
      <path class="cls-2" d="m429.21,318.67c0-31.16,25.28-56.44,56.44-56.44s56.44,25.28,56.44,56.44h-112.89Zm204.61,52.92c.59-6.47,1.18-12.94,1.18-19.4,1.18-100.54-64.68-155.22-149.34-155.22s-153.46,69.38-153.46,155.22,68.79,155.22,153.46,155.22c64.68,0,115.24-29.4,141.11-75.26l-75.26-34.69c-9.41,20.58-31.75,35.28-58.21,35.28-34.69,0-63.5-26.46-63.5-61.15h204.02"/>
      <rect class="cls-2" x="1843.25" y="9.41" width="92.9" height="487.42"/>
      <rect class="cls-2" x="2001.41" y="9.41" width="92.9" height="487.42"/>
      <path class="cls-1" d="m872.53,757.88c3.53,8.82,3.53,20.58,1.18,29.99-.59.59-1.18.59-1.76,0-1.76-8.23-3.53-16.46-6.47-24.69-1.76-4.7-7.64-8.82-5.29-14.11,1.18-1.18,3.53-1.18,5.29-.59,2.94,2.94,4.7,5.88,7.06,9.41m94.07,82.31c6.47,7.64,11.17,15.87,8.82,25.87-1.18,1.76-.59,5.29-3.53,5.88-1.18.59-2.35-.59-2.35-1.76-.59-5.29-.59-11.17-3.53-15.29-3.53-3.53-7.64-10.58-13.52-10.58-4.12,1.18-7.06,5.88-9.41,8.82,0,.59-.59.59-1.18,0-2.35-5.88,2.35-10.58,4.12-15.29,3.53-3.53,2.94-13.52,10.58-10.58,5.29,3.53,6.47,9.41,10,12.94m-12.35,69.97c.59,3.53.59,8.82-2.94,11.17-3.53,1.18-8.23,1.76-12.35,1.18-1.18-.59-2.35-1.18-1.76-2.35,1.76-5.29,7.06-11.17,12.94-12.35,1.18,0,3.53,0,4.12,2.35m-429.21-214.6c14.11,3.53,29.4,3.53,39.98,14.7,5.88,7.06,6.47,19.4,1.76,26.46-8.23,14.11-24.69,21.17-34.69,33.51-10,8.23-13.52,21.17-10.58,34.1,3.53,11.17,14.7,18.81,25.87,19.4,17.64.59,30.57-8.23,44.68-16.46,14.11-10,27.05-22.93,42.92-27.05,10.58-3.53,22.34-1.76,32.93-5.88,11.17-2.35,19.99-11.76,28.81-19.99,10-8.23,21.75-12.94,34.69-12.35,11.76,1.76,18.23-8.82,26.46-15.87,13.52-12.35,31.16-13.52,47.04-20.58,11.17-3.53,19.99-11.76,30.57-17.05,10-4.12,23.52-5.29,33.51-1.18,6.47,2.94,13.52,5.88,19.4,10.58l47.62,39.98c.59,1.76,2.35,2.94,3.53,3.53,13.52,16.46,27.63,32.34,38.81,50.56,3.53,6.47,5.29,12.94,7.06,19.99,2.35,27.05,9.41,50.56,18.23,74.08,2.35,3.53,7.06,6.47,9.41,10,7.64,10.58,12.35,24.11,24.69,31.16l7.06,3.53c.59.59.59,1.76,0,2.35l-1.18,1.18c-14.7,2.35-25.87-6.47-33.51-17.05-4.7-9.41-11.17-19.4-21.75-23.52-.59,0-1.18.59-1.18.59,1.18,3.53,4.7,5.88,5.88,8.82,4.12,6.47,7.64,13.52,9.41,20.58,2.35,7.64,10.58,12.94,17.05,17.05l9.41,4.7c1.18.59,1.76,2.35.59,3.53l-1.18.59c-15.88.59-29.99-4.7-41.16-16.46-2.35-2.94-5.88-5.29-10-5.29-7.06,6.47-14.11,12.35-23.52,12.94-10-1.76-20.58-1.76-29.4,1.76-8.23,2.94-16.46,6.47-25.28,6.47-4.12,0-8.82-1.76-10.58-5.88,0-5.29-3.53-11.17-.59-16.46l5.88-8.82c0-1.18-.59-2.35-1.76-2.35-2.35-.59-6.47,3.53-7.64-.59.59-8.82,9.41-14.7,15.29-20.58,1.18-7.06,4.12-13.52,9.41-19.4,0-.59-.59-1.76-1.76-1.76-7.64,1.18-15.29,2.94-23.52,2.94-6.47,3.53-14.7,5.88-22.34,3.53-1.76-1.18-1.18-2.94-.59-4.12,8.23-11.17,11.17-25.28,8.82-38.81-.59-.59-.59-1.76-1.76-1.76s-1.18,1.18-1.76,1.76c-1.76,12.94-5.88,22.93-12.94,34.1-5.29,5.29-13.52,5.29-20.58,7.06-1.76.59-3.53,2.35-3.53,4.12,0,4.7,2.94,7.64,4.7,11.76l15.29,28.22c.59,7.64-2.94,15.29-4.7,22.34.59,1.18,1.76.59,2.94,0,5.29-4.7,8.82-11.17,11.17-18.23.59-2.94-.59-6.47-1.76-8.82l-15.87-31.75c1.18-1.76,3.53-1.76,5.29-2.35,3.53,0,7.06,1.76,10.58,2.94,3.53,9.41,7.64,19.4,14.11,27.63,1.18,5.29,2.94,12.35-.59,16.46-3.53,7.06-7.06,12.94-11.76,19.4-4.12,4.12-10,3.53-15.87,4.12h-1.76c-14.11,7.64-28.81,12.35-44.1,17.05-6.47,2.94-14.11.59-19.4-3.53-5.29-4.12-7.64-10-11.17-15.29-4.12-5.29-10.58-.59-15.29-3.53-4.12-6.47-8.23-12.94-11.76-19.99,0-1.76,0-3.53,1.76-4.7,5.29-1.76,11.17-1.76,17.05-2.35,5.29-.59,11.17.59,14.7,4.12,7.06,8.23,10,19.4,20.58,24.69,8.23.59,15.29-1.76,22.34-5.29,4.12-2.35,8.82-5.88,8.82-11.17-.59-10.58-7.64-18.81-16.46-24.69-8.82-4.7-18.23-11.17-24.69-19.4-3.53-4.7-4.12-10-5.88-14.7-.59-1.18-2.94-1.18-3.53-.59-3.53,2.94-.59,8.23-.59,11.76.59,2.35,1.76,5.29.59,7.06-5.29,4.12-12.35,1.76-18.81,2.35-12.93-.59-25.28-5.88-38.81-4.7-12.94.59-30.57,9.41-39.98-3.53-4.7-12.35-3.53-27.05-1.18-39.39,0-1.18-1.18-2.35-2.35-2.35-1.18-.59-2.35,0-2.94,1.18-3.53,12.35-4.12,25.87-7.06,38.81-4.7,11.17-12.94,22.93-24.11,28.81-10,5.29-21.75,7.06-34.1,8.23-22.34.59-42.92,4.7-57.03,24.11-1.18,1.76-2.94,3.53-2.35,5.88.59.59,2.35,1.18,2.94.59,15.29-17.05,34.69-24.11,57.03-22.93,21.17,0,42.33-3.53,55.86-21.75,3.53-4.12,5.88-8.23,8.82-12.93,2.35,0,4.12,2.94,5.88,4.12.59,6.47-4.7,10.58-7.06,15.87-2.94,5.88-5.88,12.93-11.76,16.46-7.06,1.76-12.93,6.47-19.4,10-6.47,2.94-14.7,4.12-22.34,2.35-9.41-1.76-22.34-4.12-31.75,0-4.7,2.94-8.82,8.23-13.52,11.17-6.47,2.94-12.35,8.23-19.99,7.64-5.29-1.18-11.76-4.7-16.46,0-5.88,5.29-7.06,14.7-14.7,18.23-8.82,4.7-18.23,0-27.05-.59,1.18-8.82,2.35-17.05,8.23-23.52,3.53-.59,6.47-1.18,9.41-3.53,3.53-2.94,5.88-7.06,8.23-11.17,7.64-4.7,16.46-8.23,21.17-16.46,3.53-7.64,3.53-14.7,9.41-21.75l2.94-1.18,15.87-1.18c6.47-2.94,12.35-5.88,18.23-10.58,1.76-1.76,2.35-4.7,1.76-7.64-2.94-7.64-5.29-12.94-7.06-21.17-1.76-8.23-.59-16.46-1.76-25.87-.59-.59-1.18-2.35-2.35-2.35-10.58,2.35-20.58,5.29-32.34,3.53-15.87-1.76-32.34-12.35-38.22-28.22-5.29-13.52-4.12-32.93,5.88-44.1,9.41-11.76,21.17-20.58,32.93-30.57,1.76-1.18,1.76-3.53,2.35-5.29,0-2.35-2.35-4.12-4.12-5.29-7.06-1.76-15.29.59-22.34-2.35-12.35-4.12-21.75-15.87-23.52-28.81-.59-5.88.59-10.58,3.53-15.29,9.41,8.23,16.46,15.29,25.28,17.64m-35.28,262.82v1.76c-2.94,7.06-4.7,15.29-7.06,23.52-5.29-.59-10-2.35-14.11-4.12-1.18-1.18,0-2.35,0-3.53,5.29-4.7,3.53-10.58,4.7-17.05.59-3.53,4.12-6.47,7.64-8.23,4.12.59,6.47,4.7,8.82,7.64m25.87-24.69c-2.94,5.88-7.06,12.93-13.52,16.46-2.35.59-5.29.59-7.64-.59-1.18-1.18-3.53-2.35-3.53-4.7.59-2.35-.59-5.29,1.76-6.47,4.7-2.94,9.41-5.88,14.11-10,1.18-.59,3.53-1.18,4.12,0,2.35,1.76,4.12,2.94,4.7,5.29m294.57-2.35c.59,2.35,4.12,5.29,1.76,7.64-4.7,3.53-10,5.88-16.46,5.29-4.7-3.53-4.12-10-8.23-14.7-1.18-3.53-6.47-3.53-5.29-7.06l1.76-1.18c6.47,0,12.94,0,19.4-1.18,6.47-.59,4.7,7.06,7.06,11.17"/>
      <path class="cls-1" d="m1181.8,835.49c3.53,4.7,6.47,9.41,8.82,15.29.59,1.18,0,2.35-.59,3.53-.59,1.18-1.76,2.35-3.53,1.18-4.12-1.18-3.53-7.64-8.82-7.06-3.53,0-5.88,2.94-8.82,4.7-5.29,4.7-12.35,9.41-13.52,16.46-1.18,2.35-.59,6.47-2.94,7.64-1.18.59-2.94-.59-2.94-1.76-.59-9.41,2.35-18.23,8.82-24.69,6.47-5.29,11.17-12.94,16.46-19.4,3.53-.59,5.88,1.76,7.06,4.12m2.35,78.2c1.18,2.35,3.53,5.29,1.76,8.23-2.35,1.76-6.47.59-9.41.59-3.53-1.76-4.7-6.47-4.7-10.58,0-1.18,0-1.76,1.18-2.94,4.12,0,8.23,1.18,11.17,4.7m88.19-179.92c1.76,2.35,0,4.7-1.18,6.47-8.23,7.64-18.23,15.87-24.11,25.28-2.35,2.94-4.12,6.47-5.29,10,0,.59-.59.59-1.18.59-1.76-4.7.59-10,1.76-14.7,4.12-11.17,13.52-21.75,23.52-29.4,1.18-.59,5.29-1.18,6.47,1.76m33.51-37.63c6.47,4.12,8.82,12.94,16.46,14.7,12.94,2.94,25.87,5.88,37.63,11.76,8.23,4.12,15.87,10,23.52,16.46,7.06,3.53,15.87,3.53,23.52,5.88,11.17,2.94,19.99,11.17,29.99,17.64,12.94,10,31.16,8.82,45.86,15.29,23.52,7.64,42.33,25.87,64.09,36.45,11.17,5.88,28.22,8.23,39.39,1.76,7.64-5.29,12.35-12.35,10.58-22.34-4.12-24.11-30.57-36.45-42.92-56.44-2.35-4.7-4.12-11.17-2.94-16.46,4.7-11.76,17.05-18.23,27.63-22.34,8.23-4.12,18.81-2.94,26.46-7.64,2.94-1.76,5.29-4.12,7.06-5.88,1.76,0,1.76,1.76,2.35,2.94,2.35,14.11,0,28.81-12.35,37.04-4.7,3.53-10.58,4.7-15.88,5.88-4.7,1.76-14.11-1.76-13.52,6.47,1.18,4.12,4.7,6.47,7.64,9.41,16.46,13.52,31.75,31.16,33.51,52.33.59,16.46-10.58,30.57-24.69,37.63-10.58,4.12-23.52,5.88-34.69,2.94-2.94-.59-7.64-3.53-10,.59-.59,4.7,2.35,8.23,2.35,12.35,1.18,7.64,1.18,17.64-1.18,25.28-1.18,5.88-7.06,12.93-1.76,18.81,5.29,8.23,15.87,5.88,24.69,7.06,4.7.59,6.47,5.88,7.64,9.41,1.76,4.7,1.76,10,3.53,13.52,0,8.82,10,12.35,14.7,18.23,5.88,6.47,11.17,17.64,21.17,17.05,3.53,7.06,5.29,13.52,6.47,21.75l-1.18,1.18c-8.23,0-19.4,2.35-25.28-3.53-7.06-4.7-9.41-17.64-19.99-14.11-4.7,3.53-11.17,4.7-16.46,2.35-5.29-1.76-8.82-6.47-13.52-9.41-14.11-10.58-32.93-15.88-51.15-11.76-10.58,2.94-18.81-4.7-27.05-9.41-11.17-4.7-14.11-16.46-16.46-26.46l-1.76-12.35c0-1.18,1.18-2.35,2.35-2.94h1.76c6.47,14.7,18.81,31.16,34.69,36.45,14.7,5.88,28.22-1.76,44.1,1.18,14.7,1.76,26.46,11.17,37.63,19.99,1.18,0,1.76-.59,2.35-1.76v-1.18c-13.52-17.05-32.34-25.87-54.09-24.11-18.23,3.53-35.87-2.35-46.45-17.64-5.88-8.82-10-18.23-11.76-28.22-1.76-11.76-4.12-24.69-8.23-35.28-1.18-.59-2.35-1.76-3.53-1.18l-1.18,1.76c1.76,11.17,5.29,24.69,1.18,36.45-2.94,9.41-12.35,12.94-21.17,13.52-8.82.59-17.05-1.18-26.46-1.18-21.17-.59-39.98,7.64-61.74,5.88,1.76-5.29,5.29-10.58,3.53-16.46-.59-1.18-2.35-1.18-3.53-1.18-4.12,2.35-3.53,7.64-5.88,11.17-4.7,7.64-13.52,14.7-22.34,16.46-6.47,4.7-12.35,11.17-17.64,17.05-1.76,1.76-1.76,5.29-1.18,7.64,4.12,10.58,16.46,11.76,25.87,14.7,4.7.59,8.82-1.18,11.17-5.29,4.12-6.47,4.7-17.05,14.11-18.23h20.58c1.76.59,2.94,1.76,4.12,3.53l-.59,2.94c-4.7,5.29-6.47,12.93-12.35,16.46-3.53,1.18-7.64,0-10,2.94-1.18,7.06-2.94,14.7-10,18.23-5.29,4.7-12.93,2.35-18.81.59-11.17-4.12-22.34-6.47-33.51-10-4.7-1.18-6.47-7.06-11.76-8.23-4.7-1.18-10,2.35-14.11-1.76-2.35-5.29-3.53-8.82-4.7-14.7-1.76-3.53-2.94-7.64-3.53-11.76-.59-3.53,0-5.88,1.18-8.82l15.29-27.63c1.18-1.76,2.35-3.53,4.12-4.12,3.53.59,7.64,2.35,11.17,4.12l-.59,1.76-15.87,24.11c-3.53,7.64,0,16.46,3.53,22.93.59.59,1.18,1.76,1.76,1.18-.59-4.7-1.18-9.41,0-14.7,1.18-4.7,4.12-8.82,6.47-12.94l12.35-18.23c1.18-2.94,1.18-7.64-1.18-10.58-5.29-5.29-12.94-7.06-17.64-14.11-10-13.52-11.17-29.4-12.35-46.45,0-1.18-1.18-2.94-2.94-3.53-1.18-.59-2.35,1.18-2.94,1.76-2.94,11.17-1.18,24.69,1.76,34.69,1.76,7.64,5.29,15.29,8.82,22.34.59,1.18-.59,2.94-1.76,3.53-8.23.59-16.46,0-24.11-1.18-10.58-1.76-18.23-10-27.05-16.46-1.18-.59-1.76.59-2.35,1.18,2.35,11.76,15.29,18.81,19.4,29.4,2.35,8.82,11.17,15.29,12.94,24.69,0,1.18-1.18,2.94-2.35,3.53-2.94.59-5.88-1.18-8.82.59-.59,5.29,2.94,10.58.59,15.29-2.94,4.7-7.06,10-12.35,10-10.58-3.53-21.17-8.23-31.75-11.17-7.64-.59-15.29.59-22.34,1.18-7.06-1.18-11.76-7.64-17.05-11.17-1.76-.59-3.53-.59-4.7.59-11.76,11.76-24.69,24.69-42.33,24.11-1.18,0-1.76-1.18-1.76-2.35v-1.18c7.64-7.06,17.05-14.11,20.58-24.11,2.35-8.23,9.41-14.11,12.35-21.75.59-1.18-.59-1.76-1.76-2.35l-1.76,1.18c-8.82,8.82-15.29,18.81-21.75,28.22-6.47,6.47-15.87,10.58-25.87,8.23-1.18-.59-1.18-2.35-.59-3.53,36.45-22.34,40.57-62.32,50.56-98.78,7.06-24.11,12.35-48.8,31.16-68.2,28.22-31.16,63.5-49.39,94.66-76.43,4.7-4.12,9.41-8.23,15.29-8.23,15.29-1.18,27.05,4.7,37.63,13.52m335.72,259.88c2.94,4.12,1.76,10.58,2.94,15.29.59,3.53,5.29,6.47,2.94,10l-12.94,4.12c-2.35,0-1.18-2.94-2.35-4.12-1.18-7.64-2.94-12.94-5.29-19.99-.59-4.12,3.53-7.06,6.47-9.41,2.94-1.18,5.29,2.35,8.23,4.12m-29.99-26.46c4.7,4.12,11.17,7.06,14.7,12.35.59,2.35-1.18,4.7-2.35,6.47-1.76,1.76-4.12,2.94-7.06,2.94s-5.29-1.76-7.06-4.12c-2.94-4.7-7.06-8.82-8.23-13.52,1.76-2.94,5.88-7.64,10-4.12m-283.4-4.7c-.59,5.88-2.35,11.17-4.7,16.46-1.76,3.53-7.06,2.35-10.58,1.76-3.53-1.18-9.41-1.76-10-7.06-.59-4.7,1.76-9.41,4.12-12.94,5.29-.59,11.76.59,17.05-.59,2.35,0,4.12.59,4.12,2.35"/>
      <polygon class="cls-2" points="117.59 1291.16 199.32 1291.16 199.32 1274.11 136.41 1274.11 136.41 1216.49 196.97 1216.49 196.97 1199.43 136.41 1199.43 136.41 1157.1 199.32 1157.1 199.32 1140.05 117.59 1140.05 117.59 1291.16"/>
      <polygon class="cls-2" points="279.28 1291.16 298.09 1291.16 298.09 1178.27 412.16 1297.62 412.16 1140.05 393.34 1140.05 393.34 1251.76 279.28 1132.41 279.28 1291.16"/>
      <polygon class="cls-2" points="493.3 1291.16 574.44 1291.16 574.44 1274.11 512.11 1274.11 512.11 1216.49 572.67 1216.49 572.67 1199.43 512.11 1199.43 512.11 1157.1 574.44 1157.1 574.44 1140.05 493.3 1140.05 493.3 1291.16"/>
      <path class="cls-2" d="m697.91,1225.3c21.75-2.35,36.45-20.58,36.45-42.33,0-14.7-7.06-28.81-19.99-36.45-11.76-7.06-26.46-7.06-39.98-7.06h-22.93v151.69h18.81v-64.09h7.64l44.68,64.09h22.93l-47.62-65.85Zm-27.63-68.79h5.29c18.81,0,41.16,3.53,41.16,27.05s-21.17,27.63-39.98,27.63h-5.88v-54.68h-.59Z"/>
      <path class="cls-2" d="m881.35,1214.72v17.05h39.39c-.59,24.69-25.87,44.68-49.39,44.68-32.93,0-58.8-29.99-58.8-61.74,0-34.1,26.46-61.74,60.56-61.74,18.81,0,37.04,10,47.62,24.69l13.52-12.94c-14.7-18.81-38.22-29.4-61.74-29.4-43.51,0-78.79,35.87-78.79,79.37s34.1,78.79,76.43,78.79,71.73-31.75,71.73-73.49v-5.88h-60.56v.59Z"/>
      <polygon class="cls-2" points="1045.39 1225.3 1045.39 1291.16 1064.2 1291.16 1064.2 1225.3 1113.59 1140.05 1091.84 1140.05 1054.8 1204.73 1017.17 1140.05 995.41 1140.05 1045.39 1225.3"/>
      <path class="cls-2" d="m1243.53,1291.16h30.57c47.62,0,85.84-24.69,85.84-76.43s-38.81-75.26-85.25-75.26h-31.16v151.69Zm18.81-134.05h6.47c38.81,0,71.73,14.11,71.73,58.8s-33.51,58.21-71.73,58.21h-6.47v-117Z"/>
      <path class="cls-2" d="m1478.13,1225.3c21.75-2.35,36.45-20.58,36.45-42.33,0-14.7-7.06-28.81-19.99-36.45-11.76-7.06-26.46-7.06-39.98-7.06h-22.93v151.69h18.81v-64.09h7.64l44.68,64.09h22.93l-47.62-65.85Zm-27.63-68.79h5.29c18.81,0,41.16,3.53,41.16,27.05s-21.17,27.63-39.98,27.63h-5.88v-54.68h-.59Z"/>
      <rect class="cls-2" x="1585.14" y="1140.05" width="18.81" height="151.69"/>
      <polygon class="cls-2" points="1679.8 1291.16 1698.61 1291.16 1698.61 1178.27 1812.09 1297.62 1812.09 1140.05 1793.27 1140.05 1793.27 1251.76 1679.8 1132.41 1679.8 1291.16"/>
      <polygon class="cls-2" points="1907.34 1205.31 1907.34 1140.05 1888.52 1140.05 1888.52 1291.16 1907.34 1291.16 1907.34 1228.24 1914.98 1220.6 1972.01 1291.16 1997.29 1291.16 1927.91 1207.67 1996.12 1140.05 1971.42 1140.05 1907.34 1205.31"/>
      <path class="cls-2" d="m2191.32,6.47c10.58,0,19.4,3.53,26.46,11.17,7.06,7.06,11.17,16.46,11.17,26.46,0,10.58-3.53,19.4-11.17,26.46-7.06,7.64-16.46,11.17-26.46,11.17-10.58,0-19.4-3.53-27.05-11.17-7.06-7.06-11.17-16.46-11.17-26.46,0-10.58,3.53-19.4,11.17-26.46,7.64-7.06,16.46-11.17,27.05-11.17m44.1,37.63c0-11.76-4.12-22.34-12.94-31.16-8.82-8.23-18.81-12.94-31.16-12.94s-22.34,4.12-31.16,12.94-12.94,18.81-12.94,31.16,4.12,22.34,12.94,31.16c8.82,8.82,18.81,12.93,31.16,12.93s22.34-4.12,31.16-12.93c8.23-8.23,12.94-18.81,12.94-31.16m-32.34-9.41c0,3.53-1.76,6.47-5.29,7.64-1.76.59-4.7,1.18-8.23,1.18h-7.64v-17.64h7.06c4.7,0,8.23.59,10.58,1.76,2.35,1.76,3.53,3.53,3.53,7.06m-29.4-14.7v48.21h8.23v-18.81h6.47c4.7,0,7.64.59,9.41,1.76,2.94,1.76,4.7,5.29,4.7,11.17v5.88h8.23l-.59-.59c0-.59-.59-1.18-.59-2.35v-7.06c0-2.35-1.18-4.7-2.35-7.64-1.76-2.35-4.7-4.12-8.23-4.7,2.94-.59,5.29-1.18,7.06-2.35,2.94-1.76,4.7-5.29,4.7-9.41,0-5.88-2.35-10-7.64-12.35-2.94-1.18-7.06-1.76-13.52-1.76h-15.87Z"/>
    </g>
  </g>
</svg>