<?xml version="1.0" encoding="UTF-8"?>
<svg id="Layer_1" data-name="Layer 1" xmlns="http://www.w3.org/2000/svg" viewBox="0 0 841.89 241.9">
  <defs>
    <style>
      .cls-1 {
        fill: #fff;
        fill-rule: evenodd;
        stroke-width: 0px;
      }
    </style>
  </defs>
  <path class="cls-1" d="m0,47.88v194.02c277-63.81,564.89-63.81,841.89,0V47.88C564.89-15.96,277-15.96,0,47.88Zm154.2,124.29l22.89-116.57.16-.86h.89c6.64-.88,13.3-1.72,19.99-2.53l1.16-.13,11.89,68.33,11.89-71.05h.91c6.67-.72,13.35-1.4,20.04-2.04h1.1l23.46,113.8h-1.37c-6.69.56-13.37,1.15-20.04,1.78h-1.13l-12-69.38-11.78,71.7h-.94c-6.67.73-13.45,1.48-19.99,2.29l-1.16.13-11.86-68.87-11.84,71.99h-.91l-19.93,2.69-1.72.27.3-1.53ZM292.3,43.17h-1.13v115.68h1.32c6.6-.47,13.19-.89,19.77-1.26h1.16V41.88h-1.29c-6.62.38-13.21.81-19.83,1.29Zm220.3,113.26c-7.57-.34-15.14-.65-22.73-.94h-.83l-.27-.78c-8.29-22.87-16.55-45.68-24.8-68.44v68.49h-1.24c-6.24-.13-12.46-.22-18.7-.3h-1.21V38.57h1.24c7.46,0,14.89.13,22.3.38h.86l.27.78c8.41,22.87,16.84,45.79,25.29,68.76V39.73h1.26c6.24.24,12.46.48,18.83.78h1.16v115.98l-1.43-.05Zm126.37,10.3c6.53.75,13.1,1.53,19.64,2.37l1.37.16v-48.85c7.88,1,15.74,2.04,23.62,3.15l1.4.19v-19.94l-1.05-.13c-8-1.11-15.99-2.18-23.97-3.2v-27.17c10.38,1.32,20.93,2.74,31.37,4.25l1.4.22v-19.94l-1.05-.13c-17.48-2.53-35.03-4.82-52.46-6.83l-1.37-.16v116.03h1.1Zm98.93,14.12c-6.51-1.11-13.02-2.19-19.53-3.23l-1.05-.16V61.57l1.43.22c17.27,2.69,34.84,5.81,52.19,9.07l1,.19v19.94l-1.45-.27c-10.01-1.88-20.47-3.77-31.13-5.6v27.17c7.97,1.36,15.92,2.77,23.86,4.22l1.02.22v19.96l-1.45-.27c-7.8-1.45-15.63-2.82-23.43-4.17v48.85l-1.45-.24ZM120.47,110.1c2.87-.06,5.67.9,7.91,2.69v-.03c1.55,1.36,2.76,3.06,3.55,4.96.79,1.9,1.13,3.96,1,6.02v37.58c.01,4.35-1.41,8.58-4.06,12.03-2.3,3.05-5.64,5.15-9.39,5.89-13.88,2.26-21.2,3.47-35.4,6.16-.71.14-1.43.21-2.15.22-2.87-.02-5.62-1.14-7.69-3.12-1.43-1.44-2.55-3.16-3.29-5.05s-1.07-3.92-.99-5.95v-15.71l21.09-3.85v8.61c0,2.83.4,3.34,1.72,3.34.21,0,4.96-.83,9.2-1.57h0c3.4-.59,6.45-1.12,6.56-1.12,1.86-.46,2.69-1.02,2.69-4.33v-21.52c0-2.85-1.86-2.85-2.45-2.85h-.81l-23.92,4.25c-.82.16-1.66.24-2.5.24-2.9.05-5.71-1.03-7.83-3.01-1.23-1.23-2.19-2.7-2.84-4.31-.65-1.61-.96-3.34-.93-5.08v-37.02c-.05-4.3,1.42-8.49,4.15-11.82,2.73-3.33,6.55-5.58,10.78-6.37,10.71-1.96,21.6-3.87,32.53-5.7.79-.11,1.59-.18,2.39-.19,3.2-.11,6.33.99,8.74,3.09,1.45,1.38,2.59,3.05,3.33,4.91.75,1.86,1.09,3.85,1,5.85v15.98c-7.17,1.15-14.35,2.32-21.52,3.52v-10.09c0-.24-.05-.48-.14-.7-.09-.22-.23-.42-.41-.58-.17-.16-.38-.29-.6-.37-.22-.08-.46-.12-.7-.1h-.38l-15.58,2.69c-.63.13-1.21.47-1.63.95-.43.49-.69,1.1-.74,1.74v21.17c0,2.48.65,2.93,1.91,2.93h.81l24.8-4.39h1.78Zm297.42,42.53c-7.53-17.06-15.08-34.04-22.65-50.95l8.99-8.72.02-.02c3.56-3.91,5.36-5.88,5.36-13.94v-24.54c0-7.59-5.22-15.76-16.73-15.76-16.84.24-30.56.7-47.83,1.4h-1.18v115.92h1.29c6.62-.3,13.21-.54,19.83-.75h1.18v-26.36l12.75-11.68c4.84,12.16,9.69,24.35,14.55,36.56l.32.78h.83c7.41-.14,14.79-.22,22.14-.22h1.88l-.75-1.72Zm-34.35-66.23c-5.14,5.17-17.49,17.76-17.49,17.76v-44.98l17.49-.46h.32c3.09,0,3.58,1,3.58,3.17v15.15c.1,1.76-.2,3.52-.87,5.16-.68,1.63-1.71,3.09-3.03,4.26v-.05Zm174.29-43.13c12.24.86,24.45,1.86,36.45,2.96h-.06c4.19.28,8.11,2.19,10.92,5.31,2.81,3.12,4.29,7.22,4.13,11.42v84.26c.08,1.97-.22,3.93-.91,5.78-.68,1.85-1.71,3.54-3.05,4.99-1.37,1.31-2.99,2.33-4.77,3.01-1.78.67-3.67.99-5.57.92h-1.83c-14.1-1.29-21.17-1.88-34.97-2.85-2.1-.05-4.18-.52-6.1-1.38-1.92-.86-3.65-2.09-5.09-3.63-1.44-1.53-2.56-3.34-3.29-5.31-.73-1.97-1.07-4.07-.99-6.17V58.32c-.14-1.99.15-3.98.84-5.85.69-1.87,1.77-3.57,3.17-4.99,1.39-1.42,3.08-2.53,4.93-3.25,1.86-.72,3.84-1.05,5.83-.95h.35Zm29.13,96.85c.11-.24.16-.49.16-.75l.08-71.78c-.06-.63-.33-1.22-.77-1.66-.44-.45-1.03-.73-1.66-.79-4.68-.4-12.94-1.1-17.65-1.45h-.22c-.54,0-1.07.2-1.46.57s-.63.88-.66,1.42v71.8c.06.61.34,1.19.77,1.62.43.44,1.01.71,1.62.77l17.62,1.45h.27c.53-.02,1.04-.23,1.42-.59.2-.17.35-.38.46-.62Z"/>
</svg>